<?xml version="1.0" encoding="UTF-8"?>
<svg class="bookSVG" viewBox="0 0 22 27" version="1.1" xmlns="http://www.w3.org/2000/svg" xmlns:xlink="http://www.w3.org/1999/xlink">
    <g id="lander" stroke="none" stroke-width="1" fill="none" fill-rule="evenodd">
        <g id="dashSMaller" transform="translate(-1083.000000, -21.000000)" fill="">
            <g id="Book" transform="translate(1083.000000, 21.000000)">
                <path d="M19.9902703,0.237837838 L5.87459459,0.237837838 C5.50474592,0.24058423 5.13832834,0.309035865 4.79243243,0.44 L4.59027027,0.237837838 L3.76972973,1.05837838 L3.63891892,1.18918919 L1.53405405,3.29405405 C1.37952438,3.42025284 1.23809068,3.56168654 1.11189189,3.71621622 L0.428108108,4.4 L0.654054054,4.46540541 C0.506552898,4.8217964 0.429811409,5.20348434 0.428108108,5.58918919 L0.428108108,23.427027 C0.428108108,25.0689547 1.75915345,26.4 3.40108108,26.4 L15.8875676,26.4 C16.3924524,26.3969806 16.8880351,26.2638696 17.3264865,26.0135135 L17.7605405,26.3762162 L19.907027,23.8016216 C21.0559136,23.369632 21.8212162,22.2760053 21.8335135,21.0486486 L21.8335135,0.237837838 L19.9902703,0.237837838 Z M20.0497297,2.02162162 L20.0497297,21.0486486 C20.0435428,21.3770386 19.8962178,21.6868544 19.6454054,21.8989189 L19.3659459,21.667027 L18.9021622,22.2259459 L18.8605405,22.2259459 L18.8605405,2.60432432 L4.77459459,2.60432432 C5.01892042,2.23482473 5.43162618,2.01174053 5.87459459,2.00972973 L20.0497297,2.02162162 Z M10.5362162,4.4 L12.9145946,4.4 L12.9145946,9.68 L11.5351351,8.57405405 L10.5362162,9.49567568 L10.5362162,4.4 Z M3.40108108,24.6162162 C2.74431003,24.6162162 2.21189189,24.0837981 2.21189189,23.427027 L2.21189189,5.58918919 C2.21189189,4.93241814 2.74431003,4.4 3.40108108,4.4 L8.75243243,4.4 L8.75243243,13.5745946 L11.6183784,10.9286486 L14.6983784,13.3902703 L14.6983784,4.4 L17.0767568,4.4 L17.0767568,23.427027 C17.0767568,24.0837981 16.5443386,24.6162162 15.8875676,24.6162162 L3.40108108,24.6162162 Z" id="Shape"></path>
            </g>
        </g>
    </g>
</svg>