<?xml version="1.0" encoding="UTF-8"?>
<svg width="29px" height="29px" viewBox="0 0 29 29" version="1.1" xmlns="http://www.w3.org/2000/svg" xmlns:xlink="http://www.w3.org/1999/xlink">
    <title>Group 12</title>
    <g id="Page-1" stroke="none" stroke-width="1" fill="none" fill-rule="evenodd">
        <g id="Artboard-Copy-35" transform="translate(-259.000000, -19.000000)">
            <g id="Group-12" transform="translate(259.008502, 19.000000)">
                <g id="Filter-Copy" transform="translate(0.000000, 3.000000)" fill="#212121">
                    <path d="M23.4983837,7.09894192 L21.7236483,7.09894192 L21.7236483,4.73262794 C21.7236483,3.7524686 20.9290721,2.95789247 19.9489128,2.95789247 L17.5825988,2.95789247 L17.5825988,1.77473548 C17.5825988,0.794576139 16.7880227,0 15.8078633,0 L5.75102895,0 C4.77086961,0 3.97629347,0.794576139 3.97629347,1.77473548 L3.97629347,7.09894192 L1.75787412,7.09894192 C1.02933785,7.10589232 0.37905741,7.5573942 0.117953699,8.23756937 C-0.143150011,8.91774454 0.0379711722,9.68840251 0.574717134,10.1810659 L8.72666877,17.6408707 L8.72666877,24.2547182 C8.7386966,24.9777623 9.18822118,25.6212004 9.86299688,25.8812296 C10.5377726,26.1412588 11.3028372,25.9658704 11.7969611,25.4378752 L15.9380106,21.0010365 C16.2389518,20.6797319 16.4097345,20.2580461 16.4171892,19.8178795 L16.4171892,17.9248283 L24.6992881,10.1988132 C25.2495446,9.7085964 25.4395939,8.92932916 25.1768063,8.24082541 C24.9140186,7.55232166 24.2530799,7.09785897 23.5161311,7.09894192 L23.4983837,7.09894192 Z M5.75102895,1.77473548 L15.8078633,1.77473548 L15.8078633,4.73262794 L19.9489128,4.73262794 L19.9489128,7.09894192 L5.75102895,7.09894192 L5.75102895,1.77473548 Z M14.6247063,17.1557763 L14.6247063,19.8178795 L10.4836569,24.2547182 L10.4836569,16.8599871 L1.75195834,8.8736774 L23.492468,8.8736774 L14.6247063,17.1557763 Z" id="Shape"></path>
                </g>
                <g id="Group-9-Copy" transform="translate(14.991498, 0.000000)">
                    <circle id="Oval" cx="7" cy="7" r="7"></circle>
                    <g id="Group-10" opacity="0" transform="translate(3.250000, 6.500000)" stroke="#760F23" stroke-linecap="round" stroke-width="1.3">
                        <line x1="3.75" y1="-3.25" x2="3.75" y2="4.25" id="Line-Copy" transform="translate(3.750000, 0.500000) rotate(-90.000000) translate(-3.750000, -0.500000) "></line>
                    </g>
                </g>
            </g>
        </g>
    </g>
</svg>