<?xml version="1.0" encoding="UTF-8"?>
<svg width="30px" height="30px" viewBox="0 0 30 30" version="1.1" xmlns="http://www.w3.org/2000/svg" xmlns:xlink="http://www.w3.org/1999/xlink">
    <title>cegfilterplus copy 5</title>
    <g id="swiped1" stroke="none" stroke-width="1" fill="none" fill-rule="evenodd">
        <g id="Artboard-Copy-27" transform="translate(-151.000000, -18.000000)">
            <g id="cegfilterplus-copy-5" transform="translate(151.008502, 19.000000)">
                <g id="Filter" transform="translate(-0.000000, 3.000000)" fill="#212121">
                    <path d="M23.4983837,7.09894192 L21.7236483,7.09894192 L21.7236483,4.73262794 C21.7236483,3.7524686 20.9290721,2.95789247 19.9489128,2.95789247 L17.5825988,2.95789247 L17.5825988,1.77473548 C17.5825988,0.794576139 16.7880227,0 15.8078633,0 L5.75102895,0 C4.77086961,0 3.97629347,0.794576139 3.97629347,1.77473548 L3.97629347,7.09894192 L1.75787412,7.09894192 C1.02933785,7.10589232 0.37905741,7.5573942 0.117953699,8.23756937 C-0.143150011,8.91774454 0.0379711722,9.68840251 0.574717134,10.1810659 L8.72666877,17.6408707 L8.72666877,24.2547182 C8.7386966,24.9777623 9.18822118,25.6212004 9.86299688,25.8812296 C10.5377726,26.1412588 11.3028372,25.9658704 11.7969611,25.4378752 L15.9380106,21.0010365 C16.2389518,20.6797319 16.4097345,20.2580461 16.4171892,19.8178795 L16.4171892,17.9248283 L24.6992881,10.1988132 C25.2495446,9.7085964 25.4395939,8.92932916 25.1768063,8.24082541 C24.9140186,7.55232166 24.2530799,7.09785897 23.5161311,7.09894192 L23.4983837,7.09894192 Z M5.75102895,1.77473548 L15.8078633,1.77473548 L15.8078633,4.73262794 L19.9489128,4.73262794 L19.9489128,7.09894192 L5.75102895,7.09894192 L5.75102895,1.77473548 Z M14.6247063,17.1557763 L14.6247063,19.8178795 L10.4836569,24.2547182 L10.4836569,16.8599871 L1.75195834,8.8736774 L23.492468,8.8736774 L14.6247063,17.1557763 Z" id="Shape"></path>
                </g>
                <g id="cross-copy" transform="translate(14.991498, 0.000000)">
                    <circle id="Oval" stroke="#FFFFFF" fill="#61CAA0" cx="7" cy="7" r="7.5"></circle>
                    <path d="M8.67492775,4.76428377 L6.93553391,6.50763674 L5.19614006,4.76428377 C5.02307344,4.60265155 4.75337957,4.60742082 4.58610957,4.77507155 C4.41883958,4.94272227 4.41408114,5.21303001 4.5753463,5.38649056 L6.31474014,7.12984353 L4.5753463,8.8731965 C4.45783286,8.9829459 4.40946014,9.14823276 4.44920479,9.30421493 C4.48894943,9.4601971 4.61047252,9.5819968 4.76610046,9.62183191 C4.9217284,9.66166702 5.0866399,9.61318419 5.19614006,9.49540328 L6.93553391,7.75205031 L8.67492775,9.49540328 C8.78442791,9.61318419 8.94933941,9.66166702 9.10496735,9.62183191 C9.26059529,9.5819968 9.38211838,9.4601971 9.42186303,9.30421493 C9.46160767,9.14823276 9.41323495,8.9829459 9.29572152,8.8731965 L7.55632767,7.12984353 L9.29572152,5.38649056 C9.46699815,5.21461031 9.46699815,4.93616402 9.29572152,4.76428377 C9.1242316,4.59261728 8.84641766,4.59261728 8.67492775,4.76428377 Z" id="Shape" fill="#2E3A46" transform="translate(6.935534, 7.135534) rotate(45.000000) translate(-6.935534, -7.135534) "></path>
                </g>
            </g>
        </g>
    </g>
</svg>