<?xml version="1.0" encoding="UTF-8"?>
<svg width="24px" height="18px" viewBox="0 0 24 18" version="1.1" xmlns="http://www.w3.org/2000/svg" xmlns:xlink="http://www.w3.org/1999/xlink">
    <title>Shape Copy</title>
    <g id="swiped1" stroke="none" stroke-width="1" fill="none" fill-rule="evenodd">
        <g id="Artboard-Copy-26" transform="translate(-331.000000, -26.000000)" fill="#000000">
            <path d="M352.705882,26 L332.588235,26 C331.711077,26 331,26.7110772 331,27.5882353 L331,42.4117647 C331,43.2889228 331.711077,44 332.588235,44 L352.705882,44 C353.58304,44 354.294118,43.2889228 354.294118,42.4117647 L354.294118,27.5882353 C354.294118,26.7110772 353.58304,26 352.705882,26 Z M352.705882,41.2894118 L348.502353,37.0858824 C348.18946,36.7943259 347.701872,36.8029288 347.399459,37.1053416 C347.097046,37.4077544 347.088444,37.8953426 347.38,38.2082353 L351.583529,42.4117647 L333.710588,42.4117647 L337.914118,38.2082353 C338.205674,37.8953426 338.197071,37.4077544 337.894658,37.1053416 C337.592246,36.8029288 337.104657,36.7943259 336.791765,37.0858824 L332.588235,41.2894118 L332.588235,31.0982353 L342.117647,38.2823529 C342.4,38.4941176 342.788235,38.4941176 343.070588,38.2823529 L352.695294,31.0929412 L352.705882,41.2894118 Z M352.705882,27.5882353 L352.705882,29.1129412 L342.61,36.6570588 L332.588235,29.1129412 L332.588235,27.5882353 L352.705882,27.5882353 Z" id="Shape-Copy"></path>
        </g>
    </g>
</svg>