<?xml version="1.0" encoding="UTF-8"?>
<svg width="30px" height="24px" viewBox="0 0 30 24" version="1.1" xmlns="http://www.w3.org/2000/svg" xmlns:xlink="http://www.w3.org/1999/xlink">
    <title>Group 3 Copy 3</title>
    <g id="swiped1" stroke="none" stroke-width="1" fill="none" fill-rule="evenodd">
        <g id="Artboard-Copy-27" transform="translate(-238.000000, -20.000000)">
            <g id="Group-3-Copy-3" transform="translate(238.000000, 21.100000)">
                <path d="M21.7058824,4.9 L1.58823529,4.9 C0.711077162,4.9 0,5.61107716 0,6.48823529 L0,21.3117647 C0,22.1889228 0.711077162,22.9 1.58823529,22.9 L21.7058824,22.9 C22.5830405,22.9 23.2941176,22.1889228 23.2941176,21.3117647 L23.2941176,6.48823529 C23.2941176,5.61107716 22.5830405,4.9 21.7058824,4.9 Z M21.7058824,20.1894118 L17.5023529,15.9858824 C17.1894603,15.6943259 16.7018721,15.7029288 16.3994593,16.0053416 C16.0970465,16.3077544 16.0884436,16.7953426 16.38,17.1082353 L20.5835294,21.3117647 L2.71058824,21.3117647 L6.91411765,17.1082353 C7.20567409,16.7953426 7.19707116,16.3077544 6.89465838,16.0053416 C6.59224559,15.7029288 6.10465739,15.6943259 5.79176471,15.9858824 L1.58823529,20.1894118 L1.58823529,9.99823529 L11.1176471,17.1823529 C11.4,17.3941176 11.7882353,17.3941176 12.0705882,17.1823529 L21.6952941,9.99294118 L21.7058824,20.1894118 Z M21.7058824,6.48823529 L21.7058824,8.01294118 L11.61,15.5570588 L1.58823529,8.01294118 L1.58823529,6.48823529 L21.7058824,6.48823529 Z" id="Shape-Copy" fill="#000000"></path>
                <circle id="Oval-Copy" stroke-opacity="0" stroke="#FFFFFF" cx="22.3" cy="6.5" r="7"></circle>
            </g>
        </g>
    </g>
</svg>