<?xml version="1.0" encoding="UTF-8"?>
<svg width="29px" height="24px" viewBox="0 0 29 24" version="1.1" xmlns="http://www.w3.org/2000/svg" xmlns:xlink="http://www.w3.org/1999/xlink">
    <title>Group 3</title>
    <g id="swiped1" stroke="none" stroke-width="1" fill="none" fill-rule="evenodd">
        <g id="Artboard-Copy-26" transform="translate(-331.000000, -20.000000)">
            <g id="Group-3" transform="translate(331.000000, 21.200000)">
                <path d="M21.7058824,4.8 L1.58823529,4.8 C0.711077162,4.8 0,5.51107716 0,6.38823529 L0,21.2117647 C0,22.0889228 0.711077162,22.8 1.58823529,22.8 L21.7058824,22.8 C22.5830405,22.8 23.2941176,22.0889228 23.2941176,21.2117647 L23.2941176,6.38823529 C23.2941176,5.51107716 22.5830405,4.8 21.7058824,4.8 Z M21.7058824,20.0894118 L17.5023529,15.8858824 C17.1894603,15.5943259 16.7018721,15.6029288 16.3994593,15.9053416 C16.0970465,16.2077544 16.0884436,16.6953426 16.38,17.0082353 L20.5835294,21.2117647 L2.71058824,21.2117647 L6.91411765,17.0082353 C7.20567409,16.6953426 7.19707116,16.2077544 6.89465838,15.9053416 C6.59224559,15.6029288 6.10465739,15.5943259 5.79176471,15.8858824 L1.58823529,20.0894118 L1.58823529,9.89823529 L11.1176471,17.0823529 C11.4,17.2941176 11.7882353,17.2941176 12.0705882,17.0823529 L21.6952941,9.89294118 L21.7058824,20.0894118 Z M21.7058824,6.38823529 L21.7058824,7.91294118 L11.61,15.4570588 L1.58823529,7.91294118 L1.58823529,6.38823529 L21.7058824,6.38823529 Z" id="Shape-Copy" fill="#000000"></path>
                <circle id="Oval-Copy" fill="#61CAA0" cx="22" cy="7.3" r="7"></circle>
                <text id="1" stroke="#2B3A47" stroke-width="0.6" font-family="MuggsyHeavy, Muggsy Heavy" font-size="9" font-weight="800" fill="#2E3A46">
                    <tspan x="20.7085" y="11">1</tspan>
                </text>
            </g>
        </g>
    </g>
</svg>