<?xml version="1.0" encoding="UTF-8"?>
<svg width="30px" height="24px" viewBox="0 0 30 24" version="1.1" xmlns="http://www.w3.org/2000/svg" xmlns:xlink="http://www.w3.org/1999/xlink">
    <title>Group 3 Copy 2</title>
    <g id="swiped1" stroke="none" stroke-width="1" fill="none" fill-rule="evenodd">
        <g id="Artboard-Copy-27" transform="translate(-129.000000, -20.000000)">
            <g id="Group-3-Copy-2" transform="translate(129.000000, 21.000000)">
                <path d="M21.7058824,5 L1.58823529,5 C0.711077162,5 -1.36779477e-13,5.71107716 -1.36779477e-13,6.58823529 L-1.36779477e-13,21.4117647 C-1.36779477e-13,22.2889228 0.711077162,23 1.58823529,23 L21.7058824,23 C22.5830405,23 23.2941176,22.2889228 23.2941176,21.4117647 L23.2941176,6.58823529 C23.2941176,5.71107716 22.5830405,5 21.7058824,5 Z M21.7058824,20.2894118 L17.5023529,16.0858824 C17.1894603,15.7943259 16.7018721,15.8029288 16.3994593,16.1053416 C16.0970465,16.4077544 16.0884436,16.8953426 16.38,17.2082353 L20.5835294,21.4117647 L2.71058824,21.4117647 L6.91411765,17.2082353 C7.20567409,16.8953426 7.19707116,16.4077544 6.89465838,16.1053416 C6.59224559,15.8029288 6.10465739,15.7943259 5.79176471,16.0858824 L1.58823529,20.2894118 L1.58823529,10.0982353 L11.1176471,17.2823529 C11.4,17.4941176 11.7882353,17.4941176 12.0705882,17.2823529 L21.6952941,10.0929412 L21.7058824,20.2894118 Z M21.7058824,6.58823529 L21.7058824,8.11294118 L11.61,15.6570588 L1.58823529,8.11294118 L1.58823529,6.58823529 L21.7058824,6.58823529 Z" id="Shape-Copy" fill="#000000"></path>
                <circle id="Oval-Copy" stroke="#FFFFFF" fill="#61CAA0" cx="22.3" cy="6.6" r="7"></circle>
                <text id="1" font-family="MuggsyHeavy, Muggsy Heavy" font-size="8.4" font-weight="800" fill="#2E3A46">
                    <tspan x="21.1946" y="10">1</tspan>
                </text>
            </g>
        </g>
    </g>
</svg>