<?xml version="1.0" encoding="UTF-8"?>
<svg width="29px" height="24px" viewBox="0 0 29 24" version="1.1" xmlns="http://www.w3.org/2000/svg" xmlns:xlink="http://www.w3.org/1999/xlink">
    <title>Group 3 Copy</title>
    <g id="swiped1" stroke="none" stroke-width="1" fill="none" fill-rule="evenodd">
        <g id="Artboard-Copy-27" transform="translate(-77.000000, -20.000000)">
            <g id="Group-3-Copy" transform="translate(77.000000, 20.800000)">
                <path d="M21.7058824,5.2 L1.58823529,5.2 C0.711077162,5.2 4.97379915e-14,5.91107716 4.97379915e-14,6.78823529 L4.97379915e-14,21.6117647 C4.97379915e-14,22.4889228 0.711077162,23.2 1.58823529,23.2 L21.7058824,23.2 C22.5830405,23.2 23.2941176,22.4889228 23.2941176,21.6117647 L23.2941176,6.78823529 C23.2941176,5.91107716 22.5830405,5.2 21.7058824,5.2 Z M21.7058824,20.4894118 L17.5023529,16.2858824 C17.1894603,15.9943259 16.7018721,16.0029288 16.3994593,16.3053416 C16.0970465,16.6077544 16.0884436,17.0953426 16.38,17.4082353 L20.5835294,21.6117647 L2.71058824,21.6117647 L6.91411765,17.4082353 C7.20567409,17.0953426 7.19707116,16.6077544 6.89465838,16.3053416 C6.59224559,16.0029288 6.10465739,15.9943259 5.79176471,16.2858824 L1.58823529,20.4894118 L1.58823529,10.2982353 L11.1176471,17.4823529 C11.4,17.6941176 11.7882353,17.6941176 12.0705882,17.4823529 L21.6952941,10.2929412 L21.7058824,20.4894118 Z M21.7058824,6.78823529 L21.7058824,8.31294118 L11.61,15.8570588 L1.58823529,8.31294118 L1.58823529,6.78823529 L21.7058824,6.78823529 Z" id="Shape-Copy" fill="#000000"></path>
                <circle id="Oval-Copy" stroke="#FFFFFF" fill="#61CAA0" cx="22" cy="6.7" r="6.5"></circle>
                <text id="1" font-family="MuggsyHeavy, Muggsy Heavy" font-size="8" font-weight="800" fill="#2E3A46">
                    <tspan x="20.852" y="10">1</tspan>
                </text>
            </g>
        </g>
    </g>
</svg>