<?xml version="1.0" encoding="UTF-8"?>
<svg class="crossSVG" viewBox="0 0 17 17" version="1.1" xmlns="http://www.w3.org/2000/svg" xmlns:xlink="http://www.w3.org/1999/xlink">
    <g id="lander" stroke="none" stroke-width="1" fill="none" fill-rule="evenodd">
        <g id="with-content" transform="translate(-908.000000, -130.000000)" fill="" fill-rule="nonzero">
            <g id="close" transform="translate(907.000000, 132.000000)">
                <path d="M10.7483549,6.66674232 L17.0401562,0.374941027 C17.431059,-0.0156282754 17.431059,-0.649344479 17.0401562,-1.03991378 C16.6492534,-1.43081662 16.0162042,-1.43081662 15.6253014,-1.03991378 L9.3335001,5.25188752 L3.04136527,-1.03991378 C2.65046243,-1.43081662 2.0174133,-1.43081662 1.62651046,-1.03991378 C1.23560762,-0.649344479 1.23560762,-0.0156282754 1.62651046,0.374941027 L7.91864529,6.66674232 L1.62651046,12.9585436 C1.23560762,13.3491129 1.23560762,13.9828291 1.62651046,14.3733984 C1.82196188,14.5685163 2.07811664,14.666242 2.33393787,14.666242 C2.58975909,14.666242 2.84591385,14.5685163 3.04136527,14.3730649 L9.3335001,8.0812636 L15.6253014,14.3730649 C15.8207528,14.5685163 16.0769076,14.666242 16.3327288,14.666242 C16.58855,14.666242 16.8447048,14.5685163 17.0401562,14.3730649 C17.431059,13.9824956 17.431059,13.3487794 17.0401562,12.9582101 L10.7483549,6.66674232 Z" id="Path"></path>
            </g>
        </g>
    </g>
</svg>