<svg class="doSVG" width="21" height="11" viewBox="0 0 21 11" fill="none" xmlns="http://www.w3.org/2000/svg">
<path d="M4.89521 2.2132C4.37001 2.03813 3.71687 1.9506 2.9358 1.9506C2.15474 1.9506 1.744 1.97753 1.7036 2.0314C1.69014 2.04487 1.6834 2.12567 1.6834 2.2738C1.6834 2.5566 1.7036 2.88653 1.744 3.2636C1.8248 4.0716 1.8652 5.2028 1.8652 6.6572V8.9196L2.1278 8.9802C2.23554 9.00713 2.43754 9.0206 2.7338 9.0206C2.80114 9.0206 2.90887 9.0206 3.057 9.0206C3.20514 9.00713 3.31961 9.0004 3.40041 9.0004C4.07374 8.96 4.56527 8.86573 4.87501 8.7176C5.65607 8.30013 6.24861 7.68067 6.65261 6.8592C6.88154 6.3744 7.00947 5.829 7.03641 5.223C7.03641 5.15567 7.03641 5.06813 7.03641 4.9604C7.04987 4.8392 7.05661 4.7584 7.05661 4.718C7.05661 4.42173 6.94887 4.0514 6.73341 3.607C6.53141 3.21647 6.30921 2.93367 6.06681 2.7586C5.83787 2.58353 5.44734 2.40173 4.89521 2.2132ZM2.4914 0.475999C2.80114 0.422133 3.13107 0.395199 3.48121 0.395199C3.99294 0.395199 4.54507 0.475999 5.1376 0.637599C6.02641 0.893465 6.67281 1.16953 7.07681 1.4658C7.48081 1.76207 7.85114 2.22667 8.18781 2.8596C8.53794 3.51947 8.71301 4.23993 8.71301 5.021C8.71301 6.05793 8.43021 7.0612 7.86461 8.0308C7.55487 8.556 7.13067 9.03407 6.59201 9.465C6.06681 9.89593 5.52141 10.2057 4.9558 10.3942C4.47101 10.5423 3.80441 10.6164 2.95601 10.6164C2.56547 10.6164 2.19514 10.5962 1.845 10.5558C1.5622 10.5154 1.36694 10.4615 1.2592 10.3942C1.15147 10.3269 0.996605 10.172 0.794605 9.9296L0.350205 9.4044L0.309805 5.8088C0.309805 5.57987 0.303071 5.2836 0.289605 4.92C0.289605 4.54293 0.289605 4.28033 0.289605 4.1322C0.289605 2.97407 0.316538 2.193 0.370405 1.789C0.437738 1.385 0.558938 1.1022 0.734005 0.940599C0.895605 0.778999 1.4814 0.624132 2.4914 0.475999ZM17.6728 2.0718C17.2419 1.8698 16.5753 1.7688 15.673 1.7688C15.1478 1.7688 14.7909 1.81593 14.6024 1.9102C14.36 2.01793 14.1243 2.0718 13.8954 2.0718C13.4914 2.0718 13.1345 2.40847 12.8248 3.0818C12.5689 3.63393 12.441 4.17933 12.441 4.718C12.441 5.25667 12.5689 5.84247 12.8248 6.4754C13.1615 7.29687 13.6126 7.9904 14.1782 8.556C14.3667 8.74453 14.4947 8.86573 14.562 8.9196C14.6428 8.96 14.7573 8.9802 14.9054 8.9802C14.9323 8.9802 14.9795 8.9802 15.0468 8.9802C15.1276 8.96673 15.1949 8.96 15.2488 8.96C15.6124 8.93307 16.0837 8.78493 16.6628 8.5156C17.2553 8.2328 17.6997 7.95 17.996 7.6672C18.7097 6.96693 19.0666 6.03773 19.0666 4.8796C19.0666 4.24667 18.9454 3.67433 18.703 3.1626C18.4606 2.65087 18.1172 2.28727 17.6728 2.0718ZM14.4004 0.172999C14.7101 0.0652658 15.0468 0.0113994 15.4104 0.0113994C15.6528 0.0113994 15.8548 0.0181326 16.0164 0.0315991C17.3092 0.112399 18.1845 0.287465 18.6424 0.556798C19.1137 0.826132 19.5379 1.2638 19.915 1.8698C20.3055 2.46233 20.5749 3.102 20.723 3.7888C20.8038 4.16587 20.8442 4.5564 20.8442 4.9604C20.8442 6.2532 20.4065 7.41133 19.5312 8.4348C18.6693 9.4448 17.5045 10.1518 16.0366 10.5558C15.5787 10.6635 15.2757 10.7174 15.1276 10.7174C14.9795 10.7174 14.8179 10.6972 14.6428 10.6568C13.956 10.5087 13.2827 10.0306 12.6228 9.2226C11.5724 7.91633 11.0472 6.38787 11.0472 4.6372V4.5362C11.0607 3.78207 11.1617 3.20973 11.3502 2.8192C11.7003 2.092 12.1447 1.56007 12.6834 1.2234C12.9662 1.04833 13.2288 0.866533 13.4712 0.677999C13.6867 0.502932 13.9964 0.334599 14.4004 0.172999Z" fill="#141414"/>
</svg>
