<?xml version="1.0" encoding="UTF-8"?>
<svg class="gmLogoSmallSVGCEG" viewBox="0 0 40 40" version="1.1" xmlns="http://www.w3.org/2000/svg" xmlns:xlink="http://www.w3.org/1999/xlink">
    <g id="lander" stroke="none" stroke-width="1" fill="#212121" fill-rule="evenodd">
        <g id="mobileFIlters" transform="translate(-18.000000, -70.000000)">
            <g id="Group-3" transform="translate(18.000000, 70.000000)">
                <circle id="Oval" fill="#212121q" cx="20" cy="20" r="20"></circle>
                <g id="Idea" transform="translate(8.000000, 7.000000)" fill="#FFFFFF">
                    <path d="M11.5930435,3.07826087 C12.0252663,3.07826087 12.3756522,2.72787502 12.3756522,2.29565217 L12.3756522,1.25217391 C12.3756522,0.819951065 12.0252663,0.469565217 11.5930435,0.469565217 C11.1608206,0.469565217 10.8104348,0.819951065 10.8104348,1.25217391 L10.8104348,2.29565217 C10.8104348,2.72787502 11.1608206,3.07826087 11.5930435,3.07826087 Z" id="Shape"></path>
                    <path d="M22.8104348,10.1217391 L21.7669565,10.1217391 C21.3347337,10.1217391 20.9843478,10.472125 20.9843478,10.9043478 C20.9843478,11.3365707 21.3347337,11.6869565 21.7669565,11.6869565 L22.8104348,11.6869565 C23.2426576,11.6869565 23.5930435,11.3365707 23.5930435,10.9043478 C23.5930435,10.472125 23.2426576,10.1217391 22.8104348,10.1217391 Z" id="Shape"></path>
                    <path d="M2.72347826,10.9043478 C2.72347826,10.472125 2.37309241,10.1217391 1.94086957,10.1217391 L0.897391304,10.1217391 C0.465168457,10.1217391 0.114782609,10.472125 0.114782609,10.9043478 C0.114782609,11.3365707 0.465168457,11.6869565 0.897391304,11.6869565 L1.94086957,11.6869565 C2.37309241,11.6869565 2.72347826,11.3365707 2.72347826,10.9043478 Z" id="Shape"></path>
                    <path d="M18.8608696,5.71826087 C19.0683604,5.71807821 19.2672862,5.6355052 19.413913,5.48869565 L20.1547826,4.75304348 C20.4421136,4.44468547 20.4336353,3.96416377 20.1356054,3.66613378 C19.8375754,3.36810378 19.3570537,3.35962554 19.0486957,3.64695652 L18.3078261,4.3826087 C18.0842919,4.60642103 18.0174697,4.94279173 18.1384832,5.23505062 C18.2594966,5.52730951 18.5445478,5.71798264 18.8608696,5.71826087 Z" id="Shape"></path>
                    <path d="M4.87826087,4.3826087 L4.1373913,3.64695652 C3.8290333,3.35962554 3.34851159,3.36810378 3.0504816,3.66613378 C2.75245161,3.96416377 2.74397336,4.44468547 3.03130435,4.75304348 L3.77217391,5.48869565 C4.08053192,5.77602664 4.56105362,5.76754839 4.85908362,5.4695184 C5.15711361,5.17148841 5.16559185,4.6909667 4.87826087,4.3826087 L4.87826087,4.3826087 Z" id="Shape"></path>
                    <path d="M20.4626087,16.9043478 C20.1542507,16.6170168 19.673729,16.6254951 19.375699,16.9235251 C19.077669,17.2215551 19.0691908,17.7020768 19.3565217,18.0104348 L20.0973913,18.746087 C20.4057493,19.0334179 20.886271,19.0249397 21.184301,18.7269097 C21.482331,18.4288797 21.4908092,17.948358 21.2034783,17.64 L20.4626087,16.9043478 Z" id="Shape"></path>
                    <path d="M2.72347826,16.9043478 L1.9826087,17.64 C1.69527771,17.948358 1.70375596,18.4288797 2.00178595,18.7269097 C2.29981594,19.0249397 2.78033765,19.0334179 3.08869565,18.746087 L3.82956522,18.0104348 C4.1168962,17.7020768 4.10841796,17.2215551 3.81038796,16.9235251 C3.51235797,16.6254951 3.03183627,16.6170168 2.72347826,16.9043478 Z" id="Shape"></path>
                    <path d="M19.1582609,12.2086957 C19.1632752,8.62513788 16.5678729,5.56718114 13.0311607,4.98961919 C9.49444839,4.41205725 6.06106664,6.48548486 4.92579898,9.88446688 C3.79053131,13.2834489 5.28870233,17.0040263 8.4626087,18.6678261 C8.29987747,18.9197535 8.21295117,19.2131297 8.21217391,19.5130435 L8.21217391,21.0782609 C8.21217391,22.8071523 9.6137173,24.2086957 11.3426087,24.2086957 L12.386087,24.2086957 C14.1149783,24.2086957 15.5165217,22.8071523 15.5165217,21.0782609 L15.5165217,19.5130435 C15.5157445,19.2131297 15.4288182,18.9197535 15.266087,18.6678261 C17.6605259,17.4027639 19.1585421,14.9167798 19.1582609,12.2086957 Z M13.9408696,19.5130435 L13.9408696,20.0347826 L11.3321739,20.0347826 C10.8999511,20.0347826 10.5495652,20.3851685 10.5495652,20.8173913 C10.5495652,21.2496142 10.8999511,21.6 11.3321739,21.6 L13.8469565,21.6 C13.6263922,22.2238585 13.0373504,22.6416186 12.3756522,22.6434783 L11.3321739,22.6434783 C10.4677282,22.6434783 9.76695652,21.9427066 9.76695652,21.0782609 L9.76695652,19.5130435 L13.9408696,19.5130435 Z M11.853913,17.9478261 L11.853913,17.9478261 C8.68427883,17.9478261 6.11478261,15.3783299 6.11478261,12.2086957 C6.11478261,9.03906144 8.68427883,6.46956522 11.853913,6.46956522 C15.0235473,6.46956522 17.5930435,9.03906144 17.5930435,12.2086957 C17.5930441,13.7317121 16.9876713,15.1922736 15.9102469,16.2687194 C14.8328225,17.3451653 13.3717115,17.9492106 11.8486957,17.9478261 L11.853913,17.9478261 Z" id="Shape"></path>
                    <path d="M11.853913,7.77391304 C11.4216902,7.77391304 11.0713043,8.12429889 11.0713043,8.55652174 C11.0713043,8.98874459 11.4216902,9.33913043 11.853913,9.33913043 C13.4375392,9.34200193 14.7206068,10.6250695 14.7234783,12.2086957 C14.7234783,12.6409185 15.0738641,12.9913043 15.506087,12.9913043 C15.9383098,12.9913043 16.2886957,12.6409185 16.2886957,12.2086957 C16.2858206,9.76062471 14.301984,7.77678806 11.853913,7.77391304 L11.853913,7.77391304 Z" id="Shape"></path>
                </g>
            </g>
        </g>
    </g>
</svg>