<svg width="155" height="12" viewBox="0 0 155 12" fill="none" xmlns="http://www.w3.org/2000/svg">
<path d="M7.57258 11.025C7.17258 11.025 6.90758 10.795 6.77758 10.335C6.65758 9.875 6.55258 9.165 6.46258 8.205C4.79258 8.345 3.70758 8.425 3.20758 8.445C2.70758 8.455 2.23758 8.46 1.79758 8.46C0.967577 8.46 0.552577 8.025 0.552577 7.155C0.552577 6.895 0.642577 6.525 0.822577 6.045C1.57258 3.975 2.12258 2.515 2.47258 1.665C2.68258 1.105 2.99258 0.824999 3.40258 0.824999C3.95258 0.824999 4.22758 1.125 4.22758 1.725C4.22758 2.095 3.96258 3.025 3.43258 4.515L2.63758 6.615C3.12758 6.595 4.37258 6.51 6.37258 6.36C6.37258 3.87 6.44758 2.4 6.59758 1.95C6.74758 1.49 7.02258 1.26 7.42258 1.26C7.97258 1.26 8.25758 1.775 8.27758 2.805L8.39758 6.225C8.63758 6.255 8.89758 6.315 9.17758 6.405C9.45758 6.485 9.59758 6.71 9.59758 7.08C9.59758 7.41 9.47258 7.635 9.22258 7.755C8.97258 7.865 8.71758 7.935 8.45758 7.965L8.47258 8.985C8.47258 9.615 8.44258 10.115 8.38258 10.485C8.32258 10.845 8.05258 11.025 7.57258 11.025ZM15.5718 11.325C15.1018 11.325 14.8618 11.09 14.8518 10.62C14.8518 10.33 15.0568 9.64 15.4668 8.55C15.9668 7.27 16.5068 6.05 17.0868 4.89C17.6668 3.72 18.0818 2.84 18.3318 2.25C16.7318 2.28 15.1318 2.435 13.5318 2.715C12.6318 2.855 12.0718 2.925 11.8518 2.925C11.4018 2.915 11.1768 2.685 11.1768 2.235C11.1768 1.995 11.2668 1.81 11.4468 1.68C11.6368 1.55 12.1468 1.38 12.9768 1.17C13.7568 0.979999 14.5768 0.834999 15.4368 0.734999C16.3068 0.625 17.3618 0.57 18.6018 0.57C19.2518 0.57 19.7268 0.69 20.0268 0.929999C20.3368 1.17 20.4918 1.495 20.4918 1.905C20.4918 2.195 20.3718 2.59 20.1318 3.09C19.1718 5.02 18.4268 6.54 17.8968 7.65C17.3768 8.75 16.9618 9.64 16.6518 10.32C16.3518 10.99 15.9918 11.325 15.5718 11.325ZM31.6935 10.785C29.9535 10.785 29.0835 10.56 29.0835 10.11C29.0835 9.84 29.1985 9.69 29.4285 9.66C29.4985 9.65 29.6135 9.645 29.7735 9.645L31.4385 9.66C32.0985 9.66 32.6885 9.575 33.2085 9.405C33.7385 9.235 34.0035 8.99 34.0035 8.67C34.0035 8.24 33.6185 7.915 32.8485 7.695C32.0785 7.475 31.2435 7.29 30.3435 7.14C29.2635 6.95 28.4885 6.75 28.0185 6.54C27.1585 6.17 26.7285 5.545 26.7285 4.665C26.7285 3.715 27.3235 2.845 28.5135 2.055C29.7035 1.265 31.0935 0.869999 32.6835 0.869999C33.8735 0.869999 34.8585 1.165 35.6385 1.755C35.9685 2.005 36.1335 2.27 36.1335 2.55C36.1335 2.87 35.9935 3.03 35.7135 3.03C35.4935 3.03 35.2485 2.92 34.9785 2.7C34.4785 2.31 33.6885 2.115 32.6085 2.115C31.2985 2.115 30.2135 2.405 29.3535 2.985C28.4935 3.565 28.0635 4.105 28.0635 4.605C28.0635 5.265 28.9635 5.725 30.7635 5.985C32.5035 6.245 33.6885 6.59 34.3185 7.02C34.9485 7.44 35.2635 8.005 35.2635 8.715C35.2635 9.375 34.9135 9.885 34.2135 10.245C33.5235 10.605 32.6835 10.785 31.6935 10.785ZM39.1213 10.56C38.1313 10.56 37.6363 10.205 37.6363 9.495C37.6463 7.895 37.6963 6.3 37.7863 4.71C37.8863 3.12 37.9763 2.155 38.0563 1.815C38.1463 1.475 38.3363 1.305 38.6263 1.305C38.9563 1.305 39.1213 1.53 39.1213 1.98C39.1213 2.24 39.0963 3.09 39.0463 4.53C38.9963 5.97 38.9663 7.605 38.9563 9.435C40.0063 9.275 40.9613 9.14 41.8213 9.03C42.6913 8.92 43.2713 8.865 43.5613 8.865C43.7813 8.865 43.8913 8.985 43.8913 9.225C43.8913 9.455 43.6413 9.655 43.1413 9.825C42.6413 9.985 41.9863 10.15 41.1763 10.32C40.3663 10.48 39.6813 10.56 39.1213 10.56ZM46.39 1.35C46.7 1.35 46.88 1.615 46.93 2.145C47 2.895 47.035 4.105 47.035 5.775C47.035 6.675 47.02 7.63 46.99 8.64C46.97 9.65 46.92 10.325 46.84 10.665C46.76 10.995 46.58 11.16 46.3 11.16C46.01 11.16 45.82 11.03 45.73 10.77C45.65 10.51 45.61 9.125 45.61 6.615C45.61 6.385 45.615 5.66 45.625 4.44C45.645 3.22 45.695 2.4 45.775 1.98C45.855 1.56 46.06 1.35 46.39 1.35ZM50.178 11.43C49.828 11.43 49.608 11.2 49.518 10.74C49.438 10.28 49.368 9.46 49.308 8.28C49.218 6.58 49.173 5.09 49.173 3.81C49.173 3.11 49.188 2.445 49.218 1.815C49.238 1.375 49.408 1.1 49.728 0.99C50.248 0.81 50.973 0.719999 51.903 0.719999C53.673 0.719999 55.313 1.18 56.823 2.1C58.343 3.01 59.103 4.085 59.103 5.325C59.103 6.755 58.468 7.945 57.198 8.895C55.938 9.845 54.588 10.51 53.148 10.89C51.748 11.25 50.758 11.43 50.178 11.43ZM50.748 10.2C53.078 9.82 54.833 9.18 56.013 8.28C57.193 7.37 57.783 6.445 57.783 5.505C57.783 4.455 57.128 3.565 55.818 2.835C54.698 2.195 53.233 1.875 51.423 1.875C51.133 1.875 50.833 1.885 50.523 1.905C50.503 2.735 50.493 3.53 50.493 4.29C50.493 6.5 50.578 8.47 50.748 10.2ZM63.546 10.59C62.436 10.59 61.701 10.08 61.341 9.06C61.091 8.34 60.951 7.41 60.921 6.27C60.901 5.81 60.891 5.345 60.891 4.875C60.891 4.165 60.911 3.44 60.951 2.7C60.971 2.34 61.301 2.085 61.941 1.935C62.531 1.805 63.281 1.695 64.191 1.605C65.101 1.505 65.926 1.455 66.666 1.455C67.036 1.455 67.301 1.475 67.461 1.515C67.631 1.555 67.716 1.675 67.716 1.875C67.716 2.055 67.621 2.18 67.431 2.25C67.251 2.32 66.591 2.41 65.451 2.52C64.321 2.63 63.291 2.82 62.361 3.09C62.311 3.54 62.286 4.13 62.286 4.86C64.166 4.51 65.481 4.335 66.231 4.335C66.581 4.335 66.756 4.47 66.756 4.74C66.756 4.89 66.676 5 66.516 5.07C66.356 5.13 65.671 5.265 64.461 5.475C63.261 5.685 62.541 5.835 62.301 5.925C62.301 7.165 62.466 8.165 62.796 8.925C62.946 9.265 63.286 9.435 63.816 9.435C64.006 9.435 64.456 9.335 65.166 9.135C65.886 8.935 66.501 8.705 67.011 8.445C67.531 8.185 67.896 8.055 68.106 8.055C68.336 8.055 68.451 8.195 68.451 8.475C68.451 8.725 68.226 8.98 67.776 9.24C66.156 10.14 64.746 10.59 63.546 10.59ZM74.7716 10.785C73.0316 10.785 72.1616 10.56 72.1616 10.11C72.1616 9.84 72.2766 9.69 72.5066 9.66C72.5766 9.65 72.6916 9.645 72.8516 9.645L74.5166 9.66C75.1766 9.66 75.7666 9.575 76.2866 9.405C76.8166 9.235 77.0816 8.99 77.0816 8.67C77.0816 8.24 76.6966 7.915 75.9266 7.695C75.1566 7.475 74.3216 7.29 73.4216 7.14C72.3416 6.95 71.5666 6.75 71.0966 6.54C70.2366 6.17 69.8066 5.545 69.8066 4.665C69.8066 3.715 70.4016 2.845 71.5916 2.055C72.7816 1.265 74.1716 0.869999 75.7616 0.869999C76.9516 0.869999 77.9366 1.165 78.7166 1.755C79.0466 2.005 79.2116 2.27 79.2116 2.55C79.2116 2.87 79.0716 3.03 78.7916 3.03C78.5716 3.03 78.3266 2.92 78.0566 2.7C77.5566 2.31 76.7666 2.115 75.6866 2.115C74.3766 2.115 73.2916 2.405 72.4316 2.985C71.5716 3.565 71.1416 4.105 71.1416 4.605C71.1416 5.265 72.0416 5.725 73.8416 5.985C75.5816 6.245 76.7666 6.59 77.3966 7.02C78.0266 7.44 78.3416 8.005 78.3416 8.715C78.3416 9.375 77.9916 9.885 77.2916 10.245C76.6016 10.605 75.7616 10.785 74.7716 10.785ZM82.2745 10.065C81.9345 10.065 81.6445 9.975 81.4045 9.795C81.1645 9.615 81.0445 9.345 81.0445 8.985C81.0445 8.645 81.1395 8.36 81.3295 8.13C81.5295 7.89 81.8145 7.77 82.1845 7.77C82.5745 7.77 82.8695 7.9 83.0695 8.16C83.2795 8.41 83.3845 8.675 83.3845 8.955C83.3845 9.225 83.2845 9.48 83.0845 9.72C82.8845 9.95 82.6145 10.065 82.2745 10.065ZM97.0359 11.025C96.6359 11.025 96.3709 10.795 96.2409 10.335C96.1209 9.875 96.0159 9.165 95.9259 8.205C94.2559 8.345 93.1709 8.425 92.6709 8.445C92.1709 8.455 91.7009 8.46 91.2609 8.46C90.4309 8.46 90.0159 8.025 90.0159 7.155C90.0159 6.895 90.1059 6.525 90.2859 6.045C91.0359 3.975 91.5859 2.515 91.9359 1.665C92.1459 1.105 92.4559 0.824999 92.8659 0.824999C93.4159 0.824999 93.6909 1.125 93.6909 1.725C93.6909 2.095 93.4259 3.025 92.8959 4.515L92.1009 6.615C92.5909 6.595 93.8359 6.51 95.8359 6.36C95.8359 3.87 95.9109 2.4 96.0609 1.95C96.2109 1.49 96.4859 1.26 96.8859 1.26C97.4359 1.26 97.7209 1.775 97.7409 2.805L97.8609 6.225C98.1009 6.255 98.3609 6.315 98.6409 6.405C98.9209 6.485 99.0609 6.71 99.0609 7.08C99.0609 7.41 98.9359 7.635 98.6859 7.755C98.4359 7.865 98.1809 7.935 97.9209 7.965L97.9359 8.985C97.9359 9.615 97.9059 10.115 97.8459 10.485C97.7859 10.845 97.5159 11.025 97.0359 11.025ZM105.035 11.325C104.565 11.325 104.325 11.09 104.315 10.62C104.315 10.33 104.52 9.64 104.93 8.55C105.43 7.27 105.97 6.05 106.55 4.89C107.13 3.72 107.545 2.84 107.795 2.25C106.195 2.28 104.595 2.435 102.995 2.715C102.095 2.855 101.535 2.925 101.315 2.925C100.865 2.915 100.64 2.685 100.64 2.235C100.64 1.995 100.73 1.81 100.91 1.68C101.1 1.55 101.61 1.38 102.44 1.17C103.22 0.979999 104.04 0.834999 104.9 0.734999C105.77 0.625 106.825 0.57 108.065 0.57C108.715 0.57 109.19 0.69 109.49 0.929999C109.8 1.17 109.955 1.495 109.955 1.905C109.955 2.195 109.835 2.59 109.595 3.09C108.635 5.02 107.89 6.54 107.36 7.65C106.84 8.75 106.425 9.64 106.115 10.32C105.815 10.99 105.455 11.325 105.035 11.325ZM121.052 10.815C120.742 10.815 120.542 10.545 120.452 10.005C120.372 9.465 120.227 6.98 120.017 2.55C118.487 2.68 117.427 2.75 116.837 2.76C116.217 2.76 115.907 2.585 115.907 2.235C115.907 1.935 116.197 1.74 116.777 1.65C118.097 1.46 119.717 1.325 121.637 1.245C122.707 1.185 123.797 1.155 124.907 1.155C125.557 1.155 125.882 1.355 125.882 1.755C125.882 2.105 125.677 2.285 125.267 2.295C125.117 2.295 123.827 2.355 121.397 2.475C121.557 7.025 121.637 9.525 121.637 9.975C121.637 10.535 121.442 10.815 121.052 10.815ZM128.049 1.35C128.359 1.35 128.539 1.615 128.589 2.145C128.659 2.895 128.694 4.105 128.694 5.775C128.694 6.675 128.679 7.63 128.649 8.64C128.629 9.65 128.579 10.325 128.499 10.665C128.419 10.995 128.239 11.16 127.959 11.16C127.669 11.16 127.479 11.03 127.389 10.77C127.309 10.51 127.269 9.125 127.269 6.615C127.269 6.385 127.274 5.66 127.284 4.44C127.304 3.22 127.354 2.4 127.434 1.98C127.514 1.56 127.719 1.35 128.049 1.35ZM132.137 11.07C131.807 11.07 131.597 10.8 131.507 10.26C131.407 9.65 131.302 8.595 131.192 7.095C131.082 5.815 131.007 4.26 130.967 2.43C130.967 1.64 132.377 1.245 135.197 1.245C136.147 1.245 137.042 1.44 137.882 1.83C138.722 2.21 139.142 2.825 139.142 3.675C139.142 4.745 138.582 5.575 137.462 6.165C136.352 6.745 134.742 7.215 132.632 7.575C132.662 8.255 132.677 8.955 132.677 9.675V10.23C132.667 10.79 132.487 11.07 132.137 11.07ZM132.527 6.375C134.597 6.045 136.012 5.67 136.772 5.25C137.532 4.83 137.912 4.34 137.912 3.78C137.912 2.89 136.902 2.445 134.882 2.445C133.972 2.455 133.107 2.57 132.287 2.79L132.527 6.375ZM145.785 10.785C144.045 10.785 143.175 10.56 143.175 10.11C143.175 9.84 143.29 9.69 143.52 9.66C143.59 9.65 143.705 9.645 143.865 9.645L145.53 9.66C146.19 9.66 146.78 9.575 147.3 9.405C147.83 9.235 148.095 8.99 148.095 8.67C148.095 8.24 147.71 7.915 146.94 7.695C146.17 7.475 145.335 7.29 144.435 7.14C143.355 6.95 142.58 6.75 142.11 6.54C141.25 6.17 140.82 5.545 140.82 4.665C140.82 3.715 141.415 2.845 142.605 2.055C143.795 1.265 145.185 0.869999 146.775 0.869999C147.965 0.869999 148.95 1.165 149.73 1.755C150.06 2.005 150.225 2.27 150.225 2.55C150.225 2.87 150.085 3.03 149.805 3.03C149.585 3.03 149.34 2.92 149.07 2.7C148.57 2.31 147.78 2.115 146.7 2.115C145.39 2.115 144.305 2.405 143.445 2.985C142.585 3.565 142.155 4.105 142.155 4.605C142.155 5.265 143.055 5.725 144.855 5.985C146.595 6.245 147.78 6.59 148.41 7.02C149.04 7.44 149.355 8.005 149.355 8.715C149.355 9.375 149.005 9.885 148.305 10.245C147.615 10.605 146.775 10.785 145.785 10.785ZM153.288 10.065C152.948 10.065 152.658 9.975 152.418 9.795C152.178 9.615 152.058 9.345 152.058 8.985C152.058 8.645 152.153 8.36 152.343 8.13C152.543 7.89 152.828 7.77 153.198 7.77C153.588 7.77 153.883 7.9 154.083 8.16C154.293 8.41 154.398 8.675 154.398 8.955C154.398 9.225 154.298 9.48 154.098 9.72C153.898 9.95 153.628 10.065 153.288 10.065Z" fill="black"/>
</svg>
