<?xml version="1.0" encoding="UTF-8"?>
<svg width="21px" viewBox="0 0 20 21" version="1.1" xmlns="http://www.w3.org/2000/svg" xmlns:xlink="http://www.w3.org/1999/xlink">
    <g id="lander" stroke="none" stroke-width="1" fill="none" fill-rule="evenodd">
        <g id="1340" transform="translate(-282.000000, -300.000000)" fill="#FFFFFF">
            <g id="Idea" transform="translate(282.000000, 300.000000)">
                <path d="M9.61002288,2.55171625 C9.96831288,2.55171625 10.2587643,2.26126482 10.2587643,1.90297483 L10.2587643,1.03798627 C10.2587643,0.679696278 9.96831288,0.389244851 9.61002288,0.389244851 C9.25173289,0.389244851 8.96128146,0.679696278 8.96128146,1.03798627 L8.96128146,1.90297483 C8.96128146,2.26126482 9.25173289,2.55171625 9.61002288,2.55171625 Z" id="Shape"></path>
                <path d="M18.9086499,8.39038902 L18.0436613,8.39038902 C17.6853713,8.39038902 17.3949199,8.68084044 17.3949199,9.03913043 C17.3949199,9.39742043 17.6853713,9.68787185 18.0436613,9.68787185 L18.9086499,9.68787185 C19.2669399,9.68787185 19.5573913,9.39742043 19.5573913,9.03913043 C19.5573913,8.68084044 19.2669399,8.39038902 18.9086499,8.39038902 Z" id="Shape"></path>
                <path d="M2.25762014,9.03913043 C2.25762014,8.68084044 1.96716871,8.39038902 1.60887872,8.39038902 L0.74389016,8.39038902 C0.385600168,8.39038902 0.0951487414,8.68084044 0.0951487414,9.03913043 C0.0951487414,9.39742043 0.385600168,9.68787185 0.74389016,9.68787185 L1.60887872,9.68787185 C1.96716871,9.68787185 2.25762014,9.39742043 2.25762014,9.03913043 Z" id="Shape"></path>
                <path d="M15.6346682,4.7401373 C15.8066671,4.73998588 15.9715662,4.67153721 16.0931121,4.54983982 L16.707254,3.94002288 C16.9454363,3.68441033 16.9384082,3.28608312 16.6913571,3.03903195 C16.4443059,2.79198077 16.0459787,2.78495275 15.7903661,3.02313501 L15.1762243,3.63295195 C14.9909261,3.81848059 14.9355341,4.0973142 15.0358479,4.33958144 C15.1361617,4.58184867 15.3724541,4.73990666 15.6346682,4.7401373 Z" id="Shape"></path>
                <path d="M4.04382151,3.63295195 L3.42967963,3.02313501 C3.17406708,2.78495275 2.77573987,2.79198077 2.5286887,3.03903195 C2.28163752,3.28608312 2.2746095,3.68441033 2.51279176,3.94002288 L3.12693364,4.54983982 C3.38254619,4.78802208 3.7808734,4.78099406 4.02792458,4.53394288 C4.27497576,4.2868917 4.28200377,3.8885645 4.04382151,3.63295195 L4.04382151,3.63295195 Z" id="Shape"></path>
                <path d="M16.9624256,14.0128146 C16.7068131,13.7746324 16.3084859,13.7816604 16.0614347,14.0287116 C15.8143835,14.2757628 15.8073555,14.67409 16.0455378,14.9297025 L16.6596796,15.5395195 C16.9152922,15.7777017 17.3136194,15.7706737 17.5606706,15.5236225 C17.8077218,15.2765713 17.8147498,14.8782441 17.5765675,14.6226316 L16.9624256,14.0128146 Z" id="Shape"></path>
                <path d="M2.25762014,14.0128146 L1.64347826,14.6226316 C1.405296,14.8782441 1.41232402,15.2765713 1.65937519,15.5236225 C1.90642637,15.7706737 2.30475358,15.7777017 2.56036613,15.5395195 L3.17450801,14.9297025 C3.41269027,14.67409 3.40566225,14.2757628 3.15861108,14.0287116 C2.9115599,13.7816604 2.51323269,13.7746324 2.25762014,14.0128146 Z" id="Shape"></path>
                <path d="M15.8811899,10.1203661 C15.8853465,7.14978535 13.7338947,4.61490016 10.8021463,4.1361317 C7.87039801,3.65736324 5.02430524,5.37612561 4.0832281,8.19370281 C3.14215096,11.01128 4.38405588,14.0954428 7.01505721,15.4746453 C6.88016159,15.6834799 6.80810426,15.9266733 6.80745995,16.175286 L6.80745995,17.4727689 C6.80745995,18.9059288 7.96926566,20.0677346 9.40242563,20.0677346 L10.2674142,20.0677346 C11.7005742,20.0677346 12.8623799,18.9059288 12.8623799,17.4727689 L12.8623799,16.175286 C12.8617356,15.9266733 12.7896782,15.6834799 12.6547826,15.4746453 C14.6396464,14.4259753 15.8814231,12.3652254 15.8811899,10.1203661 Z M11.5562471,16.175286 L11.5562471,16.6077803 L9.39377574,16.6077803 C9.03548575,16.6077803 8.74503432,16.8982317 8.74503432,17.2565217 C8.74503432,17.6148117 9.03548575,17.9052632 9.39377574,17.9052632 L11.4783982,17.9052632 C11.2955619,18.422409 10.8072773,18.7687101 10.2587643,18.7702517 L9.39377574,18.7702517 C8.67719576,18.7702517 8.09629291,18.1893489 8.09629291,17.4727689 L8.09629291,16.175286 L11.5562471,16.175286 Z M9.82627002,14.8778032 L9.82627002,14.8778032 C7.19881008,14.8778032 5.06883295,12.7478261 5.06883295,10.1203661 C5.06883295,7.49290619 7.19881008,5.36292906 9.82627002,5.36292906 C12.45373,5.36292906 14.5837071,7.49290619 14.5837071,10.1203661 C14.5837076,11.3828666 14.0818854,12.5935952 13.1887573,13.4859122 C12.2956291,14.3782291 11.084445,14.8789509 9.82194508,14.8778032 L9.82627002,14.8778032 Z" id="Shape"></path>
                <path d="M9.82627002,6.44416476 C9.46798003,6.44416476 9.1775286,6.73461619 9.1775286,7.09290618 C9.1775286,7.45119617 9.46798003,7.7416476 9.82627002,7.7416476 C11.1390128,7.74402792 12.2026082,8.80762339 12.2049886,10.1203661 C12.2049886,10.4786561 12.49544,10.7691076 12.85373,10.7691076 C13.21202,10.7691076 13.5024714,10.4786561 13.5024714,10.1203661 C13.5000882,8.09104416 11.855592,6.44654799 9.82627002,6.44416476 L9.82627002,6.44416476 Z" id="Shape"></path>
            </g>
        </g>
    </g>
</svg>