<svg class="learnSVG" width="47" height="11" viewBox="0 0 47 11" fill="none" xmlns="http://www.w3.org/2000/svg">
<path d="M0.111 4.5362C0.0436667 3.90327 0.0100001 3.2838 0.0100001 2.6778C0.0100001 1.35807 0.212 0.698199 0.616 0.698199C0.750667 0.698199 0.892067 0.765532 1.0402 0.900199C1.14793 0.980999 1.21527 1.11567 1.2422 1.3042C1.2826 1.47927 1.323 1.87653 1.3634 2.496C1.55193 4.8392 1.67313 6.50233 1.727 7.4854C1.75393 8.34727 1.7876 8.81187 1.828 8.8792C1.85493 8.9196 2.02327 8.9398 2.333 8.9398C2.5754 8.9398 2.77067 8.93307 2.9188 8.9196H3.343C3.92207 8.9196 4.48767 8.96 5.0398 9.0408C5.59193 9.1216 5.9286 9.21587 6.0498 9.3236C6.15753 9.43133 6.2114 9.57947 6.2114 9.768C6.2114 9.99693 6.12387 10.2124 5.9488 10.4144C5.80067 10.5625 5.63233 10.6366 5.4438 10.6366C5.26873 10.6366 5.11387 10.6299 4.9792 10.6164C4.54827 10.576 3.75373 10.5289 2.5956 10.475C1.80107 10.4346 1.31627 10.4009 1.1412 10.374C0.966133 10.3336 0.804533 10.2393 0.6564 10.0912C0.521733 9.95653 0.440933 9.80167 0.414 9.6266C0.387067 9.45153 0.3534 8.84553 0.313 7.8086C0.2726 6.69087 0.205267 5.60007 0.111 4.5362ZM10.1531 0.395199C10.4763 0.354799 10.8466 0.334599 11.2641 0.334599C11.5738 0.334599 12.0317 0.348066 12.6377 0.375C13.2437 0.401933 13.6746 0.415399 13.9305 0.415399C14.3749 0.428865 14.6509 0.449066 14.7587 0.475999C14.8664 0.502932 14.9809 0.583732 15.1021 0.718399C15.2502 0.879999 15.3243 1.0416 15.3243 1.2032C15.3243 1.37827 15.2502 1.5466 15.1021 1.7082L14.8395 1.991H10.1127L10.1329 3.1828C10.1598 4.00427 10.1867 4.4352 10.2137 4.4756C10.2541 4.54293 10.4359 4.54967 10.7591 4.4958C10.8264 4.48233 11.0015 4.4756 11.2843 4.4756C11.796 4.4756 12.3683 4.4958 13.0013 4.5362C13.8093 4.59007 14.3143 4.6372 14.5163 4.6776C14.7317 4.70453 14.8933 4.76513 15.0011 4.8594C15.1627 5.00753 15.2435 5.2028 15.2435 5.4452C15.2435 5.66067 15.1762 5.829 15.0415 5.9502C14.8664 6.1118 14.5432 6.1926 14.0719 6.1926C13.7218 6.1926 13.3312 6.16567 12.9003 6.1118C11.8095 5.97713 11.0755 5.9098 10.6985 5.9098C10.5099 5.9098 10.3955 5.93 10.3551 5.9704C10.3012 6.02427 10.2608 6.48887 10.2339 7.3642L10.1935 8.657L11.1227 8.6772C12.6713 8.73107 13.4995 8.76473 13.6073 8.7782C14.2806 8.8186 14.7116 8.859 14.9001 8.8994C15.1021 8.92633 15.2569 8.99367 15.3647 9.1014C15.5128 9.24953 15.5869 9.43133 15.5869 9.6468C15.5869 9.86227 15.5128 10.0441 15.3647 10.1922C15.23 10.3269 14.7519 10.4009 13.9305 10.4144H13.7285C13.0148 10.4144 12.1259 10.3807 11.0621 10.3134C10.0117 10.2326 9.41915 10.1653 9.28448 10.1114C9.16328 10.0575 9.06228 9.97 8.98148 9.8488C8.87375 9.6468 8.73908 7.92307 8.57748 4.6776C8.53708 3.92347 8.51688 3.29727 8.51688 2.799C8.51688 1.85633 8.61788 1.2436 8.81988 0.960799C9.03535 0.664532 9.47975 0.475999 10.1531 0.395199ZM22.4973 4.516C22.2415 3.97733 22.0731 3.708 21.9923 3.708C21.9519 3.708 21.9183 3.7484 21.8913 3.8292C21.8779 3.85613 21.8509 3.91673 21.8105 4.011C21.7836 4.10527 21.7432 4.24667 21.6893 4.4352C21.6355 4.61027 21.5816 4.76513 21.5277 4.8998C21.2853 5.57313 21.1103 6.01753 21.0025 6.233C20.8813 6.50233 20.8207 6.6572 20.8207 6.6976C20.8207 6.80533 20.9083 6.87267 21.0833 6.8996C21.2584 6.92653 21.6287 6.95347 22.1943 6.9804C22.3829 6.99387 22.6455 7.0006 22.9821 7.0006C23.4131 7.0006 23.6285 6.9804 23.6285 6.94C23.6285 6.79187 23.5208 6.5158 23.3053 6.1118C22.8879 5.31727 22.6185 4.78533 22.4973 4.516ZM21.4671 1.0618C21.6018 0.967532 21.7432 0.920399 21.8913 0.920399C22.0529 0.920399 22.2011 0.967532 22.3357 1.0618C22.4569 1.16953 22.8205 1.79573 23.4265 2.9404C24.0325 4.08507 24.3423 4.67087 24.3557 4.6978C25.0156 5.77513 25.5879 7.21607 26.0727 9.0206C26.2343 9.6266 26.3151 10.0441 26.3151 10.273C26.3151 10.4885 26.2478 10.6635 26.1131 10.7982C25.9785 10.9329 25.7967 11.0002 25.5677 11.0002C25.3523 11.0002 25.1637 10.9329 25.0021 10.7982C24.8405 10.6366 24.7059 10.3336 24.5981 9.8892C24.4231 9.21587 24.3019 8.84553 24.2345 8.7782C24.1807 8.71087 23.9181 8.67047 23.4467 8.657C22.1405 8.60313 21.4133 8.56947 21.2651 8.556L19.8915 8.4752L19.5077 9.1822C19.2249 9.69393 19.0229 10.0104 18.9017 10.1316C18.7671 10.2932 18.6055 10.374 18.4169 10.374C18.2957 10.374 18.1947 10.3336 18.1139 10.2528C18.0331 10.172 17.9927 10.0508 17.9927 9.8892C17.9927 9.47173 18.39 8.34727 19.1845 6.5158C19.7367 5.23647 20.0868 4.3746 20.2349 3.9302C20.8275 2.193 21.2382 1.23687 21.4671 1.0618ZM32.2839 2.3748C31.2874 2.2536 30.7824 2.193 30.7689 2.193L30.7285 2.2132C30.7151 2.2132 30.6881 2.21993 30.6477 2.2334C30.6208 2.2334 30.5939 2.24013 30.5669 2.2536C30.3784 2.294 30.2841 2.67107 30.2841 3.3848C30.2841 3.43867 30.2841 3.53967 30.2841 3.6878C30.2976 3.82247 30.3043 3.9302 30.3043 4.011L30.3447 5.0614L31.1123 5.0816H31.3143C31.7453 5.0816 32.2166 5.03447 32.7283 4.9402C33.2535 4.84593 33.6373 4.7382 33.8797 4.617C34.3241 4.38807 34.5463 4.0918 34.5463 3.7282C34.5463 3.55313 34.5194 3.37807 34.4655 3.203C34.3982 2.94713 34.2501 2.7788 34.0211 2.698C33.7922 2.60373 33.2131 2.496 32.2839 2.3748ZM30.4861 0.799199C30.6073 0.758799 30.8767 0.738598 31.2941 0.738598C32.5196 0.738598 33.4757 0.819399 34.1625 0.980999C34.4992 1.04833 34.7349 1.1224 34.8695 1.2032C35.0177 1.284 35.186 1.41867 35.3745 1.6072C35.9536 2.2132 36.2431 2.9404 36.2431 3.7888C36.2431 4.08507 36.196 4.32747 36.1017 4.516C35.994 4.77187 35.792 5.04793 35.4957 5.3442C35.2129 5.64047 34.9369 5.86267 34.6675 6.0108C34.3309 6.1724 34.1625 6.30707 34.1625 6.4148C34.1625 6.4956 34.2972 6.73127 34.5665 7.1218C34.8493 7.5258 35.1658 8.08467 35.5159 8.7984C35.8661 9.51213 36.0411 9.96327 36.0411 10.1518C36.0411 10.3134 35.9603 10.4885 35.7987 10.677C35.6506 10.8655 35.5092 10.9598 35.3745 10.9598C35.2129 10.9598 35.0446 10.9127 34.8695 10.8184C34.7079 10.7107 34.58 10.576 34.4857 10.4144C34.2164 9.9296 33.8663 9.25627 33.4353 8.3944L32.5869 6.7178H31.4355C31.3413 6.7178 31.2268 6.7178 31.0921 6.7178C30.9575 6.70433 30.8699 6.6976 30.8295 6.6976C30.5063 6.6976 30.3178 6.7784 30.2639 6.94C30.2101 7.1016 30.1697 7.61333 30.1427 8.4752C30.1158 9.2428 30.0552 9.78147 29.9609 10.0912C29.8801 10.3875 29.7455 10.5356 29.5569 10.5356H29.4963C29.2943 10.5087 29.1327 10.4077 29.0115 10.2326C28.7557 9.89593 28.6277 8.3338 28.6277 5.5462C28.6277 4.8594 28.6345 4.3342 28.6479 3.9706C28.6614 3.31073 28.6816 2.82593 28.7085 2.5162C28.7355 2.20647 28.7624 1.92367 28.7893 1.6678C28.8297 1.39847 28.8971 1.2234 28.9913 1.1426C29.0856 1.0618 29.1866 1.00793 29.2943 0.980999C29.4021 0.940599 29.5704 0.920399 29.7993 0.920399C30.136 0.893466 30.3649 0.853066 30.4861 0.799199ZM45.6066 0.819399C45.7547 0.684732 45.9029 0.617399 46.051 0.617399C46.2126 0.617399 46.4011 0.725132 46.6166 0.940599L46.9398 1.2436L46.859 2.1526C46.8321 2.48927 46.7445 3.39827 46.5964 4.8796C46.4483 6.34747 46.3607 7.35073 46.3338 7.8894C46.2934 8.72433 46.2328 9.31013 46.152 9.6468C46.0712 9.98347 45.9298 10.2326 45.7278 10.3942C45.5393 10.5693 45.3575 10.6568 45.1824 10.6568C45.0612 10.6568 44.9198 10.6164 44.7582 10.5356C44.4485 10.4144 44.1859 10.0104 43.9704 9.3236C43.8223 8.90613 43.6674 8.58293 43.5058 8.354C43.4519 8.2732 43.2769 7.95673 42.9806 7.4046C42.8594 7.14873 42.4419 6.5562 41.7282 5.627C41.0279 4.6978 40.6441 4.17933 40.5768 4.0716C40.3748 3.7888 40.2469 3.6676 40.193 3.708C40.1257 3.7484 40.092 4.01773 40.092 4.516C40.092 4.98733 40.0381 5.96367 39.9304 7.445C39.8361 8.92633 39.7688 9.75453 39.7284 9.9296C39.688 10.0912 39.5937 10.2528 39.4456 10.4144C39.3109 10.576 39.1897 10.6568 39.082 10.6568C38.9877 10.6568 38.88 10.5962 38.7588 10.475C38.6376 10.3538 38.5501 9.7478 38.4962 8.657C38.4827 8.42807 38.476 7.96347 38.476 7.2632C38.476 6.536 38.4895 5.53947 38.5164 4.2736C38.5568 2.68453 38.6174 1.7284 38.6982 1.4052C38.779 1.082 38.9945 0.920399 39.3446 0.920399C39.9371 0.920399 40.6711 1.56007 41.5464 2.8394C41.6407 2.98753 42.0985 3.5666 42.92 4.5766C43.7415 5.57313 44.2061 6.1724 44.3138 6.3744C44.4619 6.64373 44.5629 6.7784 44.6168 6.7784C44.6841 6.7784 44.8188 5.7482 45.0208 3.6878C45.1555 2.38153 45.243 1.61393 45.2834 1.385C45.3373 1.1426 45.445 0.954065 45.6066 0.819399Z" fill="#141414"/>
</svg>
