<?xml version="1.0" encoding="UTF-8"?>
<svg width="14px" height="17px" viewBox="0 0 14 17" version="1.1" xmlns="http://www.w3.org/2000/svg" xmlns:xlink="http://www.w3.org/1999/xlink">
    <title>Link Copy 10</title>
    <g id="swiped" stroke="none" stroke-width="1" fill="none" fill-rule="evenodd">
        <g id="Artboard" transform="translate(-39.000000, -835.000000)" fill="#000000">
            <g id="Group-2-Copy-12" transform="translate(30.000000, 672.000000)">
                <g id="Link-Copy-10" transform="translate(9.106873, 163.433702)">
                    <path d="M12.809592,10.249384 L11.0877908,8.52758276 C10.8460763,8.30235082 10.4694067,8.30899671 10.2357881,8.54261535 C10.0021694,8.77623399 9.99552354,9.15290354 10.2207555,9.39461806 L11.9425567,11.1164193 C12.4831789,11.6570414 12.6943158,12.4450154 12.4964344,13.183519 C12.298553,13.9220226 11.721716,14.4988595 10.9832124,14.696741 C10.2447088,14.8946224 9.45673488,14.6834854 8.91611273,14.1428633 L5.66882013,10.8955707 C5.09826652,10.3258444 4.89657338,9.4836824 5.14713708,8.71730306 C5.39770079,7.95092372 6.05794037,7.3905661 6.85485899,7.26792769 C7.07403016,7.23432148 7.25862397,7.08634163 7.3391057,6.87973071 C7.41958743,6.67311979 7.38373,6.43926694 7.24504054,6.26626227 C7.10635109,6.09325761 6.88589984,6.00738466 6.66672868,6.04099094 C5.40559407,6.2297187 4.35939851,7.11491754 3.96447554,8.32740034 C3.56955258,9.53988313 3.89372252,10.8714296 4.80178482,11.7666958 L8.04907742,15.0139884 C8.89946144,15.8643725 10.1389232,16.1964853 11.3005694,15.8852231 C12.4622156,15.573961 13.3695646,14.666612 13.6808268,13.5049658 C13.9920889,12.3433196 13.6599761,11.1038578 12.809592,10.2534738 L12.809592,10.249384 Z" id="Shape"></path>
                    <path d="M1.85304683,4.8835806 C1.31242468,4.34295846 1.1012877,3.55498451 1.29916914,2.81648092 C1.49705058,2.07797733 2.07388754,1.50114037 2.81239113,1.30325893 C3.55089472,1.10537749 4.33886867,1.31651447 4.87949082,1.85713662 L8.12678342,5.10442922 C8.69733703,5.6741555 8.89903016,6.51631751 8.64846646,7.28269685 C8.39790275,8.04907618 7.73766317,8.60943381 6.94074456,8.73207221 C6.60193538,8.75804765 6.34833349,9.05376397 6.37430887,9.39257316 C6.40028424,9.73138234 6.69600052,9.98498428 7.03480971,9.95900897 L7.12887486,9.95900897 C8.39000947,9.77028121 9.43620503,8.88508236 9.831128,7.67259957 C10.226051,6.46011677 9.90188102,5.12857031 8.99381872,4.23330413 L5.74652612,0.986011525 C4.89614209,0.135627497 3.65668037,-0.196485271 2.49503418,0.114776886 C1.333388,0.426039043 0.426039043,1.333388 0.114776886,2.49503418 C-0.196485271,3.65668037 0.135627497,4.89614209 0.986011525,5.74652612 L2.70781277,7.46832736 C2.86074682,7.6324532 3.09107144,7.70001325 3.30843013,7.64450365 C3.52578882,7.58899406 3.69551477,7.41926811 3.75102436,7.20190942 C3.80653396,6.98455073 3.73897391,6.75422611 3.57484807,6.60129206 L1.85304683,4.8835806 Z" id="Shape"></path>
                </g>
            </g>
        </g>
    </g>
</svg>