<?xml version="1.0" encoding="UTF-8"?>
<svg width="17px" height="18px" viewBox="0 0 17 18" version="1.1" xmlns="http://www.w3.org/2000/svg" xmlns:xlink="http://www.w3.org/1999/xlink">
    <!-- Generator: Sketch 54.1 (76490) - https://sketchapp.com -->
    <title>Link</title>
    <desc>Created with Sketch.</desc>
    <g id="lander" stroke="none" stroke-width="1" fill="none" fill-rule="evenodd">
        <g id="bigger" transform="translate(-282.000000, -302.000000)" fill="#FFFFFF">
            <g id="1" transform="translate(272.000000, 95.000000)">
                <g id="Link" transform="translate(10.246291, 207.000000)">
                    <path d="M15.1534037,11.4485294 L13.1307078,9.59117647 C12.8467523,9.34821277 12.4042575,9.35538187 12.1298127,9.60739253 C11.8553679,9.85940319 11.8475606,10.2657267 12.1121531,10.5264706 L14.134849,12.3838235 C14.769948,12.9670071 15.0179824,13.8170156 14.78552,14.6136591 C14.5530577,15.4103026 13.8754151,16.0325521 13.0078538,16.2460121 C12.1402924,16.459472 11.2146155,16.2317129 10.5795165,15.6485294 L6.76474079,12.1455882 C6.09447965,11.5310093 5.85753947,10.6225467 6.15189063,9.79583282 C6.44624179,8.96911898 7.22186204,8.36464627 8.15804678,8.23235294 C8.41551938,8.19610103 8.63237202,8.03647121 8.7269184,7.8135945 C8.82146478,7.59071779 8.77934105,7.33845448 8.61641481,7.15182973 C8.45348857,6.96520498 8.19451221,6.87257153 7.93703962,6.90882353 C6.45551447,7.1124092 5.2264902,8.06729681 4.76255217,9.37523435 C4.29861414,10.6831719 4.67943465,12.1195466 5.74618607,13.0852941 L9.56096177,16.5882353 C10.5599553,17.5055673 12.0160201,17.8638262 13.3806707,17.5280595 C14.7453213,17.1922927 15.8112348,16.2135111 16.1768918,14.9604123 C16.5425488,13.7073136 16.1523973,12.3702731 15.1534037,11.4529412 L15.1534037,11.4485294 Z" id="Shape"></path>
                    <path d="M2.28213912,5.66029412 C1.64704013,5.07711058 1.39900574,4.22710206 1.63146811,3.43045853 C1.86393047,2.63381501 2.54157302,2.01156558 3.40913437,1.79810559 C4.27669571,1.5846456 5.20237265,1.8124047 5.83747164,2.39558824 L9.65224734,5.89852941 C10.3225085,6.51310836 10.5594487,7.42157098 10.2650975,8.24828482 C9.97074634,9.07499866 9.19512609,9.67947138 8.25894135,9.81176471 C7.86092331,9.8397851 7.56300304,10.1587822 7.59351776,10.5242647 C7.62403247,10.8897472 7.97142688,11.1633144 8.36944493,11.1352941 L8.47994851,11.1352941 C9.96147366,10.9317085 11.1904979,9.97682084 11.654436,8.66888329 C12.118374,7.36094575 11.7375535,5.92457105 10.6708021,4.95882353 L6.85602636,1.45588235 C5.85703282,0.538550412 4.40096801,0.180291507 3.03631746,0.516058301 C1.67166691,0.851825096 0.605753495,1.83060662 0.240096482,3.08370536 C-0.125560532,4.3368041 0.264590857,5.67384453 1.2635844,6.59117647 L3.28628033,8.44852941 C3.46594049,8.62557633 3.73651567,8.69845516 3.99185904,8.63857548 C4.24720241,8.5786958 4.44658895,8.39560789 4.51179916,8.16113727 C4.57700938,7.92666665 4.49764282,7.67820934 4.30483505,7.51323529 L2.28213912,5.66029412 Z" id="Shape"></path>
                </g>
            </g>
        </g>
    </g>
</svg>