<?xml version="1.0" encoding="UTF-8"?>
<svg width="197px" height="38px" viewBox="0 0 197 38" version="1.1" xmlns="http://www.w3.org/2000/svg" xmlns:xlink="http://www.w3.org/1999/xlink">
    <g id="lander" stroke="none" stroke-width="1" fill="none" fill-rule="evenodd">
        <g id="logo">
            <g>
                <circle id="Oval" fill="#4742DE" cx="19" cy="19" r="19"></circle>
                <g id="Idea" transform="translate(7.600000, 6.650000)" fill="#FFFFFF">
                    <path d="M11.0133913,2.92434783 C11.424003,2.92434783 11.7568696,2.59148127 11.7568696,2.18086957 L11.7568696,1.18956522 C11.7568696,0.778953512 11.424003,0.446086957 11.0133913,0.446086957 C10.6027796,0.446086957 10.269913,0.778953512 10.269913,1.18956522 L10.269913,2.18086957 C10.269913,2.59148127 10.6027796,2.92434783 11.0133913,2.92434783 Z" id="Shape"></path>
                    <path d="M21.669913,9.61565217 L20.6786087,9.61565217 C20.267997,9.61565217 19.9351304,9.94851873 19.9351304,10.3591304 C19.9351304,10.7697421 20.267997,11.1026087 20.6786087,11.1026087 L21.669913,11.1026087 C22.0805247,11.1026087 22.4133913,10.7697421 22.4133913,10.3591304 C22.4133913,9.94851873 22.0805247,9.61565217 21.669913,9.61565217 Z" id="Shape"></path>
                    <path d="M2.58730435,10.3591304 C2.58730435,9.94851873 2.25443779,9.61565217 1.84382609,9.61565217 L0.852521739,9.61565217 C0.441910034,9.61565217 0.109043478,9.94851873 0.109043478,10.3591304 C0.109043478,10.7697421 0.441910034,11.1026087 0.852521739,11.1026087 L1.84382609,11.1026087 C2.25443779,11.1026087 2.58730435,10.7697421 2.58730435,10.3591304 Z" id="Shape"></path>
                    <path d="M17.9178261,5.43234783 C18.1149423,5.4321743 18.3039219,5.35372994 18.4432174,5.21426087 L19.1470435,4.5153913 C19.4200079,4.2224512 19.4119536,3.76595558 19.1288251,3.48282709 C18.8456966,3.19969859 18.389201,3.19164426 18.0962609,3.4646087 L17.3924348,4.16347826 C17.1800773,4.37609998 17.1165962,4.69565215 17.231559,4.97329809 C17.3465218,5.25094404 17.6173204,5.43208351 17.9178261,5.43234783 Z" id="Shape"></path>
                    <path d="M4.63434783,4.16347826 L3.93052174,3.4646087 C3.63758163,3.19164426 3.18108601,3.19969859 2.89795752,3.48282709 C2.61482903,3.76595558 2.60677469,4.2224512 2.87973913,4.5153913 L3.58356522,5.21426087 C3.87650532,5.48722531 4.33300094,5.47917097 4.61612944,5.19604248 C4.89925793,4.91291399 4.90731226,4.45641837 4.63434783,4.16347826 L4.63434783,4.16347826 Z" id="Shape"></path>
                    <path d="M19.4394783,16.0591304 C19.1465382,15.786166 18.6900425,15.7942203 18.406914,16.0773488 C18.1237855,16.3604773 18.1157312,16.8169729 18.3886957,17.109913 L19.0925217,17.8087826 C19.3854618,18.081747 19.8419575,18.0736927 20.125086,17.7905642 C20.4082145,17.5074357 20.4162688,17.0509401 20.1433043,16.758 L19.4394783,16.0591304 Z" id="Shape"></path>
                    <path d="M2.58730435,16.0591304 L1.88347826,16.758 C1.61051383,17.0509401 1.61856816,17.5074357 1.90169665,17.7905642 C2.18482515,18.0736927 2.64132077,18.081747 2.93426087,17.8087826 L3.63808696,17.109913 C3.91105139,16.8169729 3.90299706,16.3604773 3.61986857,16.0773488 C3.33674007,15.7942203 2.88024445,15.786166 2.58730435,16.0591304 Z" id="Shape"></path>
                    <path d="M18.2003478,11.5982609 C18.2051114,8.19388099 15.7394793,5.28882208 12.3796026,4.74013823 C9.01972597,4.19145438 5.75801331,6.16121062 4.67950903,9.39024354 C3.60100475,12.6192765 5.02426721,16.153825 8.03947826,17.7344348 C7.8848836,17.9737658 7.80230361,18.2524732 7.80156522,18.5373913 L7.80156522,20.0243478 C7.80156522,21.6667946 9.13303144,22.9982609 10.7754783,22.9982609 L11.7667826,22.9982609 C13.4092294,22.9982609 14.7406957,21.6667946 14.7406957,20.0243478 L14.7406957,18.5373913 C14.7399573,18.2524732 14.6573773,17.9737658 14.5027826,17.7344348 C16.7774996,16.5326257 18.200615,14.1709408 18.2003478,11.5982609 Z M13.2438261,18.5373913 L13.2438261,19.0330435 L10.7655652,19.0330435 C10.3549535,19.0330435 10.022087,19.36591 10.022087,19.7765217 C10.022087,20.1871334 10.3549535,20.52 10.7655652,20.52 L13.1546087,20.52 C12.9450726,21.1126655 12.3854829,21.5095377 11.7568696,21.5113043 L10.7655652,21.5113043 C9.94434181,21.5113043 9.2786087,20.8455712 9.2786087,20.0243478 L9.2786087,18.5373913 L13.2438261,18.5373913 Z M11.2612174,17.0504348 L11.2612174,17.0504348 C8.25006489,17.0504348 5.80904348,14.6094134 5.80904348,11.5982609 C5.80904348,8.58710836 8.25006489,6.14608696 11.2612174,6.14608696 C14.2723699,6.14608696 16.7133913,8.58710836 16.7133913,11.5982609 C16.7133919,13.0451265 16.1382877,14.4326599 15.1147345,15.4552835 C14.0911813,16.477907 12.7031259,17.0517501 11.2562609,17.0504348 L11.2612174,17.0504348 Z" id="Shape"></path>
                    <path d="M11.2612174,7.38521739 C10.8506057,7.38521739 10.5177391,7.71808395 10.5177391,8.12869565 C10.5177391,8.53930736 10.8506057,8.87217391 11.2612174,8.87217391 C12.7656623,8.87490183 13.9845764,10.093816 13.9873043,11.5982609 C13.9873043,12.0088726 14.3201709,12.3417391 14.7307826,12.3417391 C15.1413943,12.3417391 15.4742609,12.0088726 15.4742609,11.5982609 C15.4715296,9.27259347 13.5868848,7.38794865 11.2612174,7.38521739 L11.2612174,7.38521739 Z" id="Shape"></path>
                </g>
            </g>
            <path d="M136.5105,25 L128.9625,25 L128.9625,12.947 L136.5105,12.947 L136.5105,15.157 L131.3085,15.157 L131.3085,17.911 L136.0175,17.911 L136.0175,20.002 L131.3085,20.002 L131.3085,22.79 L136.5105,22.79 L136.5105,25 Z M136.8835,25 L139.8585,20.801 L136.8835,16.636 L139.5695,16.636 C139.671501,16.7833341 139.951998,17.1941633 140.411,17.8685 C140.870002,18.5428367 141.144833,18.9593325 141.2355,19.118 L142.8845,16.636 L145.4515,16.636 L142.5275,20.733 L145.5535,25 L142.9015,25 L141.1505,22.433 C141.093833,22.5236671 140.932335,22.7673313 140.666,23.164 C140.399665,23.5606687 140.150335,23.9318316 139.918,24.2775 C139.685666,24.6231684 139.524167,24.8639993 139.4335,25 L136.8835,25 Z M145.5695,22.722 C145.5695,22.0079964 145.801831,21.4356688 146.2665,21.005 C146.731169,20.5743312 147.33183,20.3023339 148.0685,20.189 L150.1255,19.883 C150.544835,19.826333 150.7545,19.6280017 150.7545,19.288 C150.7545,18.9706651 150.632668,18.710001 150.389,18.506 C150.145332,18.301999 149.796836,18.2 149.3435,18.2 C148.867498,18.2 148.490668,18.330332 148.213,18.591 C147.935332,18.851668 147.7795,19.1746647 147.7455,19.56 L145.7395,19.135 C145.818834,18.409663 146.17583,17.7693361 146.8105,17.214 C147.44517,16.6586639 148.283828,16.381 149.3265,16.381 C150.573173,16.381 151.491164,16.678497 152.0805,17.2735 C152.669836,17.868503 152.9645,18.630662 152.9645,19.56 L152.9645,23.674 C152.9645,24.1726692 152.9985,24.6146647 153.0665,25 L150.9925,25 C150.935833,24.7506654 150.9075,24.4163354 150.9075,23.997 C150.374831,24.8243375 149.553172,25.238 148.4425,25.238 C147.581162,25.238 146.887003,24.9886692 146.36,24.49 C145.832997,23.9913308 145.5695,23.4020034 145.5695,22.722 Z M148.9185,23.555 C149.451169,23.555 149.890332,23.4048348 150.236,23.1045 C150.581668,22.8041652 150.7545,22.3083368 150.7545,21.617 L150.7545,21.243 L148.8675,21.532 C148.176163,21.6340005 147.8305,21.9853303 147.8305,22.586 C147.8305,22.8580014 147.926832,23.0874991 148.1195,23.2745 C148.312168,23.4615009 148.578498,23.555 148.9185,23.555 Z M156.7035,25 L154.4425,25 L154.4425,16.636 L156.6015,16.636 L156.6015,17.656 C156.816834,17.2706647 157.156831,16.9646678 157.6215,16.738 C158.086169,16.5113322 158.562164,16.398 159.0495,16.398 C160.262173,16.398 161.089498,16.862662 161.5315,17.792 C162.13217,16.862662 163.016161,16.398 164.1835,16.398 C165.033504,16.398 165.75033,16.6643307 166.334,17.197 C166.91767,17.7296693 167.2095,18.5229947 167.2095,19.577 L167.2095,25 L165.0165,25 L165.0165,20.036 C165.0165,19.5599976 164.894668,19.1775014 164.651,18.8885 C164.407332,18.5994986 164.036169,18.455 163.5375,18.455 C163.072831,18.455 162.698835,18.6136651 162.4155,18.931 C162.132165,19.2483349 161.9905,19.639331 161.9905,20.104 L161.9905,25 L159.7465,25 L159.7465,20.036 C159.7465,19.5599976 159.621835,19.1775014 159.3725,18.8885 C159.123165,18.5994986 158.754836,18.455 158.2675,18.455 C157.791498,18.455 157.411835,18.6108318 157.1285,18.9225 C156.845165,19.2341682 156.7035,19.6279976 156.7035,20.104 L156.7035,25 Z M170.9655,28.23 L168.7045,28.23 L168.7045,16.636 L170.8975,16.636 L170.8975,17.656 C171.101501,17.3159983 171.430164,17.0298345 171.8835,16.7975 C172.336836,16.5651655 172.86383,16.449 173.4645,16.449 C174.654506,16.449 175.595163,16.8541626 176.2865,17.6645 C176.977837,18.4748374 177.3235,19.5203269 177.3235,20.801 C177.3235,22.0816731 176.958004,23.1356625 176.227,23.963 C175.495996,24.7903375 174.546839,25.204 173.3795,25.204 C172.268828,25.204 171.464169,24.8640034 170.9655,24.184 L170.9655,28.23 Z M174.5015,22.552 C174.898169,22.1213312 175.0965,21.543337 175.0965,20.818 C175.0965,20.092663 174.901002,19.5203354 174.51,19.101 C174.118998,18.6816646 173.62317,18.472 173.0225,18.472 C172.42183,18.472 171.923169,18.6844979 171.5265,19.1095 C171.129831,19.5345021 170.9315,20.1039964 170.9315,20.818 C170.9315,21.5320036 171.129831,22.1043312 171.5265,22.535 C171.923169,22.9656688 172.42183,23.181 173.0225,23.181 C173.62317,23.181 174.116165,22.9713354 174.5015,22.552 Z M180.5695,25 L178.3085,25 L178.3085,12.692 L180.5695,12.692 L180.5695,25 Z M183.8325,19.866 L187.5725,19.866 C187.549833,19.401331 187.382668,19.0103349 187.071,18.693 C186.759332,18.3756651 186.30317,18.217 185.7025,18.217 C185.158497,18.217 184.716502,18.3869983 184.3765,18.727 C184.036498,19.0670017 183.855167,19.4466646 183.8325,19.866 Z M187.7935,22.042 L189.6805,22.603 C189.453832,23.3736705 189.009003,24.0083308 188.346,24.507 C187.682997,25.0056692 186.858505,25.255 185.8725,25.255 C184.671161,25.255 183.651171,24.8498374 182.8125,24.0395 C181.973829,23.2291626 181.5545,22.1440068 181.5545,20.784 C181.5545,19.4919935 181.962496,18.4351708 182.7785,17.6135 C183.594504,16.7918292 184.557828,16.381 185.6685,16.381 C186.960506,16.381 187.971996,16.7663295 188.703,17.537 C189.434004,18.3076705 189.7995,19.3673266 189.7995,20.716 C189.7995,20.8066671 189.796667,20.9086661 189.791,21.022 C189.785333,21.1353339 189.7825,21.2259997 189.7825,21.294 L189.7655,21.413 L183.7815,21.413 C183.804167,21.9570027 184.019498,22.4103315 184.4275,22.773 C184.835502,23.1356685 185.32283,23.317 185.8895,23.317 C186.852838,23.317 187.487498,22.8920042 187.7935,22.042 Z M190.0705,22.671 L192.0085,22.246 C192.031167,22.6086685 192.175665,22.9118321 192.442,23.1555 C192.708335,23.3991679 193.073831,23.521 193.5385,23.521 C193.889835,23.521 194.161832,23.4416675 194.3545,23.283 C194.547168,23.1243325 194.6435,22.9260012 194.6435,22.688 C194.6435,22.2686646 194.34317,21.9966673 193.7425,21.872 L192.6375,21.617 C191.855496,21.4469991 191.269002,21.1410022 190.878,20.699 C190.486998,20.2569978 190.2915,19.7300031 190.2915,19.118 C190.2915,18.3586629 190.588997,17.7126693 191.184,17.18 C191.779003,16.6473307 192.524162,16.381 193.4195,16.381 C193.986169,16.381 194.484831,16.4631658 194.9155,16.6275 C195.346169,16.7918342 195.680499,17.0014987 195.9185,17.2565 C196.156501,17.5115013 196.337833,17.769332 196.4625,18.03 C196.587167,18.290668 196.6665,18.5456654 196.7005,18.795 L194.8135,19.22 C194.768166,18.9253319 194.635001,18.6646678 194.414,18.438 C194.192999,18.2113322 193.867169,18.098 193.4365,18.098 C193.141832,18.098 192.889668,18.1773325 192.68,18.336 C192.470332,18.4946675 192.3655,18.6929988 192.3655,18.931 C192.3655,19.339002 192.620497,19.5883329 193.1305,19.679 L194.3205,19.934 C195.125171,20.1040008 195.739998,20.4156644 196.165,20.869 C196.590002,21.3223356 196.8025,21.8663302 196.8025,22.501 C196.8025,23.2490037 196.519169,23.8949973 195.9525,24.439 C195.38583,24.9830027 194.586838,25.255 193.5555,25.255 C192.966164,25.255 192.439169,25.1671675 191.9745,24.9915 C191.509831,24.8158325 191.150001,24.5891681 190.895,24.3115 C190.639999,24.0338319 190.447334,23.7561681 190.317,23.4785 C190.186666,23.2008319 190.1045,22.931668 190.0705,22.671 Z" id="Examples" fill="#000000" fill-rule="nonzero"></path>
            <path d="M61.673,25 L59.361,25 L59.361,16.551 L55.893,25 L53.938,25 L50.47,16.619 L50.47,25 L48.226,25 L48.226,12.947 L51.32,12.947 L54.941,21.651 L58.477,12.947 L61.673,12.947 L61.673,25 Z M62.913,22.722 C62.913,22.0079964 63.145331,21.4356688 63.61,21.005 C64.074669,20.5743312 64.6753297,20.3023339 65.412,20.189 L67.469,19.883 C67.8883355,19.826333 68.098,19.6280017 68.098,19.288 C68.098,18.9706651 67.9761679,18.710001 67.7325,18.506 C67.4888322,18.301999 67.1403356,18.2 66.687,18.2 C66.2109977,18.2 65.8341681,18.330332 65.5565,18.591 C65.278832,18.851668 65.1230002,19.1746647 65.089,19.56 L63.083,19.135 C63.1623338,18.409663 63.5193302,17.7693361 64.154,17.214 C64.7886699,16.6586639 65.6273282,16.381 66.67,16.381 C67.9166729,16.381 68.8346638,16.678497 69.424,17.2735 C70.0133363,17.868503 70.308,18.630662 70.308,19.56 L70.308,23.674 C70.308,24.1726692 70.3419997,24.6146647 70.41,25 L68.336,25 C68.2793331,24.7506654 68.251,24.4163354 68.251,23.997 C67.7183307,24.8243375 66.8966723,25.238 65.786,25.238 C64.9246624,25.238 64.2305027,24.9886692 63.7035,24.49 C63.1764974,23.9913308 62.913,23.4020034 62.913,22.722 Z M66.262,23.555 C66.7946694,23.555 67.2338316,23.4048348 67.5795,23.1045 C67.9251684,22.8041652 68.098,22.3083368 68.098,21.617 L68.098,21.243 L66.211,21.532 C65.5196632,21.6340005 65.174,21.9853303 65.174,22.586 C65.174,22.8580014 65.2703324,23.0874991 65.463,23.2745 C65.6556677,23.4615009 65.9219983,23.555 66.262,23.555 Z M76.886,16.602 L76.886,18.88 C76.6593322,18.8346664 76.4326678,18.812 76.206,18.812 C75.5599968,18.812 75.0386687,18.9961648 74.642,19.3645 C74.2453314,19.7328352 74.047,20.3363291 74.047,21.175 L74.047,25 L71.786,25 L71.786,16.636 L73.979,16.636 L73.979,17.877 C74.3870021,17.004329 75.1803275,16.568 76.359,16.568 C76.4836673,16.568 76.6593322,16.5793332 76.886,16.602 Z M85.793,16.636 L82.444,20.155 L85.861,25 L83.09,25 L80.88,21.804 L79.945,22.79 L79.945,25 L77.684,25 L77.684,12.692 L79.945,12.692 L79.945,19.747 L82.835,16.636 L85.793,16.636 Z M87.662,19.866 L91.402,19.866 C91.3793332,19.401331 91.2121682,19.0103349 90.9005,18.693 C90.5888318,18.3756651 90.1326697,18.217 89.532,18.217 C88.9879973,18.217 88.5460017,18.3869983 88.206,18.727 C87.8659983,19.0670017 87.6846668,19.4466646 87.662,19.866 Z M91.623,22.042 L93.51,22.603 C93.2833322,23.3736705 92.8385033,24.0083308 92.1755,24.507 C91.5124967,25.0056692 90.6880049,25.255 89.702,25.255 C88.5006607,25.255 87.4806709,24.8498374 86.642,24.0395 C85.8033291,23.2291626 85.384,22.1440068 85.384,20.784 C85.384,19.4919935 85.7919959,18.4351708 86.608,17.6135 C87.4240041,16.7918292 88.3873278,16.381 89.498,16.381 C90.7900065,16.381 91.8014963,16.7663295 92.5325,17.537 C93.2635037,18.3076705 93.629,19.3673266 93.629,20.716 C93.629,20.8066671 93.6261667,20.9086661 93.6205,21.022 C93.6148333,21.1353339 93.612,21.2259997 93.612,21.294 L93.595,21.413 L87.611,21.413 C87.6336668,21.9570027 87.848998,22.4103315 88.257,22.773 C88.665002,23.1356685 89.1523305,23.317 89.719,23.317 C90.6823381,23.317 91.3169985,22.8920042 91.623,22.042 Z M97.402,14.137 L97.402,16.636 L99.085,16.636 L99.085,18.642 L97.402,18.642 L97.402,22.144 C97.402,22.4953351 97.4813325,22.7446659 97.64,22.892 C97.7986674,23.0393341 98.0479983,23.113 98.388,23.113 C98.6940015,23.113 98.9263325,23.0903336 99.085,23.045 L99.085,24.915 C98.7563317,25.0510007 98.3313359,25.119 97.81,25.119 C96.9939959,25.119 96.3480024,24.8895023 95.872,24.4305 C95.3959976,23.9714977 95.158,23.3396707 95.158,22.535 L95.158,18.642 L93.645,18.642 L93.645,16.636 L94.07,16.636 C94.4893354,16.636 94.8094989,16.5141679 95.0305,16.2705 C95.2515011,16.0268321 95.362,15.7066686 95.362,15.31 L95.362,14.137 L97.402,14.137 Z M102.467,25 L100.206,25 L100.206,16.636 L102.467,16.636 L102.467,25 Z M99.934,13.899 C99.934,13.5136647 100.069999,13.1821681 100.342,12.9045 C100.614001,12.6268319 100.942665,12.488 101.328,12.488 C101.713335,12.488 102.041999,12.6239986 102.314,12.896 C102.586001,13.1680014 102.722,13.5023313 102.722,13.899 C102.722,14.2730019 102.586001,14.5959986 102.314,14.868 C102.041999,15.1400014 101.713335,15.276 101.328,15.276 C100.942665,15.276 100.614001,15.1400014 100.342,14.868 C100.069999,14.5959986 99.934,14.2730019 99.934,13.899 Z M106.342,20.189 L106.342,25 L104.081,25 L104.081,16.636 L106.274,16.636 L106.274,17.673 C106.512001,17.264998 106.851998,16.9533344 107.294,16.738 C107.736002,16.5226656 108.200664,16.415 108.688,16.415 C109.674005,16.415 110.424831,16.7238302 110.9405,17.3415 C111.456169,17.9591698 111.714,18.7553285 111.714,19.73 L111.714,25 L109.453,25 L109.453,20.121 C109.453,19.6223308 109.325501,19.2200015 109.0705,18.914 C108.815499,18.6079985 108.427336,18.455 107.906,18.455 C107.429998,18.455 107.050335,18.6193317 106.767,18.948 C106.483665,19.2766683 106.342,19.6903308 106.342,20.189 Z M112.614,25.459 L114.654,24.915 C114.733334,25.379669 114.948665,25.7593319 115.3,26.054 C115.651335,26.3486681 116.087664,26.496 116.609,26.496 C118.093674,26.496 118.836,25.7196744 118.836,24.167 L118.836,23.555 C118.643332,23.8610015 118.348669,24.115999 117.952,24.32 C117.555331,24.524001 117.073669,24.626 116.507,24.626 C115.396328,24.626 114.469837,24.2406705 113.7275,23.47 C112.985163,22.6993295 112.614,21.7303392 112.614,20.563 C112.614,19.429661 112.98233,18.4663373 113.719,17.673 C114.45567,16.8796627 115.384994,16.483 116.507,16.483 C117.119003,16.483 117.628998,16.5934989 118.037,16.8145 C118.445002,17.0355011 118.728332,17.3046651 118.887,17.622 L118.887,16.636 L121.063,16.636 L121.063,24.099 C121.063,25.3570063 120.700337,26.4024958 119.975,27.2355 C119.249663,28.0685042 118.150341,28.485 116.677,28.485 C115.577661,28.485 114.656837,28.1903363 113.9145,27.601 C113.172163,27.0116637 112.738667,26.2976709 112.614,25.459 Z M116.898,22.688 C117.476003,22.688 117.949165,22.4953353 118.3175,22.11 C118.685835,21.7246647 118.87,21.2090032 118.87,20.563 C118.87,19.9283302 118.680169,19.4183353 118.3005,19.033 C117.920831,18.6476647 117.453336,18.455 116.898,18.455 C116.319997,18.455 115.841169,18.6476647 115.4615,19.033 C115.081831,19.4183353 114.892,19.9283302 114.892,20.563 C114.892,21.2090032 115.078998,21.7246647 115.453,22.11 C115.827002,22.4953353 116.308664,22.688 116.898,22.688 Z" id="Marketing" fill="#000000" fill-rule="nonzero"></path>
        </g>
    </g>
</svg>