<svg width="118" height="29" viewBox="0 0 118 29" fill="none" xmlns="http://www.w3.org/2000/svg">
<path d="M118 0H0V29H118V0Z" fill="#090A0F"/>
<path d="M19.1796 20.4L18.8364 18.3837H14.9325L13.717 20.4H11L17.4493 10.2756H19.7659L21.6821 20.4H19.1796ZM18.0642 12.8782L15.9478 16.4675H18.5933L18.0642 12.8782Z" fill="white"/>
<path d="M31.3687 18.9843C31.1685 19.2036 30.9349 19.4181 30.668 19.6278C30.4106 19.828 30.1103 20.0091 29.7671 20.1712C29.4334 20.3237 29.0616 20.4429 28.6517 20.5287C28.2513 20.624 27.808 20.6717 27.3218 20.6717C26.6068 20.6717 25.9633 20.5668 25.3913 20.3571C24.8193 20.1474 24.3331 19.8518 23.9327 19.4705C23.5323 19.0796 23.2224 18.6125 23.0032 18.0691C22.7839 17.5257 22.6743 16.9251 22.6743 16.2673C22.6743 15.3998 22.8268 14.5847 23.1319 13.822C23.4369 13.0593 23.8564 12.3968 24.3903 11.8343C24.9337 11.2623 25.5724 10.8142 26.3065 10.4901C27.0405 10.166 27.8366 10.0039 28.6946 10.0039C29.4954 10.0039 30.2151 10.1469 30.8539 10.4329C31.4926 10.7094 31.974 11.0669 32.2982 11.5054L30.5393 13.0784C30.3772 12.8305 30.1341 12.6113 29.81 12.4206C29.4954 12.2299 29.0997 12.1346 28.6231 12.1346C28.1178 12.1346 27.6554 12.2442 27.236 12.4635C26.826 12.6732 26.4685 12.9592 26.1635 13.3215C25.8679 13.6742 25.6344 14.0842 25.4628 14.5513C25.3007 15.0089 25.2197 15.4856 25.2197 15.9813C25.2197 16.3245 25.2721 16.6534 25.377 16.968C25.4914 17.2731 25.6534 17.54 25.8632 17.7688C26.0729 17.9976 26.3303 18.1787 26.6354 18.3122C26.95 18.4457 27.3075 18.5124 27.7079 18.5124C28.1559 18.5124 28.5802 18.4171 28.9806 18.2264C29.381 18.0357 29.7337 17.764 30.0388 17.4113L31.3687 18.9843Z" fill="white"/>
<path d="M43.0071 14.2939C43.0071 14.8945 42.9356 15.4284 42.7926 15.8955C42.6591 16.3531 42.4875 16.7535 42.2778 17.0967C42.0776 17.4399 41.8583 17.7307 41.62 17.969C41.3912 18.1978 41.1767 18.3742 40.9765 18.4981L40.9622 18.541L43.1072 18.4981L42.764 20.4H37.0869C36.3719 20.4 35.7189 20.2999 35.1278 20.0997C34.5367 19.8995 34.0267 19.6135 33.5977 19.2417C33.1782 18.8699 32.8541 18.4218 32.6253 17.8975C32.3965 17.3636 32.2821 16.7678 32.2821 16.11C32.2821 15.2615 32.4299 14.4703 32.7254 13.7362C33.0209 12.9926 33.4309 12.3443 33.9552 11.7914C34.4891 11.2385 35.1183 10.8047 35.8428 10.4901C36.5673 10.1755 37.3538 10.0182 38.2023 10.0182C38.9268 10.0182 39.5846 10.1183 40.1757 10.3185C40.7668 10.5187 41.272 10.8047 41.6915 11.1765C42.111 11.5388 42.4351 11.9868 42.6639 12.5207C42.8927 13.045 43.0071 13.6361 43.0071 14.2939ZM40.5475 14.5942C40.5475 14.251 40.4903 13.9316 40.3759 13.6361C40.271 13.331 40.1137 13.0689 39.904 12.8496C39.7038 12.6208 39.4512 12.4444 39.1461 12.3205C38.841 12.187 38.4883 12.1203 38.0879 12.1203C37.5826 12.1203 37.1203 12.2252 36.7008 12.4349C36.2909 12.6446 35.9381 12.9259 35.6426 13.2786C35.3566 13.6218 35.1326 14.0174 34.9705 14.4655C34.818 14.9136 34.7417 15.3712 34.7417 15.8383C34.7417 16.1815 34.7941 16.5056 34.899 16.8107C35.0134 17.1062 35.1755 17.3684 35.3852 17.5972C35.5949 17.826 35.8523 18.0071 36.1574 18.1406C36.472 18.2741 36.8295 18.3408 37.2299 18.3408C37.7256 18.3408 38.1785 18.2359 38.5884 18.0262C38.9983 17.8165 39.3463 17.54 39.6323 17.1968C39.9278 16.8441 40.1519 16.4437 40.3044 15.9956C40.4665 15.538 40.5475 15.0709 40.5475 14.5942Z" fill="white"/>
<path d="M53.0731 16.682C52.9682 17.2826 52.7966 17.8308 52.5583 18.3265C52.3199 18.8127 52.0053 19.2274 51.6145 19.5706C51.2331 19.9138 50.7755 20.1807 50.2417 20.3714C49.7078 20.5621 49.0929 20.6574 48.397 20.6574C47.7868 20.6574 47.2339 20.5811 46.7382 20.4286C46.252 20.2856 45.8325 20.0806 45.4798 19.8137C45.1366 19.5372 44.8696 19.2036 44.679 18.8127C44.4978 18.4218 44.4073 17.9833 44.4073 17.4971C44.4073 17.3636 44.412 17.2206 44.4216 17.0681C44.4406 16.9156 44.4597 16.7678 44.4788 16.6248L45.5942 10.2756H47.9537L46.8669 16.4103C46.8478 16.5056 46.8335 16.6057 46.824 16.7106C46.824 16.8155 46.824 16.9108 46.824 16.9966C46.824 17.2063 46.8526 17.4065 46.9098 17.5972C46.9765 17.7879 47.0766 17.9595 47.2101 18.112C47.3435 18.255 47.5199 18.3694 47.7392 18.4552C47.9584 18.541 48.2206 18.5839 48.5257 18.5839C48.9261 18.5839 49.255 18.5219 49.5124 18.398C49.7793 18.2645 49.9938 18.0977 50.1559 17.8975C50.3275 17.6878 50.4562 17.459 50.542 17.2111C50.6278 16.9537 50.6945 16.6963 50.7422 16.4389L51.8433 10.2756H54.1885L53.0731 16.682Z" fill="white"/>
<path d="M54.4645 20.4L56.252 10.2756H58.6401L56.8526 20.4H54.4645Z" fill="white"/>
<path d="M65.4674 12.7352C65.2767 12.4778 65.0384 12.2824 64.7524 12.1489C64.4664 12.0154 64.147 11.9487 63.7943 11.9487C63.6322 11.9487 63.4606 11.9725 63.2795 12.0202C63.0983 12.0583 62.9315 12.1298 62.779 12.2347C62.636 12.33 62.512 12.454 62.4072 12.6065C62.3118 12.759 62.2642 12.9449 62.2642 13.1642C62.2642 13.4502 62.3738 13.679 62.5931 13.8506C62.8219 14.0127 63.1365 14.1652 63.5369 14.3082C63.9754 14.4607 64.3663 14.6323 64.7095 14.823C65.0527 15.0041 65.3434 15.2139 65.5818 15.4522C65.8201 15.6905 66.0012 15.9622 66.1252 16.2673C66.2491 16.5628 66.3111 16.9013 66.3111 17.2826C66.3111 17.8927 66.1824 18.4123 65.925 18.8413C65.6771 19.2703 65.353 19.623 64.9526 19.8995C64.5522 20.1664 64.1041 20.3619 63.6084 20.4858C63.1126 20.6097 62.6217 20.6717 62.1355 20.6717C61.7732 20.6717 61.4109 20.6383 61.0487 20.5716C60.6864 20.5049 60.3384 20.4095 60.0048 20.2856C59.6711 20.1521 59.3613 19.9853 59.0753 19.7851C58.7893 19.5849 58.5462 19.3561 58.346 19.0987L60.1049 17.6687C60.3051 17.9738 60.6006 18.2216 60.9915 18.4123C61.3823 18.603 61.778 18.6983 62.1784 18.6983C62.3881 18.6983 62.5883 18.6792 62.779 18.6411C62.9792 18.5934 63.1555 18.5219 63.3081 18.4266C63.4606 18.3217 63.5798 18.193 63.6656 18.0405C63.7609 17.8784 63.8086 17.6878 63.8086 17.4685C63.8086 17.1158 63.6656 16.8393 63.3796 16.6391C63.0936 16.4294 62.7122 16.2435 62.2356 16.0814C61.9019 15.967 61.5873 15.8383 61.2918 15.6953C61.0058 15.5523 60.7531 15.3759 60.5339 15.1662C60.3241 14.9565 60.1525 14.7086 60.0191 14.4226C59.8951 14.1271 59.8332 13.7743 59.8332 13.3644C59.8332 12.8496 59.938 12.3872 60.1478 11.9773C60.367 11.5578 60.6626 11.2051 61.0344 10.9191C61.4062 10.6236 61.8399 10.3995 62.3357 10.247C62.8314 10.0849 63.3605 10.0039 63.923 10.0039C64.2185 10.0039 64.5188 10.0325 64.8239 10.0897C65.1289 10.1469 65.4197 10.2327 65.6962 10.3471C65.9822 10.452 66.2443 10.5854 66.4827 10.7475C66.721 10.9096 66.9212 11.0955 67.0833 11.3052L65.4674 12.7352Z" fill="white"/>
<path d="M67.3401 20.4L69.1276 10.2756H71.5157L69.7282 20.4H67.3401Z" fill="white"/>
<path d="M77.3706 12.3205L75.9406 20.4H73.5667L74.9824 12.3205H72.151L72.5229 10.2756H80.5023L80.1448 12.3205H77.3706Z" fill="white"/>
<path d="M79.7548 20.4L81.5424 10.2756H83.9305L82.1429 20.4H79.7548Z" fill="white"/>
<path d="M90.5861 10.0182C91.3488 10.0182 92.0304 10.1231 92.631 10.3328C93.2411 10.5425 93.7559 10.8428 94.1754 11.2337C94.5949 11.6246 94.9142 12.0965 95.1335 12.6494C95.3623 13.2023 95.4767 13.8172 95.4767 14.4941C95.4767 15.3521 95.3289 16.1577 95.0334 16.9108C94.7474 17.6544 94.3422 18.3074 93.8179 18.8699C93.2936 19.4228 92.6644 19.8614 91.9303 20.1855C91.2058 20.5001 90.405 20.6574 89.5279 20.6574C88.7557 20.6574 88.0645 20.5525 87.4544 20.3428C86.8443 20.1331 86.3247 19.8328 85.8957 19.4419C85.4762 19.051 85.1521 18.5791 84.9233 18.0262C84.704 17.4733 84.5944 16.8584 84.5944 16.1815C84.5944 15.3235 84.7422 14.5227 85.0377 13.7791C85.3332 13.026 85.7479 12.3729 86.2818 11.82C86.8157 11.2575 87.4449 10.819 88.1694 10.5044C88.9035 10.1803 89.709 10.0182 90.5861 10.0182ZM89.6566 18.5124C90.1809 18.5124 90.6481 18.4075 91.058 18.1978C91.4775 17.9785 91.8302 17.6925 92.1162 17.3398C92.4022 16.9775 92.6215 16.5676 92.774 16.11C92.9265 15.6429 93.0028 15.1662 93.0028 14.68C93.0028 14.3273 92.9456 13.9984 92.8312 13.6933C92.7168 13.3787 92.55 13.107 92.3307 12.8782C92.121 12.6494 91.854 12.4683 91.5299 12.3348C91.2058 12.2013 90.8387 12.1346 90.4288 12.1346C89.914 12.1346 89.4469 12.2442 89.0274 12.4635C88.6175 12.6828 88.2647 12.9735 87.9692 13.3358C87.6832 13.6885 87.4592 14.0937 87.2971 14.5513C87.1446 15.0089 87.0683 15.4808 87.0683 15.967C87.0683 16.3197 87.1255 16.6534 87.2399 16.968C87.3543 17.2731 87.5211 17.54 87.7404 17.7688C87.9597 17.9976 88.2266 18.1787 88.5412 18.3122C88.8653 18.4457 89.2371 18.5124 89.6566 18.5124Z" fill="white"/>
<path d="M102.47 20.4L99.6817 13.679H99.6388L98.4948 20.4H96.1496L97.9371 10.2756H100.611L103.385 16.9537H103.414L104.558 10.2756H106.903L105.116 20.4H102.47Z" fill="white"/>
</svg>
