<?xml version="1.0" encoding="UTF-8"?>
<svg width="119px" height="29px" viewBox="0 0 119 29" version="1.1" xmlns="http://www.w3.org/2000/svg" xmlns:xlink="http://www.w3.org/1999/xlink">
    <title>Artboard Copy 9</title>
    <g id="Artboard-Copy-9" stroke="none" stroke-width="1" fill="none" fill-rule="evenodd">
        <rect id="Rectangle-Copy-11" fill="#090A0F" x="0" y="0" width="119" height="29"></rect>
        <path d="M16.62145,19.9717 C17.10765,19.9717 17.5533333,19.9264167 17.9585,19.83585 C18.3636667,19.7452833 18.7354667,19.62135 19.0739,19.46405 C19.4123333,19.30675 19.7126333,19.1256167 19.9748,18.92065 C20.2369667,18.7156833 20.46815,18.5035667 20.66835,18.2843 L20.66835,18.2843 L19.33845,16.7113 C19.0333833,17.0640333 18.68065,17.3357333 18.28025,17.5264 C17.87985,17.7170667 17.4556167,17.8124 17.00755,17.8124 C16.60715,17.8124 16.2520333,17.7456667 15.9422,17.6122 C15.6323667,17.4787333 15.3725833,17.2976 15.16285,17.0688 C14.9531167,16.84 14.7934333,16.5706833 14.6838,16.26085 C14.5741667,15.9510167 14.51935,15.6245 14.51935,15.2813 C14.51935,14.7855667 14.6027667,14.3065167 14.7696,13.84415 C14.9364333,13.3817833 15.17,12.97185 15.4703,12.61435 C15.7706,12.25685 16.1281,11.97085 16.5428,11.75635 C16.9575,11.54185 17.4174833,11.4346 17.92275,11.4346 C18.3994167,11.4346 18.7974333,11.5299333 19.1168,11.7206 C19.4361667,11.9112667 19.6768833,12.1305333 19.83895,12.3784 L19.83895,12.3784 L21.59785,10.8054 C21.2737167,10.3668667 20.7922833,10.0069833 20.15355,9.72575 C19.5148167,9.44451667 18.79505,9.3039 17.99425,9.3039 C17.13625,9.3039 16.3402167,9.46596667 15.60615,9.7901 C14.8720833,10.1142333 14.2357333,10.5599167 13.6971,11.12715 C13.1584667,11.6943833 12.7366167,12.3593333 12.43155,13.122 C12.1264833,13.8846667 11.97395,14.6997667 11.97395,15.5673 C11.97395,16.2251 12.0835833,16.8257 12.30285,17.3691 C12.5221167,17.9125 12.83195,18.37725 13.23235,18.76335 C13.63275,19.14945 14.11895,19.4473667 14.69095,19.6571 C15.26295,19.8668333 15.90645,19.9717 16.62145,19.9717 Z M26.51705,19.9574 C27.3941167,19.9574 28.1973,19.7977167 28.9266,19.47835 C29.6559,19.1589833 30.2827167,18.72045 30.80705,18.16275 C31.3313833,17.60505 31.7389333,16.9520167 32.0297,16.20365 C32.3204667,15.4552833 32.46585,14.6521 32.46585,13.7941 C32.46585,13.1172333 32.3538333,12.5023333 32.1298,11.9494 C31.9057667,11.3964667 31.5840167,10.9245667 31.16455,10.5337 C30.7450833,10.1428333 30.2326667,9.84253333 29.6273,9.6328 C29.0219333,9.42306667 28.3379167,9.3182 27.57525,9.3182 C26.6981833,9.3182 25.895,9.47788333 25.1657,9.79725 C24.4364,10.1166167 23.8048167,10.55515 23.27095,11.11285 C22.7370833,11.67055 22.3223833,12.3235833 22.02685,13.07195 C21.7313167,13.8203167 21.58355,14.6235 21.58355,15.4815 C21.58355,16.1583667 21.6955667,16.7732667 21.9196,17.3262 C22.1436333,17.8791333 22.4677667,18.3510333 22.892,18.7419 C23.3162333,19.1327667 23.8334167,19.4330667 24.44355,19.6428 C25.0536833,19.8525333 25.74485,19.9574 26.51705,19.9574 Z M26.64575,17.8124 C26.2262833,17.8124 25.8568667,17.7456667 25.5375,17.6122 C25.2181333,17.4787333 24.9488167,17.2976 24.72955,17.0688 C24.5102833,16.84 24.34345,16.5706833 24.22905,16.26085 C24.11465,15.9510167 24.05745,15.6197333 24.05745,15.267 C24.05745,14.7808 24.1361,14.3089 24.2934,13.8513 C24.4507,13.3937 24.6747333,12.98615 24.9655,12.62865 C25.2562667,12.27115 25.609,11.9827667 26.0237,11.7635 C26.4384,11.5442333 26.90315,11.4346 27.41795,11.4346 C27.8278833,11.4346 28.1949167,11.5013333 28.51905,11.6348 C28.8431833,11.7682667 29.1125,11.9494 29.327,12.1782 C29.5415,12.407 29.70595,12.6763167 29.82035,12.98615 C29.93475,13.2959833 29.99195,13.6272667 29.99195,13.98 C29.99195,14.4662 29.9156833,14.9404833 29.76315,15.40285 C29.6106167,15.8652167 29.39135,16.27515 29.10535,16.63265 C28.81935,16.99015 28.469,17.27615 28.0543,17.49065 C27.6396,17.70515 27.1700833,17.8124 26.64575,17.8124 Z M35.48315,19.7 L36.62715,12.979 L36.67005,12.979 L39.45855,19.7 L42.10405,19.7 L43.89155,9.5756 L41.54635,9.5756 L40.40235,16.2537 L40.37375,16.2537 L37.59955,9.5756 L34.92545,9.5756 L33.13795,19.7 L35.48315,19.7 Z M49.09675,19.7 L55.13135,9.5756 L52.37145,9.5756 L48.42465,16.8114 L48.36745,16.8114 L47.58095,9.5756 L45.04985,9.5756 L46.59425,19.7 L49.09675,19.7 Z M60.95145,19.7 L61.30895,17.6551 L56.70435,17.6551 L57.07615,15.4815 L61.08015,15.4815 L61.42335,13.5653 L57.41935,13.5653 L57.76255,11.6062 L61.96675,11.6062 L62.32425,9.5756 L55.84635,9.5756 L54.05885,19.7 L60.95145,19.7 Z M64.76955,19.7 L65.45595,15.6245 L66.42835,15.6245 L68.13005,19.7 L70.81845,19.7 L68.75925,15.3385 C69.5219167,15.1478333 70.1272833,14.7927167 70.57535,14.27315 C71.0234167,13.7535833 71.24745,13.0838667 71.24745,12.264 C71.24745,11.4155333 70.9352333,10.75535 70.3108,10.28345 C69.6863667,9.81155 68.81645,9.5756 67.70105,9.5756 L67.70105,9.5756 L64.24045,9.5756 L62.45295,19.7 L64.76955,19.7 Z M66.82875,13.9228 L65.77055,13.9228 L66.19955,11.5204 L67.21485,11.5204 C67.7105833,11.5204 68.1062167,11.5966667 68.40175,11.7492 C68.6972833,11.9017333 68.84505,12.1877333 68.84505,12.6072 C68.84505,13.0648 68.6686833,13.3984667 68.31595,13.6082 C67.9632167,13.8179333 67.4674833,13.9228 66.82875,13.9228 L66.82875,13.9228 Z M74.99405,19.9717 C75.48025,19.9717 75.9712167,19.9097333 76.46695,19.7858 C76.9626833,19.6618667 77.41075,19.46405 77.81115,19.19235 C78.21155,18.92065 78.5380667,18.5703 78.7907,18.1413 C79.0433333,17.7123 79.16965,17.1927333 79.16965,16.5826 C79.16965,16.2012667 79.1076833,15.86045 78.98375,15.56015 C78.8598167,15.25985 78.6786833,14.9905333 78.44035,14.7522 C78.2020167,14.5138667 77.91125,14.30175 77.56805,14.11585 C77.22485,13.92995 76.8339833,13.7607333 76.39545,13.6082 C75.99505,13.4652 75.6828333,13.3102833 75.4588,13.14345 C75.2347667,12.9766167 75.12275,12.7502 75.12275,12.4642 C75.12275,12.2449333 75.1728,12.0590333 75.2729,11.9065 C75.373,11.7539667 75.4969333,11.62765 75.6447,11.52755 C75.7924667,11.42745 75.9569167,11.35595 76.13805,11.31305 C76.3191833,11.27015 76.4907833,11.2487 76.65285,11.2487 C77.0055833,11.2487 77.32495,11.3154333 77.61095,11.4489 C77.89695,11.5823667 78.1352833,11.7778 78.32595,12.0352 L78.32595,12.0352 L79.94185,10.6052 C79.7797833,10.3954667 79.5795833,10.2095667 79.34125,10.0475 C79.1029167,9.88543333 78.8431333,9.74958333 78.5619,9.63995 C78.2806667,9.53031667 77.9875167,9.4469 77.68245,9.3897 C77.3773833,9.3325 77.0770833,9.3039 76.78155,9.3039 C76.2190833,9.3039 75.6899833,9.38255 75.19425,9.53985 C74.6985167,9.69715 74.26475,9.92118333 73.89295,10.21195 C73.52115,10.5027167 73.228,10.85545 73.0135,11.27015 C72.799,11.68485 72.69175,12.1496 72.69175,12.6644 C72.69175,13.0743333 72.7561,13.4246833 72.8848,13.71545 C73.0135,14.0062167 73.1851,14.2564667 73.3996,14.4662 C73.6141,14.6759333 73.8667333,14.8523 74.1575,14.9953 C74.4482667,15.1383 74.7604833,15.267 75.09415,15.3814 C75.5708167,15.5434667 75.95215,15.7269833 76.23815,15.93195 C76.52415,16.1369167 76.66715,16.4157667 76.66715,16.7685 C76.66715,16.9877667 76.6218667,17.17605 76.5313,17.33335 C76.4407333,17.49065 76.3191833,17.61935 76.16665,17.71945 C76.0141167,17.81955 75.8401333,17.89105 75.6447,17.93395 C75.4492667,17.97685 75.2466833,17.9983 75.03695,17.9983 C74.63655,17.9983 74.2409167,17.9029667 73.85005,17.7123 C73.4591833,17.5216333 73.16365,17.2737667 72.96345,16.9687 L72.96345,16.9687 L71.20455,18.3987 C71.40475,18.6561 71.64785,18.8849 71.93385,19.0851 C72.21985,19.2853 72.5296833,19.44975 72.86335,19.57845 C73.1970167,19.70715 73.5449833,19.8048667 73.90725,19.8716 C74.2695167,19.9383333 74.6317833,19.9717 74.99405,19.9717 Z M82.58735,19.7 L84.37485,9.5756 L81.98675,9.5756 L80.19925,19.7 L82.58735,19.7 Z M89.96615,19.9574 C90.8432167,19.9574 91.6464,19.7977167 92.3757,19.47835 C93.105,19.1589833 93.7318167,18.72045 94.25615,18.16275 C94.7804833,17.60505 95.1880333,16.9520167 95.4788,16.20365 C95.7695667,15.4552833 95.91495,14.6521 95.91495,13.7941 C95.91495,13.1172333 95.8029333,12.5023333 95.5789,11.9494 C95.3548667,11.3964667 95.0331167,10.9245667 94.61365,10.5337 C94.1941833,10.1428333 93.6817667,9.84253333 93.0764,9.6328 C92.4710333,9.42306667 91.7870167,9.3182 91.02435,9.3182 C90.1472833,9.3182 89.3441,9.47788333 88.6148,9.79725 C87.8855,10.1166167 87.2539167,10.55515 86.72005,11.11285 C86.1861833,11.67055 85.7714833,12.3235833 85.47595,13.07195 C85.1804167,13.8203167 85.03265,14.6235 85.03265,15.4815 C85.03265,16.1583667 85.1446667,16.7732667 85.3687,17.3262 C85.5927333,17.8791333 85.9168667,18.3510333 86.3411,18.7419 C86.7653333,19.1327667 87.2825167,19.4330667 87.89265,19.6428 C88.5027833,19.8525333 89.19395,19.9574 89.96615,19.9574 Z M90.09485,17.8124 C89.6753833,17.8124 89.3059667,17.7456667 88.9866,17.6122 C88.6672333,17.4787333 88.3979167,17.2976 88.17865,17.0688 C87.9593833,16.84 87.79255,16.5706833 87.67815,16.26085 C87.56375,15.9510167 87.50655,15.6197333 87.50655,15.267 C87.50655,14.7808 87.5852,14.3089 87.7425,13.8513 C87.8998,13.3937 88.1238333,12.98615 88.4146,12.62865 C88.7053667,12.27115 89.0581,11.9827667 89.4728,11.7635 C89.8875,11.5442333 90.35225,11.4346 90.86705,11.4346 C91.2769833,11.4346 91.6440167,11.5013333 91.96815,11.6348 C92.2922833,11.7682667 92.5616,11.9494 92.7761,12.1782 C92.9906,12.407 93.15505,12.6763167 93.26945,12.98615 C93.38385,13.2959833 93.44105,13.6272667 93.44105,13.98 C93.44105,14.4662 93.3647833,14.9404833 93.21225,15.40285 C93.0597167,15.8652167 92.84045,16.27515 92.55445,16.63265 C92.26845,16.99015 91.9181,17.27615 91.5034,17.49065 C91.0887,17.70515 90.6191833,17.8124 90.09485,17.8124 Z M98.93225,19.7 L100.07625,12.979 L100.11915,12.979 L102.90765,19.7 L105.55315,19.7 L107.34065,9.5756 L104.99545,9.5756 L103.85145,16.2537 L103.82285,16.2537 L101.04865,9.5756 L98.37455,9.5756 L96.58705,19.7 L98.93225,19.7 Z" id="CONVERSION" fill="#FFFFFF" fill-rule="nonzero"></path>
    </g>
</svg>