<?xml version="1.0" encoding="UTF-8"?>
<svg width="200px" viewBox="0 0 796 104" version="1.1" xmlns="http://www.w3.org/2000/svg" xmlns:xlink="http://www.w3.org/1999/xlink">
    <g id="inpost" stroke="none" stroke-width="1" fill="none" fill-rule="evenodd">
        <g id="Layer-1">
            <g id="svg_1">
                <path d="M123.306,102.102 L93.813,62.491 C97.54,61.838 100.942,60.687 104.184,59.052 C107.425,57.577 110.181,55.617 112.45,53.161 C114.879,50.869 116.662,48.086 117.96,44.812 C119.255,41.702 119.903,38.101 119.903,34.011 C119.903,29.59 119.093,25.661 117.309,22.06 C115.69,18.624 113.42,15.514 110.341,13.058 C107.424,10.439 103.697,8.474 99.482,7.164 C95.269,5.693 90.406,5.037 85.222,5.037 L65.45,5.037 L65.45,15.184 L84.411,15.184 C92.191,15.184 98.187,16.823 102.561,20.259 C106.939,23.534 109.046,28.28 109.046,34.499 C109.046,37.609 108.395,40.393 107.1,43.011 C105.966,45.468 104.183,47.595 102.075,49.233 C99.808,51.034 97.215,52.34 94.136,53.323 C91.057,54.143 87.816,54.636 84.249,54.636 L65.45,54.636 L65.45,64.289 L82.144,64.289 L110.018,102.102 L123.306,102.102 L123.306,102.102 Z M137.406,70.184 L193.477,70.184 C193.639,69.531 193.639,68.871 193.639,68.38 C193.639,67.727 193.639,67.235 193.639,66.911 C193.639,61.507 192.992,56.599 191.535,52.015 C190.076,47.432 187.808,43.339 185.053,39.9 C182.136,36.463 178.733,33.845 174.517,31.879 C170.467,29.917 165.766,28.934 160.582,28.934 C155.719,28.934 151.179,29.752 146.967,31.717 C142.755,33.68 139.187,36.298 136.111,39.738 C133.191,43.174 130.762,47.102 129.14,51.686 C127.359,56.269 126.547,61.177 126.547,66.252 C126.547,71.818 127.522,76.894 129.464,81.478 C131.247,86.061 133.84,90.154 137.082,93.425 C140.324,96.696 144.05,99.154 148.427,100.957 C152.64,102.755 157.176,103.736 162.039,103.736 C168.844,103.736 174.517,102.424 179.056,99.973 C183.754,97.516 187.807,94.245 191.372,90.315 L184.728,84.257 C181.811,87.366 178.57,89.823 175.002,91.626 C171.598,93.424 167.386,94.407 162.362,94.407 C159.282,94.407 156.365,93.915 153.448,92.77 C150.693,91.788 148.099,90.152 145.833,88.019 C143.563,86.059 141.618,83.441 140.161,80.493 C138.701,77.548 137.73,74.114 137.406,70.184 L137.406,70.184 L137.406,70.184 Z M137.406,62.327 C137.73,58.726 138.539,55.449 139.838,52.507 C141.133,49.559 142.755,47.102 144.698,44.811 C146.805,42.684 149.075,41.048 151.668,39.739 C154.424,38.429 157.176,37.938 160.255,37.938 C163.822,37.938 166.901,38.591 169.657,39.9 C172.412,41.21 174.679,43.01 176.463,45.14 C178.406,47.432 179.866,50.05 180.838,52.998 C181.812,55.941 182.622,59.051 182.784,62.327 L137.406,62.327 Z M217.625,30.736 L217.625,24.843 C217.625,14.696 221.84,9.621 229.941,9.621 C231.887,9.621 233.509,9.786 235.128,10.112 C236.588,10.439 238.369,10.766 240.315,11.422 L240.315,2.092 C238.531,1.436 236.75,0.945 234.966,0.783 C233.185,0.453 231.077,0.292 228.646,0.292 C221.84,0.292 216.491,2.419 212.765,6.347 C209.038,10.44 207.254,16.497 207.254,24.353 L207.254,30.572 L197.531,30.572 L197.531,39.74 L207.254,39.74 L207.254,102.103 L217.787,102.103 L217.787,39.739 L240.153,39.739 L240.153,30.736 L217.625,30.736 L217.625,30.736 Z M249.713,70.184 L305.949,70.184 C305.949,69.531 305.949,68.871 305.949,68.38 C305.949,67.727 305.949,67.235 305.949,66.911 C305.949,61.507 305.299,56.599 303.842,52.015 C302.382,47.432 300.278,43.339 297.361,39.9 C294.606,36.463 291.041,33.845 286.987,31.879 C282.774,29.917 278.073,28.934 272.889,28.934 C268.027,28.934 263.49,29.752 259.275,31.717 C255.062,33.68 251.498,36.298 248.581,39.738 C245.501,43.174 243.07,47.102 241.448,51.686 C239.829,56.269 238.855,61.177 238.855,66.252 C238.855,71.818 239.829,76.894 241.772,81.478 C243.718,86.061 246.149,90.154 249.39,93.425 C252.631,96.696 256.358,99.154 260.735,100.957 C264.947,102.755 269.649,103.736 274.508,103.736 C281.152,103.736 286.824,102.424 291.526,99.973 C296.062,97.516 300.115,94.245 303.68,90.315 L297.036,84.257 C294.119,87.366 290.877,89.823 287.474,91.626 C283.907,93.424 279.694,94.407 274.669,94.407 C271.59,94.407 268.673,93.915 265.756,92.77 C263,91.788 260.409,90.152 258.14,88.019 C255.87,86.059 253.925,83.441 252.467,80.493 C251.009,77.548 250.037,74.114 249.713,70.184 L249.713,70.184 L249.713,70.184 Z M249.713,62.327 C250.037,58.726 251.009,55.449 252.145,52.507 C253.44,49.559 255.062,47.102 257.17,44.811 C259.113,42.684 261.383,41.048 264.138,39.739 C266.731,38.429 269.649,37.938 272.727,37.938 C276.13,37.938 279.371,38.591 281.965,39.9 C284.72,41.21 286.987,43.01 288.771,45.14 C290.716,47.432 292.173,50.05 293.145,52.998 C294.281,55.941 294.929,59.051 295.09,62.327 L249.713,62.327 L249.713,62.327 Z M326.205,73.455 C326.205,68.057 326.853,63.31 328.312,59.218 C329.773,55.126 331.877,51.687 334.471,48.904 C336.902,46.121 339.981,44.158 343.384,42.684 C346.788,41.374 350.514,40.557 354.244,40.557 L355.054,40.557 L355.054,29.097 C351.651,29.097 348.572,29.427 345.655,30.409 C342.738,31.227 339.983,32.698 337.551,34.498 C335.119,36.299 332.85,38.429 330.907,40.883 C329.124,43.339 327.504,46.12 326.206,49.068 L326.206,30.409 L315.673,30.409 L315.673,102.101 L326.206,102.101 L326.206,73.455 L326.205,73.455 L326.205,73.455 Z M372.719,73.455 C372.719,68.057 373.528,63.31 374.986,59.218 C376.445,55.126 378.392,51.687 380.982,48.904 C383.575,46.121 386.654,44.158 390.058,42.684 C393.46,41.374 397.028,40.557 400.913,40.557 L401.728,40.557 L401.728,29.097 C398.323,29.097 395.243,29.427 392.327,30.409 C389.409,31.227 386.654,32.698 384.225,34.498 C381.793,36.299 379.524,38.429 377.579,40.883 C375.636,43.339 374.014,46.12 372.719,49.068 L372.719,30.409 L362.183,30.409 L362.183,102.101 L372.719,102.101 L372.719,73.455 Z M431.057,38.756 C437.706,38.756 442.888,40.556 446.617,43.831 C450.347,47.102 452.29,51.851 452.29,58.396 L452.29,60.853 C449.046,59.872 445.809,59.217 442.402,58.726 C439.002,58.068 434.949,57.744 430.41,57.744 C425.877,57.744 421.823,58.396 418.094,59.38 C414.369,60.362 411.287,61.837 408.535,63.802 C405.777,65.762 403.672,68.218 402.215,71.004 C400.752,73.946 400.105,77.386 400.105,81.149 C400.105,84.912 400.915,88.19 402.377,90.969 C403.834,93.756 405.939,96.044 408.373,98.01 C410.964,99.807 413.722,101.281 416.96,102.102 C420.043,103.085 423.28,103.576 426.524,103.576 C432.843,103.576 438.192,102.264 442.24,99.807 C446.456,97.357 449.699,94.41 452.29,91.299 L452.29,102.102 L462.34,102.102 L462.34,58.236 C462.34,48.742 459.744,41.54 454.558,36.63 C449.376,31.881 441.916,29.428 432.197,29.428 C427.01,29.428 422.309,29.919 418.256,31.064 C414.37,32.046 410.318,33.521 406.426,35.321 L409.508,44.159 C412.908,42.52 416.152,41.211 419.719,40.231 C423.117,39.247 426.847,38.756 431.057,38.756 L431.057,38.756 L431.057,38.756 Z M431.548,65.762 C435.92,65.762 439.811,66.091 443.211,66.744 C446.616,67.397 449.698,68.057 452.289,68.71 L452.289,75.749 C452.289,78.53 451.804,81.148 450.509,83.605 C449.207,85.894 447.588,87.859 445.484,89.663 C443.379,91.299 440.783,92.605 437.868,93.588 C435.111,94.57 432.034,95.063 428.629,95.063 C426.362,95.063 424.09,94.738 421.984,94.08 C419.88,93.427 417.931,92.606 416.312,91.3 C414.693,89.987 413.398,88.514 412.42,86.716 C411.448,85.08 410.963,82.953 410.963,80.658 C410.963,76.074 412.744,72.473 416.312,69.692 C419.879,67.073 424.898,65.762 431.548,65.762 L431.548,65.762 L431.548,65.762 Z M487.457,102.102 L487.457,0.782 L476.922,0.782 L476.922,102.102 L487.457,102.102 L487.457,102.102 Z M584.045,102.102 L584.045,5.037 L562.975,5.037 L562.975,43.34 L523.92,43.34 L523.92,5.037 L502.85,5.037 L502.85,102.102 L523.92,102.102 L523.92,63.143 L562.975,63.143 L562.975,102.102 L584.045,102.102 Z M664.588,66.911 L664.588,66.744 C664.588,61.346 663.941,56.431 662.483,51.521 C661.021,46.611 658.916,42.357 655.84,38.591 C652.919,34.828 649.195,31.88 644.656,29.753 C640.279,27.461 634.93,26.316 628.771,26.316 C623.422,26.316 618.398,27.296 614.026,29.426 C609.649,31.388 605.757,34.171 602.52,37.773 C599.438,41.21 596.848,45.302 595.066,50.05 C593.28,54.796 592.47,59.71 592.47,65.108 L592.47,65.269 C592.47,71.003 593.441,76.241 595.228,80.825 C597.171,85.57 599.923,89.663 603.33,93.096 C606.73,96.373 610.783,99.154 615.484,100.957 C620.185,102.755 625.371,103.736 630.882,103.736 C637.527,103.736 643.361,102.424 648.217,99.973 C653.242,97.516 657.458,94.245 660.858,89.824 L648.865,79.182 C645.951,81.8 643.199,83.766 640.441,84.91 C637.688,86.223 634.605,86.714 631.038,86.714 C626.505,86.714 622.452,85.569 619.375,83.113 C616.294,80.656 614.188,77.055 613.056,72.309 L664.264,72.309 C664.426,71.164 664.426,70.344 664.588,69.529 C664.588,68.871 664.588,68.057 664.588,66.911 L664.588,66.911 Z M644.332,59.051 L612.894,59.051 C613.704,54.305 615.485,50.377 618.075,47.594 C620.834,44.649 624.396,43.339 628.772,43.339 C633.15,43.339 636.712,44.649 639.308,47.594 C642.061,50.542 643.685,54.305 644.332,59.051 L644.332,59.051 Z M715.473,48.412 L715.473,26.316 C709.315,26.151 704.295,27.461 700.728,30.57 C696.999,33.518 694.084,37.608 691.979,42.683 L691.979,27.788 L671.232,27.788 L671.232,102.102 L691.979,102.102 L691.979,74.6 C691.979,65.6 693.922,59.051 697.975,54.796 C702.023,50.542 707.371,48.412 714.339,48.412 L715.473,48.412 Z M795.535,65.108 L795.535,64.779 C795.535,59.38 794.557,54.304 792.614,49.721 C790.51,44.975 787.752,41.048 784.19,37.447 C780.783,34.01 776.574,31.389 771.711,29.262 C766.849,27.297 761.662,26.317 755.988,26.317 C750.154,26.317 744.805,27.297 739.943,29.427 C735.248,31.389 731.033,34.172 727.465,37.774 C723.902,41.211 720.983,45.303 719.039,50.051 C716.935,54.635 715.962,59.711 715.962,65.109 L715.962,65.27 C715.962,70.675 716.935,75.749 719.039,80.333 C720.982,85.079 723.74,89.005 727.302,92.605 C730.869,96.043 735.085,98.663 739.943,100.79 C744.805,102.756 749.993,103.737 755.665,103.737 C761.5,103.737 766.686,102.756 771.549,100.628 C776.412,98.663 780.622,95.883 784.191,92.281 C787.753,88.842 790.51,84.749 792.615,80.004 C794.558,75.421 795.535,70.346 795.535,65.108 L795.535,65.108 L795.535,65.108 Z M774.949,65.27 C774.949,68.057 774.626,70.675 773.655,73.131 C772.844,75.583 771.549,77.715 769.925,79.513 C768.307,81.479 766.362,82.952 763.929,83.935 C761.662,85.08 758.91,85.571 755.989,85.571 C753.076,85.571 750.317,84.912 748.051,83.935 C745.78,82.785 743.674,81.311 741.894,79.352 C740.274,77.548 738.812,75.259 738.002,72.802 C737.03,70.346 736.545,67.727 736.545,65.109 L736.545,64.78 C736.545,62 737.03,59.381 737.84,56.924 C738.812,54.468 739.944,52.341 741.732,50.543 C743.351,48.578 745.294,47.104 747.566,46.121 C749.995,44.976 752.59,44.485 755.667,44.485 C758.426,44.485 761.178,45.141 763.445,46.121 C765.879,47.268 767.983,48.743 769.602,50.704 C771.388,52.508 772.684,54.796 773.657,57.253 C774.628,59.71 774.951,62.327 774.951,65.108 L774.951,65.27 L774.949,65.27 L774.949,65.27 Z" id="svg_2" fill="#030212" fill-rule="nonzero"></path>
                <path d="M43.897,5.037 L43.897,102.102 L54.756,102.102 L54.756,5.037 L43.897,5.037 Z M33.038,102.102 L22.181,102.102 L22.181,26.152 L33.037,26.152 L33.037,102.102 L33.038,102.102 Z M11.322,102.102 L0.466,102.102 L0.466,47.103 L11.322,47.103 L11.322,102.102 Z" id="svg_3" fill="#33CC99"></path>
            </g>
        </g>
    </g>
</svg>