<?xml version="1.0" encoding="UTF-8"?>
<svg width="40px" viewBox="0 0 124 98" version="1.1" xmlns="http://www.w3.org/2000/svg" xmlns:xlink="http://www.w3.org/1999/xlink">
    <g id="inpost" stroke="none" stroke-width="1" fill="none" fill-rule="evenodd">
        <g id="Group-41" transform="translate(0.466000, 0.037000)">
            <path d="M122.84,97.065 L93.347,57.454 C97.074,56.801 100.476,55.65 103.718,54.015 C106.959,52.54 109.715,50.58 111.984,48.124 C114.413,45.832 116.196,43.049 117.494,39.775 C118.789,36.665 119.437,33.064 119.437,28.974 C119.437,24.553 118.627,20.624 116.843,17.023 C115.224,13.587 112.954,10.477 109.875,8.021 C106.958,5.402 103.231,3.437 99.016,2.127 C94.803,0.656 89.94,2.48689958e-13 84.756,2.48689958e-13 L64.984,2.48689958e-13 L64.984,10.147 L83.945,10.147 C91.725,10.147 97.721,11.786 102.095,15.222 C106.473,18.497 108.58,23.243 108.58,29.462 C108.58,32.572 107.929,35.356 106.634,37.974 C105.5,40.431 103.717,42.558 101.609,44.196 C99.342,45.997 96.749,47.303 93.67,48.286 C90.591,49.106 87.35,49.599 83.783,49.599 L64.984,49.599 L64.984,59.252 L81.678,59.252 L109.552,97.065 L122.84,97.065 L122.84,97.065 Z" id="svg_2-path" fill="#030212" fill-rule="nonzero"></path>
            <path d="M43.431,2.55795385e-13 L43.431,97.065 L54.29,97.065 L54.29,2.55795385e-13 L43.431,2.55795385e-13 Z M32.572,97.065 L21.715,97.065 L21.715,21.115 L32.571,21.115 L32.571,97.065 L32.572,97.065 Z M10.856,97.065 L-2.48689958e-14,97.065 L-2.48689958e-14,42.066 L10.856,42.066 L10.856,97.065 Z" id="svg_3" fill="#33CC99"></path>
        </g>
    </g>
</svg>