<?xml version="1.0" encoding="UTF-8"?>
<svg width="16px" height="17px" viewBox="0 0 16 17" version="1.1" xmlns="http://www.w3.org/2000/svg" xmlns:xlink="http://www.w3.org/1999/xlink">
    <!-- Generator: Sketch 54.1 (76490) - https://sketchapp.com -->
    <title>Shape</title>
    <desc>Created with Sketch.</desc>
    <g id="lander" stroke="none" stroke-width="1" fill="none" fill-rule="evenodd">
        <g id="bigger" transform="translate(-292.000000, -27.000000)" fill="#8795A1">
            <g id="Search" transform="translate(272.000000, 10.000000)">
                <g transform="translate(20.000000, 17.000000)" id="Shape">
                    <path d="M15.2171673,15.0502825 L11.6130067,11.465625 C14.1383723,8.92464141 14.215324,4.84575006 11.787597,2.2113222 C9.35986999,-0.423105661 5.28828366,-0.678958957 2.54986804,1.63083509 C-0.188547575,3.94062913 -0.622809588,7.99706755 1.56460224,10.834196 C3.75201407,13.6713245 7.78549086,14.2831588 10.7158672,12.2223427 L14.3902387,15.8967141 C14.6207721,16.1115275 14.980018,16.105189 15.2028301,15.8823769 C15.4256421,15.6595648 15.4319806,15.300319 15.2171673,15.0697855 L15.2171673,15.0502825 Z M1.44412522,6.78489701 C1.44412522,3.76895321 3.88903073,1.3240477 6.90497452,1.3240477 C9.92091832,1.3240477 12.3658238,3.76895321 12.3658238,6.78489701 C12.3658238,9.8008408 9.92091832,12.2457463 6.90497452,12.2457463 C3.88903073,12.2457463 1.44412522,9.8008408 1.44412522,6.78489701 Z"></path>
                </g>
            </g>
        </g>
    </g>
</svg>