<?xml version="1.0" encoding="UTF-8"?>
<svg class="slackSVG" viewBox="0 0 30 30" version="1.1" xmlns="http://www.w3.org/2000/svg" xmlns:xlink="http://www.w3.org/1999/xlink">
    <g id="Page-1" stroke="none" stroke-width="1" fill="none" fill-rule="evenodd">
        <g id="New-Slack-Logo-2019-PNG-Transparent-&amp;-SVG-Vector---Freebie-Supply-15" fill-rule="nonzero">
            <path d="M6.31106862,18.953952 C6.31106862,20.6868568 4.8954562,22.1024691 3.16255135,22.1024691 C1.4296465,22.1024691 0.0140340886,20.6868568 0.0140340886,18.953952 C0.0140340886,17.2210471 1.4296465,15.8054347 3.16255135,15.8054347 L6.31106862,15.8054347 L6.31106862,18.953952 L6.31106862,18.953952 Z" id="Shape" fill="#E01E5A"></path>
            <path d="M7.89753082,18.953952 C7.89753082,17.2210471 9.31314324,15.8054347 11.0460481,15.8054347 C12.7789529,15.8054347 14.1945653,17.2210471 14.1945653,18.953952 L14.1945653,26.8374486 C14.1945653,28.5703535 12.7789529,29.9859659 11.0460481,29.9859659 C9.31314324,29.9859659 7.89753082,28.5703535 7.89753082,26.8374486 L7.89753082,18.953952 L7.89753082,18.953952 Z" id="Shape" fill="#E01E5A"></path>
            <path d="M11.0460481,6.31106862 C9.31314324,6.31106862 7.89753082,4.8954562 7.89753082,3.16255135 C7.89753082,1.4296465 9.31314324,0.0140340886 11.0460481,0.0140340886 C12.7789529,0.0140340886 14.1945653,1.4296465 14.1945653,3.16255135 L14.1945653,6.31106862 L11.0460481,6.31106862 L11.0460481,6.31106862 Z" id="Shape" fill="#36C5F0"></path>
            <path d="M11.0460481,7.89753082 C12.7789529,7.89753082 14.1945653,9.31314324 14.1945653,11.0460481 C14.1945653,12.7789529 12.7789529,14.1945653 11.0460481,14.1945653 L3.16255135,14.1945653 C1.4296465,14.1945653 0.0140340886,12.7789529 0.0140340886,11.0460481 C0.0140340886,9.31314324 1.4296465,7.89753082 3.16255135,7.89753082 L11.0460481,7.89753082 L11.0460481,7.89753082 Z" id="Shape" fill="#36C5F0"></path>
            <path d="M23.6889315,11.0460481 C23.6889315,9.31314324 25.1045438,7.89753082 26.8374486,7.89753082 C28.5703535,7.89753082 29.9859659,9.31314324 29.9859659,11.0460481 C29.9859659,12.7789529 28.5703535,14.1945653 26.8374486,14.1945653 L23.6889315,14.1945653 L23.6889315,11.0460481 L23.6889315,11.0460481 Z" id="Shape" fill="#2EB67D"></path>
            <path d="M22.1024691,11.0460481 C22.1024691,12.7789529 20.6868568,14.1945653 18.953952,14.1945653 C17.2210471,14.1945653 15.8054347,12.7789529 15.8054347,11.0460481 L15.8054347,3.16255135 C15.8054347,1.4296465 17.2210471,0.0140340886 18.953952,0.0140340886 C20.6868568,0.0140340886 22.1024691,1.4296465 22.1024691,3.16255135 L22.1024691,11.0460481 L22.1024691,11.0460481 Z" id="Shape" fill="#2EB67D"></path>
            <path d="M18.953952,23.6889315 C20.6868568,23.6889315 22.1024691,25.1045438 22.1024691,26.8374486 C22.1024691,28.5703535 20.6868568,29.9859659 18.953952,29.9859659 C17.2210471,29.9859659 15.8054347,28.5703535 15.8054347,26.8374486 L15.8054347,23.6889315 L18.953952,23.6889315 L18.953952,23.6889315 Z" id="Shape" fill="#ECB22E"></path>
            <path d="M18.953952,22.1024691 C17.2210471,22.1024691 15.8054347,20.6868568 15.8054347,18.953952 C15.8054347,17.2210471 17.2210471,15.8054347 18.953952,15.8054347 L26.8374486,15.8054347 C28.5703535,15.8054347 29.9859659,17.2210471 29.9859659,18.953952 C29.9859659,20.6868568 28.5703535,22.1024691 26.8374486,22.1024691 L18.953952,22.1024691 L18.953952,22.1024691 Z" id="Shape" fill="#ECB22E"></path>
        </g>
    </g>
</svg>