<svg width="8" height="15" viewBox="0 0 8 15" fill="none" xmlns="http://www.w3.org/2000/svg">
<path d="M0.836 14.324C0.686667 14.324 0.57 14.2633 0.486 14.142C0.402 14.0207 0.36 13.82 0.36 13.54C0.36 13.4467 0.434667 13.218 0.584 12.854C0.733333 12.49 0.938667 12.028 1.2 11.468C1.47067 10.8987 1.774 10.264 2.11 9.564C2.45533 8.864 2.81933 8.14067 3.202 7.394C3.58467 6.638 3.972 5.88667 4.364 5.14C4.756 4.39333 5.134 3.68867 5.498 3.026C5.862 2.354 6.19333 1.766 6.492 1.262C6.62267 1.066 6.73467 0.944666 6.828 0.897999C6.93067 0.842 7.052 0.814 7.192 0.814C7.332 0.814 7.43933 0.874666 7.514 0.996C7.598 1.108 7.64 1.24333 7.64 1.402C7.64 1.486 7.55133 1.724 7.374 2.116C7.19667 2.49867 6.954 3.00267 6.646 3.628C6.338 4.244 5.97867 4.94867 5.568 5.742C5.16667 6.526 4.73267 7.366 4.266 8.262C3.80867 9.14867 3.342 10.0587 2.866 10.992C2.39 11.916 1.928 12.8307 1.48 13.736C1.37733 13.9507 1.27933 14.1 1.186 14.184C1.09267 14.2773 0.976 14.324 0.836 14.324Z" fill="#141414" fill-opacity="0.5"/>
</svg>
