<svg class="toggleSlider" fill="none" xmlns="http://www.w3.org/2000/svg">
<g style="mix-blend-mode:multiply" opacity="0.55">
<path d="M9 20.499L9 0.499023H8.52333C8.0125 0.499023 7.5025 0.589857 7.06333 0.85069C5.605 1.71736 2.33333 4.34652 2.33333 10.499C2.33333 12.3232 1.55417 14.7215 0.749166 16.7124C0.0408335 18.4632 1.285 20.499 3.17417 20.499H9ZM52 0.499023V20.499H52.4767C52.9875 20.499 53.4975 20.4082 53.9367 20.1474C55.395 19.2807 58.6667 16.6515 58.6667 10.499C58.6667 8.67486 59.4458 6.27652 60.2508 4.28569C60.9592 2.53486 59.715 0.499023 57.8258 0.499023L52 0.499023ZM9 20.499L52 20.499V0.499023L9 0.499023L9 20.499Z" fill="#EEE5A0"/>
</g>
</svg>
