<?xml version="1.0" encoding="UTF-8"?>
<svg width="35px" height="25px" viewBox="0 0 80 56" version="1.1" xmlns="http://www.w3.org/2000/svg" xmlns:xlink="http://www.w3.org/1999/xlink">
    <g id="lander" stroke="none" stroke-width="1" fill="none" fill-rule="evenodd">
        <g id="Artboard" transform="translate(-137.000000, -611.000000)" fill="#4742DE" fill-rule="nonzero">
            <path d="M168.999868,627.000191 L168.999868,651.000323 L189.7838,639.000093 L168.999868,627.000191 Z M215.328024,658.255803 C214.408075,661.697611 211.697617,664.408596 208.255546,665.328479 C202.016488,667.000257 176.999802,667.000257 176.999802,667.000257 C176.999802,667.000257 151.983315,667.000257 145.744388,665.328479 C142.302607,664.408596 139.591629,661.697611 138.671759,658.255803 C137,652.016877 137,639.000356 137,639.000356 C137,639.000356 137,625.983309 138.671759,619.744645 C139.591629,616.303121 142.302607,613.591886 145.744388,612.672273 C151.983315,611 176.999802,611 176.999802,611 C176.999802,611 202.016488,611 208.255546,612.672273 C211.697617,613.591886 214.408075,616.303121 215.328024,619.744645 C217,625.983309 217,639.000356 217,639.000356 C217,639.000356 217,652.016877 215.328024,658.255803" id="path14"></path>
        </g>
    </g>
</svg>