<?xml version="1.0" encoding="UTF-8"?>
<svg width="22px" class="fillSVG" viewBox="0 0 45 46" version="1.1" xmlns="http://www.w3.org/2000/svg" xmlns:xlink="http://www.w3.org/1999/xlink">
    <g id="icons" stroke="none" stroke-width="1" fill="none" fill-rule="evenodd">
        <g id="250-icons-48x48px" transform="translate(-524.000000, -2248.000000)" fill="">
            <g id="Cocktail" transform="translate(524.000000, 2248.000000)">
                <path d="M29,28.93 C28.6084818,28.8541591 28.2029011,28.9384314 27.8740025,29.1639619 C27.5451038,29.3894924 27.3203401,29.7374562 27.25,30.13 C27.25,30.2 25.86,36.91 21.72,36.91 C20.8915729,36.91 20.22,37.5815729 20.22,38.41 C20.22,39.2384271 20.8915729,39.91 21.72,39.91 C28.39,39.91 30.12,31.06 30.19,30.69 C30.2662177,30.2987385 30.1835654,29.8932305 29.9602929,29.5630122 C29.7370203,29.232794 29.3914918,29.0050262 29,28.93 L29,28.93 Z" id="Shape"></path>
                <path d="M44.22,13.55 L40.72,0.4 L25.72,0.4 C25.24,0.4 24.77,0.4 24.5,0.78 C24.2271774,1.16692789 24.1530392,1.65994678 24.3,2.11 L26.3,8.23 C26.4033447,8.54349204 26.6072106,8.81414158 26.88,9 L30.08,11.18 L28.21,14.18 C26.1024306,13.0323461 23.7397753,12.4339444 21.34,12.44 L20.11,12.44 C18.431038,12.4420249 16.7655689,12.7399136 15.19,13.32 C12.4,6 12,5.6 11.78,5.38 C9.85,3.45 7.1,4.71 5.72,5.82 L0.72,10.32 L2.72,12.55 L7.65,8.11 C8.04,7.8 9.12,7.19 9.57,7.44 C9.98,8.22 11.16,11.21 12.47,14.64 C8.2723202,17.2628766 5.71863784,21.8602603 5.71,26.81 L5.71,31.05 C5.73754658,38.9833672 12.176585,45.4000478 20.11,45.4 L21.34,45.4 C29.2850918,45.3944845 35.7244845,38.9550918 35.73,31.01 L35.73,26.77 C35.7304346,22.562507 33.884297,18.5668073 30.68,15.84 L32.57,12.84 L35.89,15.1 C36.1377403,15.2686331 36.430314,15.3591917 36.73,15.36 L42.73,15.36 C43.1896551,15.3604305 43.6241324,15.1500862 43.908892,14.7892607 C44.1936516,14.4284352 44.2972531,13.9569673 44.19,13.51 L44.22,13.55 Z M28.54,5.33 L27.82,3.11 L33.17,3.01 L28.54,5.33 Z M32.31,23.88 C32.6068181,24.8181073 32.7585689,25.7960568 32.76,26.78 L32.76,31.02 C32.7573619,34.0460258 31.5506862,36.9466228 29.4062768,39.0816515 C27.2618675,41.2166802 24.3560083,42.4106281 21.33,42.4 L20.1,42.4 C13.8094767,42.4 8.71,37.3005233 8.71,31.01 L8.71,26.77 C8.71001226,25.7688074 8.86518711,24.7736643 9.17,23.82 C11.4403375,27.7398395 15.5633214,30.220426 20.09,30.39 L21.32,30.39 C25.8559656,30.2795987 30.0061791,27.8122115 32.27,23.88 L32.31,23.88 Z M30.74,20.31 C30.5812389,20.5466954 30.4598199,20.806397 30.38,21.08 C28.9148129,24.7991663 25.3755226,27.2884672 21.38,27.41 L20.15,27.41 C16.4,27.41 12.78,24.7 11.15,21.04 C11.0701744,20.8227833 10.9553218,20.6201022 10.81,20.44 C11.5745003,19.3169391 12.5287589,18.3356094 13.63,17.54 C14.24,19.17 14.85,20.76 15.38,22.21 L18.2,21.16 C17.5,19.25 16.87,17.57 16.32,16.1 C17.5568383,15.6476031 18.8630281,15.4141132 20.18,15.41 L21.41,15.41 C23.2376709,15.4065902 25.0389919,15.8457694 26.66,16.69 L23.53,21.6 C23.1132626,22.2970604 23.3269789,23.199184 24.0121459,23.6351993 C24.6973129,24.0712147 25.6050458,23.8827406 26.06,23.21 L29.11,18.41 C29.7073344,18.9837986 30.240471,19.62088 30.7,20.31 L30.74,20.31 Z M35.74,11.38 L30.42,7.76 L38.78,2.4 L35.74,11.38 Z M38.58,12.38 L39.78,6.38 L40.88,12.38 L38.58,12.38 Z" id="Shape"></path>
            </g>
        </g>
    </g>
</svg>