<?xml version="1.0" encoding="UTF-8"?>
<svg width="17px" class="fillSVG" viewBox="0 0 37 45" version="1.1" xmlns="http://www.w3.org/2000/svg" xmlns:xlink="http://www.w3.org/1999/xlink">
    <g id="icons" stroke="none" stroke-width="1" fill="none" fill-rule="evenodd">
        <g id="250-icons-48x48px" transform="translate(-352.000000, -2249.000000)" fill="">
            <g id="Book" transform="translate(352.000000, 2249.000000)">
                <path d="M33.62,0.4 L9.88,0.4 C9.25798177,0.404618933 8.64173403,0.519742137 8.06,0.74 L7.72,0.4 L6.34,1.78 L6.12,2 L2.58,5.54 C2.32010918,5.75224342 2.08224342,5.99010918 1.87,6.25 L0.72,7.4 L1.1,7.51 C0.851929874,8.10938486 0.722864642,8.75131457 0.72,9.4 L0.72,39.4 C0.72,42.1614237 2.95857625,44.4 5.72,44.4 L26.72,44.4 C27.5691244,44.3949219 28.4026045,44.1710533 29.14,43.75 L29.87,44.36 L33.48,40.03 C35.4122184,39.303472 36.6993181,37.4641907 36.72,35.4 L36.72,0.4 L33.62,0.4 Z M33.72,3.4 L33.72,35.4 C33.7095947,35.9522922 33.4618209,36.473346 33.04,36.83 L32.57,36.44 L31.79,37.38 L31.72,37.38 L31.72,4.38 L8.03,4.38 C8.44091161,3.75856886 9.13500767,3.3833818 9.88,3.38 L33.72,3.4 Z M17.72,7.4 L21.72,7.4 L21.72,16.28 L19.4,14.42 L17.72,15.97 L17.72,7.4 Z M5.72,41.4 C4.6154305,41.4 3.72,40.5045695 3.72,39.4 L3.72,9.4 C3.72,8.2954305 4.6154305,7.4 5.72,7.4 L14.72,7.4 L14.72,22.83 L19.54,18.38 L24.72,22.52 L24.72,7.4 L28.72,7.4 L28.72,39.4 C28.72,40.5045695 27.8245695,41.4 26.72,41.4 L5.72,41.4 Z" id="Shape"></path>
            </g>
        </g>
    </g>
</svg>