<?xml version="1.0" encoding="UTF-8"?>
<svg width="21px" height="22px" class="fillSVG" viewBox="0 0 43 44" version="1.1" xmlns="http://www.w3.org/2000/svg" xmlns:xlink="http://www.w3.org/1999/xlink">
    <g id="icons" stroke="none" stroke-width="1" fill="none" fill-rule="evenodd">
        <g id="250-icons-48x48px" transform="translate(-787.000000, -2690.000000)" fill="">
            <g id="Galaxy" transform="translate(787.000000, 2690.000000)">
                <path d="M42.22,21.4 C42.22,20.5715729 41.5484271,19.9 40.72,19.9 C39.8915729,19.9 39.22,20.5715729 39.22,21.4 C39.22,22.78 38.73,34.4 21.72,34.4 C3.72,34.4 3.22,23.52 3.22,23.4 C3.22,22.32 3.54,12.4 14.72,12.4 C26.62,12.4 26.72,19.98 26.72,21.4 C26.72,24.71 22.1,27.4 18.72,27.4 C15.34,27.4 11.72,24.4 11.72,22.4 C11.72,20.4 14.55,18.4 16.72,18.4 C18.0194999,18.440253 19.1830357,19.2159436 19.72,20.4 C19.63,20.79 19.72,21.9 18.72,21.9 C18.5150158,21.9040281 18.310271,21.8838893 18.11,21.84 C17.8405083,21.1756061 17.1385222,20.7948145 16.4346454,20.9312058 C15.7307687,21.0675972 15.2218231,21.683033 15.22,22.4 C15.22,23.26 15.95,24.4 18.72,24.4 C19.794246,24.4457757 20.8384757,24.0390675 21.5987716,23.2787716 C22.3590675,22.5184757 22.7657757,21.474246 22.72,20.4 C22.72,18.59 20.49,15.4 16.72,15.4 C13.11,15.4 8.72,18.4 8.72,22.4 C8.72,26.26 13.84,30.4 18.72,30.4 C23.42,30.4 29.72,26.87 29.72,21.4 C29.72,20.22 29.79,9.4 14.72,9.4 C0.39,9.4 0.22,22.85 0.22,23.4 C0.22,27.4 4.08,37.4 21.72,37.4 C37.9,37.4 42.22,27.53 42.22,21.4 Z" id="Shape"></path>
                <path d="M31.22,9.4 C33.7052814,9.4 35.72,7.38528137 35.72,4.9 C35.72,2.41471863 33.7052814,0.4 31.22,0.4 C28.7347186,0.4 26.72,2.41471863 26.72,4.9 C26.7254995,7.38299985 28.7370001,9.39450053 31.22,9.4 Z M31.22,3.4 C32.0484271,3.4 32.72,4.07157288 32.72,4.9 C32.72,5.72842712 32.0484271,6.4 31.22,6.4 C30.3915729,6.4 29.72,5.72842712 29.72,4.9 C29.72,4.07157288 30.3915729,3.4 31.22,3.4 Z" id="Shape"></path>
                <circle id="Oval" cx="37.22" cy="12.9" r="1.5"></circle>
                <circle id="Oval" cx="15.22" cy="1.9" r="1.5"></circle>
                <circle id="Oval" cx="8.22" cy="5.9" r="1.5"></circle>
                <circle id="Oval" cx="38.22" cy="36.9" r="1.5"></circle>
                <circle id="Oval" cx="2.22" cy="10.9" r="1.5"></circle>
                <circle id="Oval" cx="21.22" cy="7.9" r="1.5"></circle>
                <circle id="Oval" cx="5.72" cy="36.9" r="1.5"></circle>
                <circle id="Oval" cx="16.22" cy="40.9" r="1.5"></circle>
                <circle id="Oval" cx="28.22" cy="41.9" r="1.5"></circle>
                <circle id="Oval" cx="34.22" cy="23.9" r="1.5"></circle>
            </g>
        </g>
    </g>
</svg>