<?xml version="1.0" encoding="UTF-8"?>
<svg height="17px" class="fillSVG" viewBox="0 0 46 31" version="1.1" xmlns="http://www.w3.org/2000/svg" xmlns:xlink="http://www.w3.org/1999/xlink">
    <g id="icons" stroke="none" stroke-width="1" fill="none" fill-rule="evenodd">
        <g id="250-icons-48x48px" transform="translate(-874.000000, -2255.000000)" fill="">
            <g id="Bice" transform="translate(874.000000, 2255.000000)">
                <path d="M35.72,10.4 C35.2816134,10.4045814 34.8440025,10.4379868 34.41,10.5 L34.19,9.64 C34.2304082,9.44204103 34.2304082,9.23795897 34.19,9.04 L33.19,5.04 C33.1418355,4.85185381 33.0568658,4.67511672 32.94,4.52 L32.19,1.52 C32.0241149,0.84900396 31.4211949,0.378230787 30.73,0.38 L24.73,0.38 C23.9015729,0.38 23.23,1.05157288 23.23,1.88 C23.23,2.70842712 23.9015729,3.38 24.73,3.38 L29.56,3.38 L29.71,3.99 C24.8060426,4.57582678 20.2344468,6.77019274 16.71,10.23 L16.71,5.88 C16.71,5.05157288 16.0384271,4.38 15.21,4.38 L9.71,4.38 C8.88157288,4.38 8.21,5.05157288 8.21,5.88 C8.21,6.70842712 8.88157288,7.38 9.71,7.38 L13.71,7.38 L13.71,10.84 C9.76171223,9.59924623 5.45707813,10.9188542 2.88250254,14.1592256 C0.307926951,17.399597 -0.00454690018,21.8911 2.09653334,25.4567568 C4.19761357,29.0224135 8.27805381,30.9253711 12.3601133,30.2432885 C16.4421728,29.561206 19.6822825,26.4350376 20.51,22.38 L22.71,22.38 C23.2406188,22.3788627 23.7311537,22.0974706 24,21.64 C24,21.64 24.84,20.21 25.89,18.47 C25.0794811,22.6129138 26.9578554,26.8185695 30.584048,28.9799125 C34.2102406,31.1412554 38.8030971,30.7926892 42.0615735,28.1088473 C45.3200499,25.4250054 46.5422053,20.9840408 45.1157337,17.0108992 C43.6892621,13.0377575 39.9214539,10.3883328 35.7,10.39 L35.72,10.4 Z M15.85,15.65 C16.8124749,16.690009 17.4366488,17.9976359 17.64,19.4 L13.22,19.4 C14.0128764,18.0932821 14.8914677,16.8405379 15.85,15.65 L15.85,15.65 Z M10.72,27.4 C7.89194627,27.4030523 5.33986919,25.7040898 4.25154083,23.0938334 C3.16321246,20.483577 3.75245624,17.4748626 5.74502993,15.4679876 C7.73760362,13.4611125 10.7420271,12.8503669 13.36,13.92 C11.7964728,15.8861925 10.4549991,18.0191358 9.36,20.28 C9.14895201,20.7449369 9.1889039,21.2853 9.46603378,21.7141433 C9.74316365,22.1429866 10.2194066,22.4014068 10.73,22.4 L17.44,22.4 C16.5542784,25.3708167 13.8200367,27.4052227 10.72,27.4 L10.72,27.4 Z M21.86,19.4 L20.67,19.4 C20.436865,17.1362478 19.4385703,15.0197219 17.84,13.4 C20.84,10.28 25.08,7.4 30.44,6.96 L30.8,8.41 C29.0305973,9.1227876 27.520252,10.3575734 26.47,11.95 C24.9,14.29 22.77,17.86 21.86,19.4 Z M35.72,27.4 C32.5434526,27.3948513 29.7685928,25.2514066 28.9612215,22.179171 C28.1538502,19.1069354 29.5163959,15.8761969 32.28,14.31 L34.28,22.31 C34.444987,22.9773788 35.0425357,23.4471757 35.73,23.45 C35.8528732,23.465067 35.9771268,23.465067 36.1,23.45 C36.4859019,23.3532158 36.8175458,23.1070862 37.021964,22.7657641 C37.2263821,22.4244421 37.2868271,22.0158912 37.19,21.63 L35.19,13.52 L35.76,13.52 C39.6259932,13.52 42.76,16.6540068 42.76,20.52 C42.76,24.3859932 39.6259932,27.52 35.76,27.52 L35.72,27.4 Z" id="Shape"></path>
            </g>
        </g>
    </g>
</svg>