<?xml version="1.0" encoding="UTF-8"?>
<svg width="19px" height="20px" class="fillSVG" viewBox="0 0 19 20" version="1.1" xmlns="http://www.w3.org/2000/svg" xmlns:xlink="http://www.w3.org/1999/xlink">
    <g id="lander" stroke="none" stroke-width="1" fill="none" fill-rule="evenodd">
        <g id="1340" transform="translate(-178.000000, -379.000000)" fill="">
            <g id="Group" transform="translate(159.000000, 379.000000)">
                <g id="Gift" transform="translate(19.000000, 0.000000)">
                    <path d="M17.020979,4.41025641 C17.159747,4.15050092 17.2333409,3.86092479 17.2354312,3.56643357 C17.2354312,2.4988345 16.4848485,1.11888112 14.3216783,1.11888112 C13.4902787,1.19644296 12.678265,1.41560784 11.9207459,1.76689977 L12.0932401,1.52447552 C12.2521517,1.32190136 12.2868961,1.04839162 12.1836813,0.812519038 C12.0804664,0.576646456 11.8559895,0.416568693 11.5993592,0.39583039 C11.342729,0.375092087 11.0954609,0.497048128 10.955711,0.713286713 L9.25874126,3.08624709 L7.93473193,0.755244755 C7.74291276,0.419239348 7.31502639,0.302353315 6.97902098,0.494172494 C6.64301557,0.685991673 6.52612954,1.11387804 6.71794872,1.44988345 L7.03496503,2.004662 C6.12150497,1.4902176 5.10605165,1.18303501 4.06060606,1.1048951 C3.16083916,1.1048951 2.62004662,1.54312354 2.06060606,1.93939394 C1.50123096,2.28888776 1.15186461,2.89329153 1.12820513,3.55244755 C1.13029548,3.84693878 1.20388941,4.13651491 1.34265734,4.3962704 C0.736680286,4.56167511 0.315311579,5.11078908 0.312354312,5.73892774 L0.312354312,8.11188811 C0.312354312,8.88431434 0.938529487,9.51048951 1.71095571,9.51048951 L1.71095571,17.9020979 C1.71095571,18.6745241 2.33713089,19.3006993 3.10955711,19.3006993 L15.2307692,19.3006993 C16.0031955,19.3006993 16.6293706,18.6745241 16.6293706,17.9020979 L16.6293706,9.51048951 C17.4017969,9.51048951 18.027972,8.88431434 18.027972,8.11188811 L18.027972,5.75291375 C18.027972,5.13131313 17.6177156,4.58430458 17.020979,4.41025641 L17.020979,4.41025641 Z M15.8368298,3.56643357 C15.8108934,3.76195883 15.6954399,3.93427749 15.5244755,4.03263403 C15.244494,4.24020206 14.9077988,4.35731344 14.5594406,4.36829837 L10.4848485,4.36829837 C11.4443694,3.23444288 12.8372935,2.55744453 14.3216783,2.5034965 C15.5291375,2.51748252 15.8368298,3.22610723 15.8368298,3.56643357 Z M1.73426573,5.78088578 L8.26107226,5.78088578 L8.26107226,8.11188811 L1.73426573,8.11188811 L1.73426573,5.78088578 Z M4.06526807,2.51748252 C5.54965288,2.57143054 6.94257699,3.24842889 7.9020979,4.38228438 L3.83216783,4.38228438 C2.95571096,4.38228438 2.55477855,3.87878788 2.55477855,3.58974359 C2.55477855,3.3006993 2.85780886,2.51748252 4.06526807,2.51748252 Z M3.13286713,9.51048951 L8.26107226,9.51048951 L8.26107226,17.9020979 L3.13286713,17.9020979 L3.13286713,9.51048951 Z M15.2540793,17.9020979 L9.65967366,17.9020979 L9.65967366,9.51048951 L15.2540793,9.51048951 L15.2540793,17.9020979 Z M16.6526807,8.11188811 L9.65967366,8.11188811 L9.65967366,5.78088578 L16.6526807,5.78088578 L16.6526807,8.11188811 Z" id="Shape"></path>
                </g>
            </g>
        </g>
    </g>
</svg>