<?xml version="1.0" encoding="UTF-8"?>
<svg width="18px" height="18px" class="fillSVG" viewBox="0 0 18 18" version="1.1" xmlns="http://www.w3.org/2000/svg" xmlns:xlink="http://www.w3.org/1999/xlink">
    <g id="lander" stroke="none" stroke-width="1" fill="" fill-rule="evenodd">
        <g id="1340" transform="translate(-54.000000, -379.000000)" fill="">
            <g id="Intercom_Logo_Mark_White" transform="translate(54.000000, 379.000000)">
                <path d="M12.1995,1.40025 C12.1995,0.9585 12.558,0.6 12.99975,0.6 C13.4415,0.6 13.8,0.9585 13.8,1.40025 L13.8,12.0885 C13.8,12.53025 13.4415,12.88875 12.99975,12.88875 C12.558,12.88875 12.1995,12.53025 12.1995,12.0885 L12.1995,1.40025 Z M8.19975,0.99525 C8.19975,0.5535 8.55825,0.195 9,0.195 C9.44175,0.195 9.80025,0.5535 9.80025,0.99525 L9.80025,12.5955 C9.80025,13.03725 9.44175,13.39575 9,13.39575 C8.55825,13.39575 8.19975,13.03725 8.19975,12.5955 L8.19975,0.99525 Z M4.2,1.40025 C4.2,0.9585 4.5585,0.6 5.00025,0.6 C5.442,0.6 5.79975,0.9585 5.79975,1.40025 L5.79975,12.0885 C5.79975,12.53025 5.442,12.88875 5.00025,12.88875 C4.5585,12.88875 4.2,12.53025 4.2,12.0885 L4.2,1.40025 Z M0.20025,3 C0.20025,2.55825 0.558,2.19975 0.99975,2.19975 C1.4415,2.19975 1.8,2.55825 1.8,3 L1.8,10.1955 C1.8,10.63725 1.4415,10.99575 0.99975,10.99575 C0.558,10.99575 0.20025,10.63725 0.20025,10.1955 L0.20025,3 Z M17.52075,15.2025 C17.39775,15.309 14.43375,17.79525 9,17.79525 C3.56625,17.79525 0.60375,15.309 0.47925,15.2025 C0.144,14.91525 0.10425,14.4105 0.39225,14.0745 C0.67875,13.74 1.18275,13.70025 1.518,13.98675 C1.5645,14.02575 4.21125,16.1955 8.99925,16.1955 C13.84725,16.1955 16.45275,14.01 16.47825,13.98825 C16.81275,13.70025 17.319,13.73925 17.6055,14.0745 C17.89425,14.4105 17.856,14.91525 17.52075,15.2025 Z M17.79975,10.1955 C17.79975,10.63725 17.44125,10.99575 16.9995,10.99575 C16.55775,10.99575 16.2,10.63725 16.2,10.1955 L16.2,3 C16.2,2.55825 16.55775,2.19975 16.9995,2.19975 C17.44125,2.19975 17.79975,2.55825 17.79975,3 L17.79975,10.1955 Z" id="SVGID_5_"></path>
            </g>
        </g>
    </g>
</svg>