<?xml version="1.0" encoding="UTF-8"?>
<svg width="21px" height="21px" class="fillSVG" viewBox="0 0 45 45" version="1.1" xmlns="http://www.w3.org/2000/svg" xmlns:xlink="http://www.w3.org/1999/xlink">
    <g id="icons" stroke="none" stroke-width="1" fill="none" fill-rule="evenodd">
        <g id="250-icons-48x48px" transform="translate(-874.000000, -1265.000000)" fill="">
            <g id="Smile" transform="translate(874.000000, 1265.000000)">
                <circle id="Oval" cx="14.72" cy="16.4" r="2"></circle>
                <circle id="Oval" cx="30.72" cy="16.4" r="2"></circle>
                <path d="M22.72,0.4 C10.5697355,0.4 0.72,10.2497355 0.72,22.4 C0.72,34.5502645 10.5697355,44.4 22.72,44.4 C34.8702645,44.4 44.72,34.5502645 44.72,22.4 C44.72,10.2497355 34.8702645,0.4 22.72,0.4 L22.72,0.4 Z M22.72,41.4 C12.2265898,41.4 3.72,32.8934102 3.72,22.4 C3.72,11.9065898 12.2265898,3.4 22.72,3.4 C33.2134102,3.4 41.72,11.9065898 41.72,22.4 C41.72,32.8934102 33.2134102,41.4 22.72,41.4 L22.72,41.4 Z" id="Shape"></path>
                <path d="M22.72,35.4 C17.6733052,35.2372764 13.0534767,32.5263746 10.45,28.2 C10.0081722,27.4985984 10.2185984,26.5718278 10.92,26.13 C11.6214016,25.6881722 12.5481722,25.8985984 12.99,26.6 C14.9215934,30.1741724 18.6572717,32.4016067 22.72,32.4016067 C26.7827283,32.4016067 30.5184066,30.1741724 32.45,26.6 C32.7358124,26.1462726 33.2419747,25.8794903 33.7778204,25.9001475 C34.3136661,25.9208046 34.7977874,26.225763 35.0478205,26.7001476 C35.2978537,27.1745322 35.2758126,27.7462727 34.99,28.2 C32.3865233,32.5263746 27.7666948,35.2372764 22.72,35.4 Z" id="Shape"></path>
            </g>
        </g>
    </g>
</svg>