<?xml version="1.0" encoding="UTF-8"?>
<svg width="24px" height="17px" class="fillSVG" viewBox="0 0 24 17" version="1.1" xmlns="http://www.w3.org/2000/svg" xmlns:xlink="http://www.w3.org/1999/xlink">
    <g id="lander" stroke="none" stroke-width="1" fill="" fill-rule="evenodd">
        <g id="1340" transform="translate(-51.000000, -596.000000)" fill="">
            <g id="Share" transform="translate(51.000000, 596.000000)">
                <path d="M22.8104348,7.51304348 L21.2452174,7.51304348 C20.8129945,7.51304348 20.4626087,7.86342933 20.4626087,8.29565217 C20.4626087,8.72787502 20.8129945,9.07826087 21.2452174,9.07826087 L22.8104348,9.07826087 C23.2426576,9.07826087 23.5930435,8.72787502 23.5930435,8.29565217 C23.5930435,7.86342933 23.2426576,7.51304348 22.8104348,7.51304348 Z" id="Shape"></path>
                <path d="M22.7217391,12.0782609 L21.1565217,11.0347826 C20.796336,10.7956193 20.3104677,10.8937273 20.0713043,11.253913 C19.832141,11.6140987 19.9302491,12.0999671 20.2904348,12.3391304 L21.8556522,13.3826087 C22.2158379,13.6217719 22.7017062,13.5236639 22.9408695,13.1634782 C23.1800327,12.8032925 23.0819248,12.3174242 22.7217391,12.0782609 Z" id="Shape"></path>
                <path d="M20.7078261,5.65043478 C20.8554913,5.65061324 21.0001942,5.60901118 21.1252174,5.53043478 L22.7426087,4.48695652 C22.9870584,4.34081234 23.1328172,4.07340756 23.1231832,3.78876576 C23.1135492,3.50412397 22.9500436,3.24718653 22.6962719,3.11790511 C22.4425002,2.9886237 22.1385298,3.00741023 21.9026087,3.16695652 L20.2852174,4.21043478 C19.9889374,4.39662012 19.852259,4.75686004 19.9504705,5.0927191 C20.048682,5.42857816 20.3579131,5.6584258 20.7078261,5.65565217 L20.7078261,5.65043478 Z" id="Shape"></path>
                <path d="M17.5930435,0.208695652 L15.506087,0.208695652 C14.6416413,0.208695652 13.9408696,0.909467348 13.9408696,1.77391304 L13.9408696,1.82086957 L4.9773913,5.42608696 C4.75682697,4.80222851 4.16778517,4.38446836 3.50608696,4.3826087 L1.94086957,4.3826087 C1.07642387,4.3826087 0.375652174,5.08338039 0.375652174,5.94782609 L0.375652174,11.1652174 C0.375652174,12.0296631 1.07642387,12.7304348 1.94086957,12.7304348 L3.50608696,12.7304348 C4.1658679,12.7263777 4.75225525,12.3090201 4.97217391,11.6869565 L5.9373913,12.1095652 C5.88325064,12.2163257 5.85467225,12.3342116 5.85391304,12.453913 C5.82415971,13.8502054 6.60237473,15.1384256 7.85217391,15.7617391 C8.31249703,15.9904415 8.81991208,16.1083619 9.33391304,16.106087 C10.2624848,16.0952042 11.1557479,15.7486477 11.8486957,15.1304348 C11.9490043,15.0417236 12.0245191,14.9284514 12.0678261,14.8017391 L13.9721739,15.6417391 C14.1209536,16.3706081 14.7621882,16.8940649 15.506087,16.893913 L17.5930435,16.893913 C18.4574892,16.893913 19.1582609,16.1931413 19.1582609,15.3286957 L19.1582609,1.76347826 C19.152525,0.903110379 18.4534305,0.208676532 17.5930435,0.208695652 Z M3.50608696,11.1652174 L1.94086957,11.1652174 L1.94086957,5.94782609 L3.50608696,5.94782609 L3.50608696,11.1652174 Z M13.9408696,14.0347826 L5.07130435,10.08 L5.07130435,7.04869565 L13.9408696,3.45391304 L13.9408696,14.0347826 Z M8.55130435,14.3791304 C7.93003975,14.0745555 7.50990103,13.4709759 7.44,12.7826087 L10.5704348,14.1547826 C9.98553945,14.5842384 9.21620474,14.6697201 8.55130435,14.3791304 L8.55130435,14.3791304 Z M17.5930435,15.3391304 L15.506087,15.3391304 L15.506087,1.77391304 L17.5930435,1.77391304 L17.5930435,15.3391304 Z" id="Shape"></path>
            </g>
        </g>
    </g>
</svg>