<?xml version="1.0" encoding="UTF-8"?>
<svg height="20px" class="fillSVG" viewBox="0 0 34 34" version="1.1" xmlns="http://www.w3.org/2000/svg" xmlns:xlink="http://www.w3.org/1999/xlink">
    <g id="icons" stroke="none" stroke-width="1" fill="none" fill-rule="evenodd">
        <g id="250-icons-48x48px" transform="translate(-178.000000, -1090.000000)" fill="">
            <g id="Exit_full_screen" transform="translate(178.000000, 1090.000000)">
                <path d="M12.61,22.33 C12.4576497,21.9577896 12.1622104,21.6623503 11.79,21.51 L11.79,21.51 C11.6090495,21.4363172 11.4153743,21.3989412 11.22,21.4 L5.22,21.4 C4.39157288,21.4 3.72,22.0715729 3.72,22.9 C3.72,23.7284271 4.39157288,24.4 5.22,24.4 L7.6,24.4 L1.16,30.84 C0.758693645,31.2139412 0.593501637,31.7771111 0.729228916,32.3085778 C0.864956196,32.8400446 1.27995545,33.2550438 1.81142218,33.3907711 C2.34288892,33.5264984 2.90605884,33.3613064 3.28,32.96 L9.72,26.52 L9.72,28.9 C9.72,29.7284271 10.3915729,30.4 11.22,30.4 C12.0484271,30.4 12.72,29.7284271 12.72,28.9 L12.72,22.9 C12.7184819,22.7113562 12.681154,22.5247166 12.61,22.35 L12.61,22.33 Z" id="Shape"></path>
                <path d="M22.22,13.4 L28.22,13.4 C29.0484271,13.4 29.72,12.7284271 29.72,11.9 C29.72,11.0715729 29.0484271,10.4 28.22,10.4 L25.84,10.4 L32.78,3.46 C33.3307177,2.86898049 33.3144678,1.94798056 32.7432436,1.3767564 C32.1720194,0.805532248 31.2510195,0.789282279 30.66,1.34 L23.72,8.28 L23.72,5.9 C23.72,5.07157288 23.0484271,4.4 22.22,4.4 C21.3915729,4.4 20.72,5.07157288 20.72,5.9 L20.72,11.9 C20.72,12.2978247 20.8780353,12.6793556 21.1593398,12.9606602 C21.4406444,13.2419647 21.8221753,13.4 22.22,13.4 Z" id="Shape"></path>
                <path d="M11.22,4.4 C10.3915729,4.4 9.72,5.07157288 9.72,5.9 L9.72,7.78 L3.28,1.34 C2.90605884,0.938693645 2.34288892,0.773501637 1.81142218,0.909228916 C1.27995545,1.0449562 0.864956196,1.45995545 0.729228916,1.99142218 C0.593501637,2.52288892 0.758693645,3.08605884 1.16,3.46 L8.1,10.4 L5.22,10.4 C4.39157288,10.4 3.72,11.0715729 3.72,11.9 C3.72,12.7284271 4.39157288,13.4 5.22,13.4 L11.22,13.4 C12.0484271,13.4 12.72,12.7284271 12.72,11.9 L12.72,5.9 C12.72,5.07157288 12.0484271,4.4 11.22,4.4 Z" id="Shape"></path>
                <path d="M26.34,24.4 L28.22,24.4 C29.0484271,24.4 29.72,23.7284271 29.72,22.9 C29.72,22.0715729 29.0484271,21.4 28.22,21.4 L22.22,21.4 C21.3915729,21.4 20.72,22.0715729 20.72,22.9 L20.72,28.9 C20.72,29.7284271 21.3915729,30.4 22.22,30.4 C23.0484271,30.4 23.72,29.7284271 23.72,28.9 L23.72,26.02 L30.66,32.96 C31.2510195,33.5107177 32.1720194,33.4944678 32.7432436,32.9232436 C33.3144678,32.3520194 33.3307177,31.4310195 32.78,30.84 L26.34,24.4 Z" id="Shape"></path>
            </g>
        </g>
    </g>
</svg>