<?xml version="1.0" encoding="UTF-8"?>
<svg width="18px" height="18px" class="fillSVG" viewBox="0 0 18 18" version="1.1" xmlns="http://www.w3.org/2000/svg" xmlns:xlink="http://www.w3.org/1999/xlink">
    <g id="lander" stroke="none" stroke-width="1" fill="none" fill-rule="evenodd">
        <g id="1340" transform="translate(-54.000000, -713.000000)" fill="">
            <path d="M70.9260197,729.871103 L66.871339,725.838363 C69.7123753,722.979757 69.798946,718.391004 67.0677531,715.427273 C64.3365602,712.463541 59.7560256,712.175706 56.675308,714.774225 C53.5945904,717.372743 53.1060457,721.936236 55.566884,725.128006 C58.0277223,728.319775 62.5653837,729.008089 65.8620571,726.689671 L69.995725,730.823338 C70.2550751,731.065003 70.6592267,731.057873 70.9098903,730.807209 C71.1605539,730.556545 71.1676846,730.152394 70.9260197,729.893044 L70.9260197,729.871103 Z M55.4313473,720.572544 C55.4313473,717.179607 58.181866,714.429089 61.5748028,714.429089 C64.9677396,714.429089 67.7182583,717.179607 67.7182583,720.572544 C67.7182583,723.965481 64.9677396,726.716 61.5748028,726.716 C58.181866,726.716 55.4313473,723.965481 55.4313473,720.572544 Z" id="Shape"></path>
        </g>
    </g>
</svg>