<?xml version="1.0" encoding="UTF-8"?>
<svg width="20px" height="20px" class="fillSVG" viewBox="0 0 20 20" version="1.1" xmlns="http://www.w3.org/2000/svg" xmlns:xlink="http://www.w3.org/1999/xlink">
    <g id="lander" stroke="none" stroke-width="1" fill="none" fill-rule="evenodd">
        <g id="1340" transform="translate(-51.000000, -665.000000)" fill="">
            <g id="Target-2" transform="translate(51.000000, 665.000000)">
                <path d="M10.0977778,0.177777778 C4.69766022,0.177777778 0.32,4.555438 0.32,9.95555556 C0.32,15.3556731 4.69766022,19.7333333 10.0977778,19.7333333 C15.4978953,19.7333333 19.8755556,15.3556731 19.8755556,9.95555556 C19.8755556,4.555438 15.4978953,0.177777778 10.0977778,0.177777778 L10.0977778,0.177777778 Z M10.0977778,18.4 C5.43403989,18.4 1.65333333,14.6192934 1.65333333,9.95555556 C1.65333333,5.29181767 5.43403989,1.51111111 10.0977778,1.51111111 C14.7615157,1.51111111 18.5422222,5.29181767 18.5422222,9.95555556 C18.5422222,14.6192934 14.7615157,18.4 10.0977778,18.4 Z" id="Shape"></path>
                <path d="M10.0977778,3.28888889 C6.41587945,3.28888889 3.43111111,6.27365722 3.43111111,9.95555556 C3.43111111,13.6374539 6.41587945,16.6222222 10.0977778,16.6222222 C13.7796761,16.6222222 16.7644444,13.6374539 16.7644444,9.95555556 C16.7644444,6.27365722 13.7796761,3.28888889 10.0977778,3.28888889 L10.0977778,3.28888889 Z M10.0977778,15.2888889 C7.15225911,15.2888889 4.76444444,12.9010742 4.76444444,9.95555556 C4.76444444,7.01003689 7.15225911,4.62222222 10.0977778,4.62222222 C13.0432964,4.62222222 15.4311111,7.01003689 15.4311111,9.95555556 C15.4311111,12.9010742 13.0432964,15.2888889 10.0977778,15.2888889 Z" id="Shape"></path>
                <path d="M10.0977778,6.4 C8.13409867,6.4 6.54222222,7.99187645 6.54222222,9.95555556 C6.54222222,11.9192347 8.13409867,13.5111111 10.0977778,13.5111111 C12.0614569,13.5111111 13.6533333,11.9192347 13.6533333,9.95555556 C13.6533333,7.99187645 12.0614569,6.4 10.0977778,6.4 Z M10.0977778,12.1777778 C8.87047833,12.1777778 7.87555556,11.182855 7.87555556,9.95555556 C7.87555556,8.72825611 8.87047833,7.73333333 10.0977778,7.73333333 C11.3250772,7.73333333 12.32,8.72825611 12.32,9.95555556 C12.32,11.182855 11.3250772,12.1777778 10.0977778,12.1777778 L10.0977778,12.1777778 Z" id="Shape"></path>
                <circle id="Oval" cx="10.0977778" cy="9.95555556" r="1"></circle>
            </g>
        </g>
    </g>
</svg>