<?xml version="1.0" encoding="UTF-8"?>
<svg height="21px" class="fillSVG" viewBox="0 0 45 45" version="1.1" xmlns="http://www.w3.org/2000/svg" xmlns:xlink="http://www.w3.org/1999/xlink">
    <g id="icons" stroke="none" stroke-width="1" fill="none" fill-rule="evenodd">
        <g id="250-icons-48x48px" transform="translate(-610.000000, -2161.000000)" fill="">
            <g id="Palette" transform="translate(610.000000, 2161.000000)">
                <path d="M12.72,19.4 C14.7860743,19.4168619 16.6497281,18.1611804 17.41,16.24 C17.5200587,15.9816307 17.6647154,15.7394149 17.84,15.52 C18.0601324,15.2932598 18.3308623,15.1219118 18.63,15.02 C19.5701628,14.662825 20.4008583,14.0665166 21.04,13.29 C21.6262394,12.501111 21.9164929,11.5312396 21.86,10.55 C22.001728,9.36783977 21.6386848,8.18068843 20.86,7.28 C20.0294491,6.45249018 18.9023978,5.99158739 17.73,6 C15.9652279,6.14428361 14.2916752,6.84451484 12.95,8 C11.68,8.95 8.73,11.47 8.74,14.42 C8.75,17.37 10.45,19.4 12.72,19.4 Z M14.72,10.4 C15.5662043,9.65705984 16.607046,9.1713337 17.72,9 C18.0939631,8.99122148 18.4552533,9.13573752 18.72,9.4 C18.9242864,10.0510168 18.9242864,10.7489832 18.72,11.4 C17.89,12.4 17.03,12.09 15.72,13.4 C14.41,14.71 14.72,16.4 12.72,16.4 C12.21,16.4 11.72,15.4 11.72,14.4 C11.71,13.12 13.31,11.45 14.72,10.4 Z" id="Shape"></path>
                <path d="M41.1,10.34 L41.86,9.34 C43.479941,7.65517222 43.4442859,4.98103808 41.78,3.34 C40.04,1.6 37.52,2.54 35.78,4.25 L35.47,4.47 C27.1985026,-1.34794137 16.026133,-0.777713203 8.38996049,5.85214199 C0.753787988,12.4819972 -1.37917454,23.4636853 3.22,32.47 C1.73003409,35.2133731 0.907795124,38.2693612 0.82,41.39 C0.79446079,42.7616872 1.67924867,43.9848963 2.99,44.39 C3.26417497,44.4622792 3.54645877,44.499245 3.83,44.5 C4.82307348,44.5169458 5.74811799,43.9970861 6.25,43.14 C6.95204474,42.5521959 7.85746533,42.2647608 8.77,42.34 C10.0359878,42.3488259 11.2963107,42.170224 12.51,41.81 C21.3764571,46.4458779 32.2544242,44.5151137 38.983878,37.1110691 C45.7133319,29.7070245 46.5992702,18.6946165 41.14,10.31 L41.1,10.34 Z M37.78,6.46 C38.1093719,6.14990747 38.4754209,5.88124769 38.87,5.66 C39.11,5.53 39.54,5.34 39.66,5.46 C39.9350787,5.70114255 40.0928172,6.04918856 40.0928172,6.415 C40.0928172,6.78081144 39.9350787,7.12885745 39.66,7.37 L39.57,7.47 C39.46,7.61 28.57,21.47 25.15,24.76 C23.1412574,26.5946881 20.7504775,27.960848 18.15,28.76 L16.53,27.14 C17.7111064,24.7135747 19.1279218,22.4091563 20.76,20.26 C23.76,16.59 37.45,6.76 37.59,6.66 L37.78,6.46 Z M3.72,22.4 C3.74469888,15.4903952 7.51855978,9.13888216 13.5752723,5.81330219 C19.6319848,2.48772221 27.0166494,2.71238531 32.86,6.4 C28.52,9.6 20.76,15.49 18.43,18.4 C16.4982808,20.9459237 14.8391873,23.6876175 13.48,26.58 C12.9682275,26.4626639 12.4450463,26.4022968 11.92,26.4 C9.48862762,26.4926909 7.20121331,27.5767735 5.59,29.4 C5.45,29.54 5.32,29.69 5.19,29.84 C4.20102492,27.4851976 3.70090483,24.9539776 3.72,22.4 L3.72,22.4 Z M3.78,41.4 C3.78,41.4 3.78,35.4 7.72,31.4 C8.78424191,30.1672285 10.3038913,29.4200375 11.93,29.33 C12.9618561,29.334 13.9583649,29.7063609 14.74,30.38 C17.39,33.03 17.04,35.08 15.74,36.38 C13.9300165,38.316541 11.3905872,39.4048678 8.74,39.38 C5.22,39.4 3.78,41.4 3.78,41.4 Z M22.72,41.4 C20.4009936,41.3986776 18.1022668,40.9680901 15.94,40.13 C16.6179722,39.64835 17.2536111,39.1097297 17.84,38.52 C19.7570464,36.7212168 20.2799088,33.8839792 19.13,31.52 C22.1302724,30.589698 24.8865861,29.004903 27.2,26.88 C29.7,24.47 35.59,17.2 39.12,12.79 C42.5656849,18.6668384 42.6013057,25.9386579 39.2133599,31.8489707 C35.8254141,37.7592835 29.5324858,41.4034132 22.72,41.4 Z" id="Shape"></path>
                <circle id="Oval" cx="25.22" cy="35.9" r="2.5"></circle>
                <circle id="Oval" cx="33.22" cy="30.9" r="2.5"></circle>
                <circle id="Oval" cx="37.22" cy="22.9" r="2.5"></circle>
            </g>
        </g>
    </g>
</svg>