<?xml version="1.0" encoding="UTF-8"?>
<svg width="25px" height="19px" class="strokeSVG" viewBox="0 0 25 19" version="1.1" xmlns="http://www.w3.org/2000/svg" xmlns:xlink="http://www.w3.org/1999/xlink">
    <g id="lander" stroke="none" stroke-width="1" fill="none" fill-rule="evenodd">
        <g id="1340" transform="translate(-175.000000, -595.000000)" stroke="" stroke-width="1.45">
            <path d="M195.246208,601.50525 C195.246208,601.330395 195.246208,601.156327 195.234688,600.983048 C196.00563,600.411154 196.671121,599.703045 197.2,598.891876 C196.481059,599.218588 195.718397,599.432846 194.937472,599.527497 C195.759803,599.022609 196.375263,598.228507 196.669312,597.292976 C195.896057,597.763553 195.050096,598.095192 194.167936,598.273582 C192.94688,596.942001 191.006632,596.616092 189.435174,597.478606 C187.863715,598.34112 187.051859,600.177553 187.454848,601.95814 C184.287536,601.795296 181.336557,600.261041 179.33632,597.737202 C178.290782,599.58314 178.824823,601.94464 180.555904,603.130141 C179.929017,603.111087 179.315799,602.937654 178.768,602.62448 L178.768,602.675676 C178.768513,604.598761 180.090305,606.255112 181.92832,606.635906 C181.34838,606.798112 180.739902,606.821823 180.149632,606.705218 C180.665688,608.350922 182.144569,609.478312 183.829888,609.510775 C182.434997,610.635071 180.711854,611.245407 178.937728,611.243573 C178.62431,611.242956 178.311197,611.223494 178,611.185288 C179.801448,612.370897 181.897533,612.999777 184.038016,612.996849 C191.283328,613 195.246208,606.843842 195.246208,601.50525 Z" id="Shape"></path>
        </g>
    </g>
</svg>