<?xml version="1.0" encoding="UTF-8"?>
<svg width="18px" height="18px" class="fillSVG" viewBox="0 0 18 18" version="1.1" xmlns="http://www.w3.org/2000/svg" xmlns:xlink="http://www.w3.org/1999/xlink">
    <g id="lander" stroke="none" stroke-width="1" fill="" fill-rule="evenodd">
        <g id="1340" transform="translate(-54.000000, -490.000000)" fill="">
            <g id="Stars" transform="translate(54.000000, 490.000000)">
                <path d="M13.824,6.93 C13.8244539,6.434328 13.5532377,5.97827021 13.1175,5.742 C10.053,4.086 9.918,3.942 8.2395,0.882 C8.00281175,0.449418231 7.54910063,0.180296807 7.056,0.18 L7.056,0.18 C6.56098067,0.182089751 6.10680683,0.454939439 5.8725,0.891 C4.2255,3.9465 4.0725,4.0815 1.035,5.7465 C0.60069274,5.98287953 0.330365739,6.43778253 0.330365739,6.93225 C0.330365739,7.42671747 0.60069274,7.88162047 1.035,8.118 C4.095,9.7785 4.23,9.918 5.8905,12.978 C6.12687953,13.4123073 6.58178253,13.6826343 7.07625,13.6826343 C7.57071747,13.6826343 8.02562047,13.4123073 8.262,12.978 C9.9225,9.918 10.062,9.783 13.1175,8.1225 C13.5546611,7.88546348 13.8261107,7.42728433 13.824,6.93 Z M7.074,12.33 C5.274,9.0405 4.959,8.73 1.674,6.93 C4.95,5.13 5.274,4.815 7.074,1.53 C8.874,4.8195 9.1935,5.13 12.474,6.93 C9.189,8.73 8.856,9.045 7.074,12.33 Z" id="Shape"></path>
                <path d="M17.1675,12.942 C16.0605,12.3435 16.0605,12.3435 15.462,11.2365 C15.2256205,10.8021927 14.7707175,10.5318657 14.27625,10.5318657 C13.7817825,10.5318657 13.3268795,10.8021927 13.0905,11.2365 C12.492,12.3435 12.492,12.3435 11.385,12.942 C10.9506927,13.1783795 10.6803657,13.6332825 10.6803657,14.12775 C10.6803657,14.6222175 10.9506927,15.0771205 11.385,15.3135 C12.492,15.912 12.492,15.912 13.0905,17.019 C13.3268795,17.4533073 13.7817825,17.7236343 14.27625,17.7236343 C14.7707175,17.7236343 15.2256205,17.4533073 15.462,17.019 C16.0605,15.912 16.0605,15.912 17.1675,15.3135 C17.6018073,15.0771205 17.8721343,14.6222175 17.8721343,14.12775 C17.8721343,13.6332825 17.6018073,13.1783795 17.1675,12.942 Z M14.274,16.38 C13.5315,15.03 13.374,14.8725 12.024,14.13 C13.374,13.3875 13.5315,13.23 14.274,11.88 C15.0165,13.23 15.174,13.3875 16.524,14.13 C15.156,14.8725 15.0165,15.03 14.274,16.38 Z" id="Shape"></path>
            </g>
        </g>
    </g>
</svg>